<?xml version="1.0" encoding="UTF-8"?>
<svg version="1.1" viewbox="0 0 960 1098" xmlns="http://www.w3.org/2000/svg">
<path d="M0 0 C13.2 0 26.4 0 40 0 C40 6.6 40 13.2 40 20 C46.6 20 53.2 20 60 20 C60 26.6 60 33.2 60 40 C66.6 40 73.2 40 80 40 C80 52.87 80 65.74 80 79 C86.6 79 93.2 79 100 79 C100 244 100 409 100 579 C93.4 579 86.8 579 80 579 C80 591.87 80 604.74 80 618 C73.4 618 66.8 618 60 618 C60 624.6 60 631.2 60 638 C53.4 638 46.8 638 40 638 C40 644.6 40 651.2 40 658 C26.8 658 13.6 658 0 658 C0 664.6 0 671.2 0 678 C-6.6 678 -13.2 678 -20 678 C-20 684.6 -20 691.2 -20 698 C-33.2 698 -46.4 698 -60 698 C-60 704.6 -60 711.2 -60 718 C-73.2 718 -86.4 718 -100 718 C-100 724.6 -100 731.2 -100 738 C-106.6 738 -113.2 738 -120 738 C-120 744.6 -120 751.2 -120 758 C-133.2 758 -146.4 758 -160 758 C-160 764.6 -160 771.2 -160 778 C-173.2 778 -186.4 778 -200 778 C-200 784.6 -200 791.2 -200 798 C-206.6 798 -213.2 798 -220 798 C-220 804.6 -220 811.2 -220 818 C-233.2 818 -246.4 818 -260 818 C-260 824.6 -260 831.2 -260 838 C-273.2 838 -286.4 838 -300 838 C-300 844.6 -300 851.2 -300 858 C-313.2 858 -326.4 858 -340 858 C-340 864.6 -340 871.2 -340 878 C-366.4 878 -392.8 878 -420 878 C-420 871.4 -420 864.8 -420 858 C-433.2 858 -446.4 858 -460 858 C-460 851.4 -460 844.8 -460 838 C-473.2 838 -486.4 838 -500 838 C-500 831.4 -500 824.8 -500 818 C-513.2 818 -526.4 818 -540 818 C-540 811.4 -540 804.8 -540 798 C-546.6 798 -553.2 798 -560 798 C-560 791.4 -560 784.8 -560 778 C-546.8 778 -533.6 778 -520 778 C-520 784.6 -520 791.2 -520 798 C-506.8 798 -493.6 798 -480 798 C-480 804.6 -480 811.2 -480 818 C-466.8 818 -453.6 818 -440 818 C-440 824.6 -440 831.2 -440 838 C-426.8 838 -413.6 838 -400 838 C-400 844.6 -400 851.2 -400 858 C-386.8 858 -373.6 858 -360 858 C-360 851.4 -360 844.8 -360 838 C-366.6 838 -373.2 838 -380 838 C-380 831.4 -380 824.8 -380 818 C-386.6 818 -393.2 818 -400 818 C-400 666.53 -400 515.06 -400 359 C-393.4 359 -386.8 359 -380 359 C-380 352.4 -380 345.8 -380 339 C-373.4 339 -366.8 339 -360 339 C-360 332.4 -360 325.8 -360 319 C-353.4 319 -346.8 319 -340 319 C-340 312.4 -340 305.8 -340 299 C-333.4 299 -326.8 299 -320 299 C-320 292.4 -320 285.8 -320 279 C-306.8 279 -293.6 279 -280 279 C-280 272.4 -280 265.8 -280 259 C-273.4 259 -266.8 259 -260 259 C-260 252.4 -260 245.8 -260 239 C-246.8 239 -233.6 239 -220 239 C-220 232.4 -220 225.8 -220 219 C-206.8 219 -193.6 219 -180 219 C-180 212.4 -180 205.8 -180 199 C-173.4 199 -166.8 199 -160 199 C-160 192.4 -160 185.8 -160 179 C-146.8 179 -133.6 179 -120 179 C-120 172.4 -120 165.8 -120 159 C-106.8 159 -93.6 159 -80 159 C-80 152.4 -80 145.8 -80 139 C-73.4 139 -66.8 139 -60 139 C-60 132.4 -60 125.8 -60 119 C-46.8 119 -33.6 119 -20 119 C-20 112.4 -20 105.8 -20 99 C-13.4 99 -6.8 99 0 99 C0 92.4 0 85.8 0 79 C19.8 79 39.6 79 60 79 C60 72.4 60 65.8 60 59 C53.4 59 46.8 59 40 59 C40 52.73 40 46.46 40 40 C33.4 40 26.8 40 20 40 C20 33.4 20 26.8 20 20 C13.4 20 6.8 20 0 20 C0 13.4 0 6.8 0 0 Z M-260 399 C-260 412.2 -260 425.4 -260 439 C-266.6 439 -273.2 439 -280 439 C-280 445.6 -280 452.2 -280 459 C-286.6 459 -293.2 459 -300 459 C-300 492 -300 525 -300 559 C-273.6 559 -247.2 559 -220 559 C-220 572.2 -220 585.4 -220 599 C-226.6 599 -233.2 599 -240 599 C-240 605.27 -240 611.54 -240 618 C-259.8 618 -279.6 618 -300 618 C-300 631.2 -300 644.4 -300 658 C-286.8 658 -273.6 658 -260 658 C-260 671.2 -260 684.4 -260 698 C-253.4 698 -246.8 698 -240 698 C-240 678.2 -240 658.4 -240 638 C-233.4 638 -226.8 638 -220 638 C-220 631.4 -220 624.8 -220 618 C-213.4 618 -206.8 618 -200 618 C-200 585.33 -200 552.66 -200 519 C-219.8 519 -239.6 519 -260 519 C-260 512.4 -260 505.8 -260 499 C-266.6 499 -273.2 499 -280 499 C-280 492.4 -280 485.8 -280 479 C-273.4 479 -266.8 479 -260 479 C-260 472.4 -260 465.8 -260 459 C-240.2 459 -220.4 459 -200 459 C-200 445.8 -200 432.6 -200 419 C-213.2 419 -226.4 419 -240 419 C-240 412.4 -240 405.8 -240 399 C-246.6 399 -253.2 399 -260 399 Z M-80 579 C-80 585.6 -80 592.2 -80 599 C-93.2 599 -106.4 599 -120 599 C-120 605.27 -120 611.54 -120 618 C-126.6 618 -133.2 618 -140 618 C-140 624.6 -140 631.2 -140 638 C-126.8 638 -113.6 638 -100 638 C-100 631.4 -100 624.8 -100 618 C-86.8 618 -73.6 618 -60 618 C-60 605.13 -60 592.26 -60 579 C-66.6 579 -73.2 579 -80 579 Z " fill="currentColor" transform="translate(860,220)"/>
<path d="M0 0 C13.2 0 26.4 0 40 0 C40 6.6 40 13.2 40 20 C33.4 20 26.8 20 20 20 C20 26.6 20 33.2 20 40 C13.4 40 6.8 40 0 40 C0 46.27 0 52.54 0 59 C-6.6 59 -13.2 59 -20 59 C-20 65.6 -20 72.2 -20 79 C-26.6 79 -33.2 79 -40 79 C-40 244 -40 409 -40 579 C-33.4 579 -26.8 579 -20 579 C-20 585.6 -20 592.2 -20 599 C-13.4 599 -6.8 599 0 599 C0 605.27 0 611.54 0 618 C6.6 618 13.2 618 20 618 C20 624.6 20 631.2 20 638 C26.6 638 33.2 638 40 638 C40 644.6 40 651.2 40 658 C26.8 658 13.6 658 0 658 C0 651.4 0 644.8 0 638 C-6.6 638 -13.2 638 -20 638 C-20 631.4 -20 624.8 -20 618 C-26.6 618 -33.2 618 -40 618 C-40 611.73 -40 605.46 -40 599 C-46.6 599 -53.2 599 -60 599 C-60 420.8 -60 242.6 -60 59 C-53.4 59 -46.8 59 -40 59 C-40 52.73 -40 46.46 -40 40 C-33.4 40 -26.8 40 -20 40 C-20 33.4 -20 26.8 -20 20 C-13.4 20 -6.8 20 0 20 C0 13.4 0 6.8 0 0 Z " fill="currentColor" transform="translate(60,220)"/>
<path d="M0 0 C33 0 66 0 100 0 C100 6.6 100 13.2 100 20 C113.2 20 126.4 20 140 20 C140 26.6 140 33.2 140 40 C120.2 40 100.4 40 80 40 C80 33.4 80 26.8 80 20 C60.2 20 40.4 20 20 20 C20 26.6 20 33.2 20 40 C6.8 40 -6.4 40 -20 40 C-20 33.4 -20 26.8 -20 20 C-13.4 20 -6.8 20 0 20 C0 13.4 0 6.8 0 0 Z " fill="currentColor" transform="translate(420,0)"/>
<path d="M0 0 C13.2 0 26.4 0 40 0 C40 6.6 40 13.2 40 20 C53.2 20 66.4 20 80 20 C80 26.6 80 33.2 80 40 C86.6 40 93.2 40 100 40 C100 46.6 100 53.2 100 60 C86.8 60 73.6 60 60 60 C60 53.4 60 46.8 60 40 C46.8 40 33.6 40 20 40 C20 33.4 20 26.8 20 20 C13.4 20 6.8 20 0 20 C0 13.4 0 6.8 0 0 Z " fill="currentColor" transform="translate(200,938)"/>
<path d="M0 0 C13.2 0 26.4 0 40 0 C40 6.6 40 13.2 40 20 C53.2 20 66.4 20 80 20 C80 26.6 80 33.2 80 40 C86.6 40 93.2 40 100 40 C100 46.6 100 53.2 100 60 C86.8 60 73.6 60 60 60 C60 53.4 60 46.8 60 40 C46.8 40 33.6 40 20 40 C20 33.4 20 26.8 20 20 C13.4 20 6.8 20 0 20 C0 13.4 0 6.8 0 0 Z " fill="currentColor" transform="translate(100,878)"/>
<path d="M0 0 C13.2 0 26.4 0 40 0 C40 6.6 40 13.2 40 20 C53.2 20 66.4 20 80 20 C80 26.6 80 33.2 80 40 C86.6 40 93.2 40 100 40 C100 46.6 100 53.2 100 60 C86.8 60 73.6 60 60 60 C60 53.4 60 46.8 60 40 C46.8 40 33.6 40 20 40 C20 33.4 20 26.8 20 20 C13.4 20 6.8 20 0 20 C0 13.4 0 6.8 0 0 Z " fill="currentColor" transform="translate(760,160)"/>
<path d="M0 0 C13.2 0 26.4 0 40 0 C40 6.6 40 13.2 40 20 C33.4 20 26.8 20 20 20 C20 26.6 20 33.2 20 40 C6.8 40 -6.4 40 -20 40 C-20 46.6 -20 53.2 -20 60 C-33.2 60 -46.4 60 -60 60 C-60 53.4 -60 46.8 -60 40 C-53.4 40 -46.8 40 -40 40 C-40 33.4 -40 26.8 -40 20 C-26.8 20 -13.6 20 0 20 C0 13.4 0 6.8 0 0 Z " fill="currentColor" transform="translate(160,160)"/>
<path d="M0 0 C13.2 0 26.4 0 40 0 C40 6.6 40 13.2 40 20 C53.2 20 66.4 20 80 20 C80 26.6 80 33.2 80 40 C86.6 40 93.2 40 100 40 C100 46.6 100 53.2 100 60 C86.8 60 73.6 60 60 60 C60 53.4 60 46.8 60 40 C46.8 40 33.6 40 20 40 C20 33.4 20 26.8 20 20 C13.4 20 6.8 20 0 20 C0 13.4 0 6.8 0 0 Z " fill="currentColor" transform="translate(660,100)"/>
<path d="M0 0 C13.2 0 26.4 0 40 0 C40 6.6 40 13.2 40 20 C33.4 20 26.8 20 20 20 C20 26.6 20 33.2 20 40 C6.8 40 -6.4 40 -20 40 C-20 46.6 -20 53.2 -20 60 C-33.2 60 -46.4 60 -60 60 C-60 53.4 -60 46.8 -60 40 C-53.4 40 -46.8 40 -40 40 C-40 33.4 -40 26.8 -40 20 C-26.8 20 -13.6 20 0 20 C0 13.4 0 6.8 0 0 Z " fill="currentColor" transform="translate(260,100)"/>
<path d="M0 0 C13.2 0 26.4 0 40 0 C40 6.6 40 13.2 40 20 C53.2 20 66.4 20 80 20 C80 26.6 80 33.2 80 40 C86.6 40 93.2 40 100 40 C100 46.6 100 53.2 100 60 C86.8 60 73.6 60 60 60 C60 53.4 60 46.8 60 40 C46.8 40 33.6 40 20 40 C20 33.4 20 26.8 20 20 C13.4 20 6.8 20 0 20 C0 13.4 0 6.8 0 0 Z " fill="currentColor" transform="translate(560,40)"/>
<path d="M0 0 C13.2 0 26.4 0 40 0 C40 6.6 40 13.2 40 20 C33.4 20 26.8 20 20 20 C20 26.6 20 33.2 20 40 C6.8 40 -6.4 40 -20 40 C-20 46.6 -20 53.2 -20 60 C-33.2 60 -46.4 60 -60 60 C-60 53.4 -60 46.8 -60 40 C-53.4 40 -46.8 40 -40 40 C-40 33.4 -40 26.8 -40 20 C-26.8 20 -13.6 20 0 20 C0 13.4 0 6.8 0 0 Z " fill="currentColor" transform="translate(360,40)"/>
<path d="M0 0 C6.6 0 13.2 0 20 0 C20 6.6 20 13.2 20 20 C13.4 20 6.8 20 0 20 C0 13.4 0 6.8 0 0 Z " fill="currentColor" transform="translate(460,579)"/>
<path d="M0 0 C6.6 0 13.2 0 20 0 C20 6.6 20 13.2 20 20 C13.4 20 6.8 20 0 20 C0 13.4 0 6.8 0 0 Z " fill="currentColor" transform="translate(420,0)"/>
</svg>
