<?xml version="1.0" encoding="UTF-8"?>
<svg version="1.1" viewBox="0 0 750 1000" xmlns="http://www.w3.org/2000/svg">
<path d="M0 0 C25.74 0 51.48 0 78 0 C78 8.58 78 17.16 78 26 C95.16 26 112.32 26 130 26 C130 34.58 130 43.16 130 52 C146.83 52 163.66 52 181 52 C181.83378093 55.33512374 182.11814364 57.62444232 182.09765625 60.984375 C182.09515869 61.82709961 182.09266113 62.66982422 182.09008789 63.53808594 C182.07643188 65.1279834 182.07643188 65.1279834 182.0625 66.75 C182.041875 70.1325 182.02125 73.515 182 77 C190.25 77 198.5 77 207 77 C207.33 85.58 207.66 94.16 208 103 C224.83 103.33 241.66 103.66 259 104 C259 123 259 123 258 129 C275.16 129 292.32 129 310 129 C310 137.58 310 146.16 310 155 C318.58 155 327.16 155 336 155 C336 163.58 336 172.16 336 181 C353.16 181 370.32 181 388 181 C388 189.58 388 198.16 388 207 C396.58 207 405.16 207 414 207 C414 351.87 414 496.74 414 646 C410.66487626 646.83378093 408.37555768 647.11814364 405.015625 647.09765625 C404.08105469 647.09443359 403.14648438 647.09121094 402.18359375 647.08789062 C401.21550781 647.07951172 400.24742187 647.07113281 399.25 647.0625 C398.26644531 647.05798828 397.28289063 647.05347656 396.26953125 647.04882812 C393.84629209 647.03706483 391.42317727 647.02062684 389 647 C389.00523682 647.61520508 389.01047363 648.23041016 389.01586914 648.86425781 C389.03669371 651.65949476 389.04967759 654.45471536 389.0625 657.25 C389.07087891 658.21808594 389.07925781 659.18617188 389.08789062 660.18359375 C389.09111328 661.11816406 389.09433594 662.05273438 389.09765625 663.015625 C389.10289307 663.87446289 389.10812988 664.73330078 389.11352539 665.61816406 C389 668 389 668 388 672 C371.17 672 354.34 672 337 672 C337 680.58 337 689.16 337 698 C328.09 698 319.18 698 310 698 C310 706.58 310 715.16 310 724 C293.5 724.33 277 724.66 260 725 C259.67 732.59 259.34 740.18 259 748 C258.67 748.66 258.34 749.32 258 750 C241.17 750 224.34 750 207 750 C207 758.58 207 767.16 207 776 C198.42 776 189.84 776 181 776 C181 784.25 181 792.5 181 801 C164.17 801 147.34 801 130 801 C130 809.58 130 818.16 130 827 C112.84 827 95.68 827 78 827 C78 835.58 78 844.16 78 853 C52.26 853 26.52 853 0 853 C0 844.42 0 835.84 0 827 C-17.16 827 -34.32 827 -52 827 C-52 818.42 -52 809.84 -52 801 C-68.83 801 -85.66 801 -103 801 C-103 792.75 -103 784.5 -103 776 C-111.58 776 -120.16 776 -129 776 C-131.10352956 767.58588177 -130 758.67307455 -130 750 C-146.83 750 -163.66 750 -181 750 C-181.33 741.75 -181.66 733.5 -182 725 C-198.5 724.67 -215 724.34 -232 724 C-232 715.42 -232 706.84 -232 698 C-240.91 698 -249.82 698 -259 698 C-259 689.42 -259 680.84 -259 672 C-275.83 672 -292.66 672 -310 672 C-310.33 663.42 -310.66 654.84 -311 646 C-319.25 646.33 -327.5 646.66 -336 647 C-336 501.8 -336 356.6 -336 207 C-327.42 207 -318.84 207 -310 207 C-310 198.42 -310 189.84 -310 181 C-306.0836857 180.34728095 -303.02866003 179.87562525 -299.18798828 179.88647461 C-298.28750763 179.88655014 -297.38702698 179.88662567 -296.45925903 179.88670349 C-295.0292305 179.89444542 -295.0292305 179.89444542 -293.5703125 179.90234375 C-292.084814 179.90446617 -292.084814 179.90446617 -290.56930542 179.90663147 C-287.42117227 179.91220748 -284.27311148 179.92475558 -281.125 179.9375 C-278.98437603 179.9425181 -276.84375094 179.94708046 -274.703125 179.95117188 C-269.46872551 179.96216906 -264.23436793 179.97888325 -259 180 C-259.00523682 179.38479492 -259.01047363 178.76958984 -259.01586914 178.13574219 C-259.03669371 175.34050524 -259.04967759 172.54528464 -259.0625 169.75 C-259.07087891 168.78191406 -259.07925781 167.81382812 -259.08789062 166.81640625 C-259.09111328 165.88183594 -259.09433594 164.94726562 -259.09765625 163.984375 C-259.10289307 163.12553711 -259.10812988 162.26669922 -259.11352539 161.38183594 C-259 159 -259 159 -258 155 C-249.42 155 -240.84 155 -232 155 C-232 146.42 -232 137.84 -232 129 C-214.84 129 -197.68 129 -180 129 C-180 120.75 -180 112.5 -180 104 C-163.5 103.67 -147 103.34 -130 103 C-129.67 94.42 -129.34 85.84 -129 77 C-120.75 77 -112.5 77 -104 77 C-104.03945382 70.26900192 -104.03945382 70.26900192 -104.09008789 63.53808594 C-104.09383423 62.27399902 -104.09383423 62.27399902 -104.09765625 60.984375 C-104.10289307 60.12553711 -104.10812988 59.26669922 -104.11352539 58.38183594 C-104.00539986 56.11329256 -103.63582423 54.17368285 -103 52 C-97.5000424 50.84316758 -92.16023272 50.87208089 -86.5703125 50.90234375 C-85.084814 50.90446617 -85.084814 50.90446617 -83.56930542 50.90663147 C-80.42117227 50.91220748 -77.27311148 50.92475558 -74.125 50.9375 C-71.98437603 50.9425181 -69.84375094 50.94708046 -67.703125 50.95117188 C-62.46870001 50.96131611 -57.23443056 50.98089624 -52 51 C-52 42.75 -52 34.5 -52 26 C-34.84 26 -17.68 26 0 26 C0 17.42 0 8.84 0 0 Z " fill="#5B9ADD" transform="translate(336,73)"/>
<path d="M0 0 C8.25 0 16.5 0 25 0 C25 144.87 25 289.74 25 439 C21.66487626 439.83378093 19.37555768 440.11814364 16.015625 440.09765625 C15.08105469 440.09443359 14.14648438 440.09121094 13.18359375 440.08789062 C12.21550781 440.07951172 11.24742187 440.07113281 10.25 440.0625 C9.26644531 440.05798828 8.28289063 440.05347656 7.26953125 440.04882812 C4.84629209 440.03706483 2.42317727 440.02062684 0 440 C0.00523682 440.61520508 0.01047363 441.23041016 0.01586914 441.86425781 C0.03669371 444.65949476 0.04967759 447.45471536 0.0625 450.25 C0.07087891 451.21808594 0.07925781 452.18617188 0.08789062 453.18359375 C0.09111328 454.11816406 0.09433594 455.05273438 0.09765625 456.015625 C0.10289307 456.87446289 0.10812988 457.73330078 0.11352539 458.61816406 C0 461 0 461 -1 465 C-17.83 465 -34.66 465 -52 465 C-52 473.58 -52 482.16 -52 491 C-60.91 491 -69.82 491 -79 491 C-79 499.58 -79 508.16 -79 517 C-95.5 517.33 -112 517.66 -129 518 C-129.33 525.59 -129.66 533.18 -130 541 C-130.33 541.66 -130.66 542.32 -131 543 C-147.83 543 -164.66 543 -182 543 C-182 551.58 -182 560.16 -182 569 C-190.58 569 -199.16 569 -208 569 C-208 577.25 -208 585.5 -208 594 C-224.83 594 -241.66 594 -259 594 C-259 602.58 -259 611.16 -259 620 C-276.16 620 -293.32 620 -311 620 C-311 628.58 -311 637.16 -311 646 C-336.74 646 -362.48 646 -389 646 C-389 637.42 -389 628.84 -389 620 C-406.16 620 -423.32 620 -441 620 C-441 611.42 -441 602.84 -441 594 C-457.83 594 -474.66 594 -492 594 C-492 585.75 -492 577.5 -492 569 C-500.58 569 -509.16 569 -518 569 C-520.10352956 560.58588177 -519 551.67307455 -519 543 C-535.83 543 -552.66 543 -570 543 C-570.33 534.75 -570.66 526.5 -571 518 C-587.5 517.67 -604 517.34 -621 517 C-621 508.42 -621 499.84 -621 491 C-629.91 491 -638.82 491 -648 491 C-648 482.42 -648 473.84 -648 465 C-664.83 465 -681.66 465 -699 465 C-700.14948694 445.45872201 -700.14948694 445.45872201 -699.87890625 438.90234375 C-699.85824097 438.25108521 -699.83757568 437.59982666 -699.81628418 436.92883301 C-699.74014671 434.59809704 -699.65067896 432.26781147 -699.5625 429.9375 C-699.376875 424.678125 -699.19125 419.41875 -699 414 C-682.17 414 -665.34 414 -648 414 C-648 405.09 -648 396.18 -648 387 C-639.42 387 -630.84 387 -622 387 C-622 378.75 -622 370.5 -622 362 C-596.26 362 -570.52 362 -544 362 C-544 370.25 -544 378.5 -544 387 C-535.42 387 -526.84 387 -518 387 C-518 395.91 -518 404.82 -518 414 C-509.75 414 -501.5 414 -493 414 C-493 422.25 -493 430.5 -493 439 C-475.84 439 -458.68 439 -441 439 C-441 447.58 -441 456.16 -441 465 C-380.94 465 -320.88 465 -259 465 C-259 456.42 -259 447.84 -259 439 C-242.17 439 -225.34 439 -208 439 C-208 430.75 -208 422.5 -208 414 C-199.42 414 -190.84 414 -182 414 C-182 405.09 -182 396.18 -182 387 C-173.42 387 -164.84 387 -156 387 C-156 378.75 -156 370.5 -156 362 C-147.42 362 -138.84 362 -130 362 C-130 353.42 -130 344.84 -130 336 C-147.16 336 -164.32 336 -182 336 C-182 327.42 -182 318.84 -182 310 C-190.25 310 -198.5 310 -207 310 C-207 301.42 -207 292.84 -207 284 C-224.16 284 -241.32 284 -259 284 C-259 292.58 -259 301.16 -259 310 C-267.58 310 -276.16 310 -285 310 C-285 318.58 -285 327.16 -285 336 C-327.9 336 -370.8 336 -415 336 C-415 327.42 -415 318.84 -415 310 C-423.58 310 -432.16 310 -441 310 C-441 301.42 -441 292.84 -441 284 C-449.25 284 -457.5 284 -466 284 C-466 241.43 -466 198.86 -466 155 C-457.75 155 -449.5 155 -441 155 C-441 146.42 -441 137.84 -441 129 C-432.42 129 -423.84 129 -415 129 C-415 120.42 -415 111.84 -415 103 C-372.1 103 -329.2 103 -285 103 C-285 111.58 -285 120.16 -285 129 C-276.42 129 -267.84 129 -259 129 C-259 137.58 -259 146.16 -259 155 C-241.84 155 -224.68 155 -207 155 C-207 146.42 -207 137.84 -207 129 C-198.75 129 -190.5 129 -182 129 C-182 120.42 -182 111.84 -182 103 C-164.84 103 -147.68 103 -130 103 C-130 94.42 -130 85.84 -130 77 C-112.84 77 -95.68 77 -78 77 C-78 68.75 -78 60.5 -78 52 C-69.42 52 -60.84 52 -52 52 C-52 43.42 -52 34.84 -52 26 C-34.84 26 -17.68 26 0 26 C0 17.42 0 8.84 0 0 Z " fill="#005AAA" transform="translate(725,280)"/>
<path d="M0 0 C60.06 0 120.12 0 182 0 C182 8.58 182 17.16 182 26 C198.83 26 215.66 26 233 26 C233 34.25 233 42.5 233 51 C241.58 51 250.16 51 259 51 C259 59.58 259 68.16 259 77 C267.58 77 276.16 77 285 77 C285 85.58 285 94.16 285 103 C293.58 103 302.16 103 311 103 C311 111.58 311 120.16 311 129 C293.84 129 276.68 129 259 129 C259 137.58 259 146.16 259 155 C250.75 155 242.5 155 234 155 C234 163.58 234 172.16 234 181 C216.84 181 199.68 181 182 181 C182 172.42 182 163.84 182 155 C173.42 155 164.84 155 156 155 C156 146.42 156 137.84 156 129 C113.1 129 70.2 129 26 129 C26 137.58 26 146.16 26 155 C17.42 155 8.84 155 0 155 C0 163.58 0 172.16 0 181 C-8.25 181 -16.5 181 -25 181 C-25 223.57 -25 266.14 -25 310 C-16.75 310 -8.5 310 0 310 C0 318.58 0 327.16 0 336 C8.58 336 17.16 336 26 336 C26 344.58 26 353.16 26 362 C68.9 362 111.8 362 156 362 C156 353.42 156 344.84 156 336 C164.58 336 173.16 336 182 336 C182 327.42 182 318.84 182 310 C199.16 310 216.32 310 234 310 C234 318.58 234 327.16 234 336 C242.25 336 250.5 336 259 336 C259 344.58 259 353.16 259 362 C276.16 362 293.32 362 311 362 C311 370.58 311 379.16 311 388 C302.42 388 293.84 388 285 388 C285 396.25 285 404.5 285 413 C276.42 413 267.84 413 259 413 C259 421.91 259 430.82 259 440 C250.42 440 241.84 440 233 440 C233 448.25 233 456.5 233 465 C216.17 465 199.34 465 182 465 C182 473.58 182 482.16 182 491 C121.94 491 61.88 491 0 491 C0 482.42 0 473.84 0 465 C-17.16 465 -34.32 465 -52 465 C-52 456.75 -52 448.5 -52 440 C-60.25 440 -68.5 440 -77 440 C-77 431.09 -77 422.18 -77 413 C-85.58 413 -94.16 413 -103 413 C-103 404.75 -103 396.5 -103 388 C-111.58 388 -120.16 388 -129 388 C-129 370.84 -129 353.68 -129 336 C-137.58 336 -146.16 336 -155 336 C-155 276.27 -155 216.54 -155 155 C-146.42 155 -137.84 155 -129 155 C-129 137.84 -129 120.68 -129 103 C-120.42 103 -111.84 103 -103 103 C-103 94.42 -103 85.84 -103 77 C-94.42 77 -85.84 77 -77 77 C-77 68.42 -77 59.84 -77 51 C-68.42 51 -59.84 51 -51 51 C-51 42.75 -51 34.5 -51 26 C-34.17 26 -17.34 26 0 26 C0 17.42 0 8.84 0 0 Z " fill="#FEFEFE" transform="translate(284,254)"/>
<path d="M0 0 C0.33 0 0.66 0 1 0 C1 8.58 1 17.16 1 26 C17.5 26 34 26 51 26 C51.33 34.58 51.66 43.16 52 52 C60.58 52 69.16 52 78 52 C78.33 60.25 78.66 68.5 79 77 C103.75 77.495 103.75 77.495 129 78 C129.33 85.59 129.66 93.18 130 101 C138.25 101.33 146.5 101.66 155 102 C151.19840121 103.90079939 150.01795859 104.24412145 146.015625 104.1953125 C145.08105469 104.18886719 144.14648438 104.18242188 143.18359375 104.17578125 C142.21550781 104.15902344 141.24742187 104.14226562 140.25 104.125 C138.77466797 104.11146484 138.77466797 104.11146484 137.26953125 104.09765625 C134.84610593 104.07412785 132.42317778 104.04125368 130 104 C130.00523682 104.61520508 130.01047363 105.23041016 130.01586914 105.86425781 C130.03669371 108.65949476 130.04967759 111.45471536 130.0625 114.25 C130.07087891 115.21808594 130.07925781 116.18617188 130.08789062 117.18359375 C130.09111328 118.11816406 130.09433594 119.05273438 130.09765625 120.015625 C130.10289307 120.87446289 130.10812988 121.73330078 130.11352539 122.61816406 C130 125 130 125 129 129 C112.17 129 95.34 129 78 129 C78 137.58 78 146.16 78 155 C69.09 155 60.18 155 51 155 C51 163.58 51 172.16 51 181 C34.5 181.33 18 181.66 1 182 C0.67 189.59 0.34 197.18 0 205 C-0.33 205.66 -0.66 206.32 -1 207 C-17.83 207 -34.66 207 -52 207 C-52 215.58 -52 224.16 -52 233 C-60.58 233 -69.16 233 -78 233 C-78 241.25 -78 249.5 -78 258 C-94.83 258 -111.66 258 -129 258 C-129 266.58 -129 275.16 -129 284 C-146.16 284 -163.32 284 -181 284 C-181 292.58 -181 301.16 -181 310 C-206.74 310 -232.48 310 -259 310 C-259 301.42 -259 292.84 -259 284 C-276.16 284 -293.32 284 -311 284 C-311 275.42 -311 266.84 -311 258 C-327.83 258 -344.66 258 -362 258 C-362 249.75 -362 241.5 -362 233 C-370.58 233 -379.16 233 -388 233 C-390.10352956 224.58588177 -389 215.67307455 -389 207 C-405.83 207 -422.66 207 -440 207 C-440.33 198.75 -440.66 190.5 -441 182 C-465.75 181.505 -465.75 181.505 -491 181 C-491 172.42 -491 163.84 -491 155 C-499.91 155 -508.82 155 -518 155 C-518 146.42 -518 137.84 -518 129 C-534.83 129 -551.66 129 -569 129 C-570.14948694 109.45872201 -570.14948694 109.45872201 -569.87890625 102.90234375 C-569.84790833 101.92545593 -569.84790833 101.92545593 -569.81628418 100.92883301 C-569.74014671 98.59809704 -569.65067896 96.26781147 -569.5625 93.9375 C-569.376875 88.678125 -569.19125 83.41875 -569 78 C-552.17 78 -535.34 78 -518 78 C-518 69.09 -518 60.18 -518 51 C-509.42 51 -500.84 51 -492 51 C-492 42.75 -492 34.5 -492 26 C-466.26 26 -440.52 26 -414 26 C-414 34.25 -414 42.5 -414 51 C-405.42 51 -396.84 51 -388 51 C-388 59.91 -388 68.82 -388 78 C-379.75 78 -371.5 78 -363 78 C-363 86.25 -363 94.5 -363 103 C-345.84 103 -328.68 103 -311 103 C-311 111.58 -311 120.16 -311 129 C-250.94 129 -190.88 129 -129 129 C-129 120.42 -129 111.84 -129 103 C-112.17 103 -95.34 103 -78 103 C-78 94.75 -78 86.5 -78 78 C-69.42 78 -60.84 78 -52 78 C-52 69.09 -52 60.18 -52 51 C-43.42 51 -34.84 51 -26 51 C-26 42.75 -26 34.5 -26 26 C-17.42 26 -8.84 26 0 26 C0 17.42 0 8.84 0 0 Z " fill="#00458F" transform="translate(595,616)"/>
<path d="M0 0 C42.9 0 85.8 0 130 0 C130 8.58 130 17.16 130 26 C138.58 26 147.16 26 156 26 C156 42.83 156 59.66 156 77 C138.84 77 121.68 77 104 77 C104 85.91 104 94.82 104 104 C95.42 104 86.84 104 78 104 C78 112.25 78 120.5 78 129 C60.84 129 43.68 129 26 129 C26 137.91 26 146.82 26 156 C8.84 156 -8.32 156 -26 156 C-26 164.25 -26 172.5 -26 181 C-34.25 181 -42.5 181 -51 181 C-51 138.43 -51 95.86 -51 52 C-42.75 52 -34.5 52 -26 52 C-26 43.42 -26 34.84 -26 26 C-17.42 26 -8.84 26 0 26 C0 17.42 0 8.84 0 0 Z " fill="#5B9ADD" transform="translate(310,383)"/>
<path d="M0 0 C25.74 0 51.48 0 78 0 C78 8.91 78 17.82 78 27 C94.83 27 111.66 27 129 27 C130.14969136 54.59259259 130.14969136 54.59259259 130.0625 66 C130.041875 69.96 130.02125 73.92 130 78 C121.42 78 112.84 78 104 78 C104 86.58 104 95.16 104 104 C61.1 104 18.2 104 -26 104 C-26 95.42 -26 86.84 -26 78 C-34.58 78 -43.16 78 -52 78 C-52 61.17 -52 44.34 -52 27 C-34.84 27 -17.68 27 0 27 C0 18.09 0 9.18 0 0 Z " fill="#014590" transform="translate(336,512)"/>
<path d="M0 0 C8.58 0 17.16 0 26 0 C26 8.91 26 17.82 26 27 C34.58 27 43.16 27 52 27 C52 35.25 52 43.5 52 52 C43.42 52 34.84 52 26 52 C26 60.91 26 69.82 26 79 C17.42 79 8.84 79 0 79 C0 70.09 0 61.18 0 52 C-8.58 52 -17.16 52 -26 52 C-26 43.75 -26 35.5 -26 27 C-17.42 27 -8.84 27 0 27 C0 18.09 0 9.18 0 0 Z " fill="#FEFEFE" transform="translate(569,460)"/>
<path d="M0 0 C8.25 0 16.5 0 25 0 C25 8.91 25 17.82 25 27 C33.58 27 42.16 27 51 27 C51 35.25 51 43.5 51 52 C42.42 52 33.84 52 25 52 C25 60.58 25 69.16 25 78 C16.75 78 8.5 78 0 78 C0 69.42 0 60.84 0 52 C-8.58 52 -17.16 52 -26 52 C-26 43.75 -26 35.5 -26 27 C-17.42 27 -8.84 27 0 27 C0 18.09 0 9.18 0 0 Z " fill="#FEFEFE" transform="translate(673,460)"/>
<path d="M0 0 C8.58 0 17.16 0 26 0 C26 8.91 26 17.82 26 27 C34.58 27 43.16 27 52 27 C52 35.25 52 43.5 52 52 C43.42 52 34.84 52 26 52 C26 60.91 26 69.82 26 79 C17.42 79 8.84 79 0 79 C0 70.09 0 61.18 0 52 C2 54 2 54 2.22705078 56.33837891 C2.21657715 57.29147949 2.20610352 58.24458008 2.1953125 59.2265625 C2.19031738 60.15549316 2.18532227 61.08442383 2.18017578 62.04150391 C2.16196777 63.22405762 2.14375977 64.40661133 2.125 65.625 C2.08375 69.37875 2.0425 73.1325 2 77 C9.59 77.33 17.18 77.66 25 78 C25 69.09 25 60.18 25 51 C33.25 51 41.5 51 50 51 C50 43.74 50 36.48 50 29 C48.36289062 29.01160156 46.72578125 29.02320313 45.0390625 29.03515625 C42.9010428 29.04453353 40.76302188 29.0536338 38.625 29.0625 C37.54476562 29.07087891 36.46453125 29.07925781 35.3515625 29.08789062 C33.8046875 29.09272461 33.8046875 29.09272461 32.2265625 29.09765625 C31.27346191 29.10289307 30.32036133 29.10812988 29.33837891 29.11352539 C27 29 27 29 25 28 C25 19.09 25 10.18 25 1 C16.75 1 8.5 1 0 1 C0 0.67 0 0.34 0 0 Z " fill="#D3EDF9" transform="translate(569,460)"/>
<path d="M0 0 C8.25 0 16.5 0 25 0 C25 0.33 25 0.66 25 1 C17.08 1 9.16 1 1 1 C1 9.58 1 18.16 1 27 C-1.60951236 28.30475618 -3.52701285 28.11301572 -6.4453125 28.09765625 C-7.52167969 28.09443359 -8.59804687 28.09121094 -9.70703125 28.08789062 C-10.83496094 28.07951172 -11.96289062 28.07113281 -13.125 28.0625 C-14.82849609 28.05573242 -14.82849609 28.05573242 -16.56640625 28.04882812 C-19.37765638 28.03701615 -22.1888023 28.02054507 -25 28 C-24.67 28.99 -24.34 29.98 -24 31 C-23.77572157 33.95444427 -23.81485462 36.91288872 -23.8125 39.875 C-23.80025391 40.67808594 -23.78800781 41.48117187 -23.77539062 42.30859375 C-23.77249023 43.48228516 -23.77249023 43.48228516 -23.76953125 44.6796875 C-23.76542236 45.38851074 -23.76131348 46.09733398 -23.75708008 46.82763672 C-24 49 -24 49 -26 54 C-33.92 54 -41.84 54 -50 54 C-49.979375 57.0525 -49.95875 60.105 -49.9375 63.25 C-49.89432322 76.8454209 -50.43869995 90.41833023 -51 104 C-51.33 104 -51.66 104 -52 104 C-52 86.84 -52 69.68 -52 52 C-43.42 52 -34.84 52 -26 52 C-26 43.42 -26 34.84 -26 26 C-17.42 26 -8.84 26 0 26 C0 17.42 0 8.84 0 0 Z " fill="#DAF1FE" transform="translate(207,305)"/>
<path d="M0 0 C8.25 0 16.5 0 25 0 C25 7.26 25 14.52 25 22 C24.67 22 24.34 22 24 22 C24 15.07 24 8.14 24 1 C13.605 1.495 13.605 1.495 3 2 C2.75106857 8.68557011 2.75106857 8.68557011 2.52197266 15.37182617 C2.4863623 16.21205322 2.45075195 17.05228027 2.4140625 17.91796875 C2.3826416 18.77156982 2.3512207 19.6251709 2.31884766 20.50463867 C2 23 2 23 0 28 C-7.92 28 -15.84 28 -24 28 C-24 35.26 -24 42.52 -24 50 C-16.08 50 -8.16 50 0 50 C0 50.33 0 50.66 0 51 C-8.58 51 -17.16 51 -26 51 C-26 42.75 -26 34.5 -26 26 C-17.42 26 -8.84 26 0 26 C0 17.42 0 8.84 0 0 Z " fill="#E9FCFF" transform="translate(569,461)"/>
<path d="M0 0 C8.25 0 16.5 0 25 0 C25 8.91 25 17.82 25 27 C33.58 27 42.16 27 51 27 C51 35.25 51 43.5 51 52 C42.42 52 33.84 52 25 52 C25 51.67 25 51.34 25 51 C33.25 51 41.5 51 50 51 C50 43.41 50 35.82 50 28 C41.42 28 32.84 28 24 28 C24 19.42 24 10.84 24 2 C13.11 2.495 13.11 2.495 2 3 C1.67 10.92 1.34 18.84 1 27 C0.67 27 0.34 27 0 27 C0 18.09 0 9.18 0 0 Z " fill="#DEF3F8" transform="translate(673,460)"/>
<path d="M0 0 C0.33 0 0.66 0 1 0 C1 7.92 1 15.84 1 24 C4.66996094 23.98839844 8.33992188 23.97679687 12.12109375 23.96484375 C15.65893467 23.95705448 19.19677464 23.95097698 22.73461914 23.94506836 C25.20142033 23.94002644 27.66821852 23.93319309 30.13500977 23.92456055 C33.67204529 23.91248875 37.20904145 23.90677044 40.74609375 23.90234375 C41.85649521 23.89718246 42.96689667 23.89202118 44.11094666 23.88670349 C45.64242088 23.88659019 45.64242088 23.88659019 47.20483398 23.88647461 C48.10862289 23.884254 49.0124118 23.88203339 49.94358826 23.87974548 C52 24 52 24 53 25 C53 32.92 53 40.84 53 49 C69.17 49 85.34 49 102 49 C102 49.33 102 49.66 102 50 C85.17 50 68.34 50 51 50 C50.67 42.08 50.34 34.16 50 26 C25.25 25.505 25.25 25.505 0 25 C0 16.75 0 8.5 0 0 Z " fill="#0C3A77" transform="translate(104,772)"/>
<path d="M0 0 C0.33 0 0.66 0 1 0 C1 8.91 1 17.82 1 27 C-7.58 27 -16.16 27 -25 27 C-25 35.25 -25 43.5 -25 52 C-25.66 52 -26.32 52 -27 52 C-27 43.09 -27 34.18 -27 25 C-18.09 25 -9.18 25 0 25 C0 16.75 0 8.5 0 0 Z " fill="#125493" transform="translate(568,460)"/>
<path d="M0 0 C8.58 0 17.16 0 26 0 C26.33 7.59 26.66 15.18 27 23 C29.39645744 24.19822872 30.95662027 24.15627315 33.63330078 24.20532227 C34.59414581 24.22526749 35.55499084 24.24521271 36.54495239 24.26576233 C38.10438065 24.29083107 38.10438065 24.29083107 39.6953125 24.31640625 C40.75789276 24.33718735 41.82047302 24.35796844 42.91525269 24.37937927 C46.31843438 24.44490261 49.72169489 24.50377273 53.125 24.5625 C55.42839366 24.60568257 57.73177926 24.64929677 60.03515625 24.69335938 C65.69002021 24.80058682 71.34496303 24.90234802 77 25 C77 25.33 77 25.66 77 26 C59.84 26 42.68 26 25 26 C25 17.75 25 9.5 25 1 C16.75 1 8.5 1 0 1 C0 0.67 0 0.34 0 0 Z " fill="#C3D9E8" transform="translate(207,693)"/>
<path d="M0 0 C8.58 0 17.16 0 26 0 C25.67 0.66 25.34 1.32 25 2 C17.41 2.33 9.82 2.66 2 3 C1.67 9.93 1.34 16.86 1 24 C9.25 24 17.5 24 26 24 C26 24.33 26 24.66 26 25 C17.42 25 8.84 25 0 25 C0 16.75 0 8.5 0 0 Z " fill="#EDFEFF" transform="translate(647,487)"/>
<path d="M0 0 C1.35083427 0.00022659 1.35083427 0.00022659 2.72895813 0.00045776 C3.68747177 0.01078033 4.64598541 0.02110291 5.63354492 0.03173828 C7.12116585 0.03598312 7.12116585 0.03598312 8.63883972 0.04031372 C11.79735527 0.05148274 14.95558425 0.07658151 18.11401367 0.10205078 C20.25919186 0.11208481 22.40437451 0.12120992 24.54956055 0.12939453 C29.80030888 0.15141133 35.0508908 0.18485635 40.30151367 0.22705078 C40.30151367 0.55705078 40.30151367 0.88705078 40.30151367 1.22705078 C39.12645264 1.24687012 37.9513916 1.26668945 36.74072266 1.28710938 C32.35900335 1.36348675 27.97760226 1.45215356 23.59619141 1.54443359 C21.70400296 1.58259103 19.81174525 1.61746645 17.91943359 1.64892578 C15.19107396 1.69486501 12.46318574 1.75281043 9.73510742 1.81298828 C8.89628525 1.82453949 8.05746307 1.8360907 7.19322205 1.84799194 C-0.80796226 1.86288224 -0.80796226 1.86288224 -7.69848633 5.22705078 C-7.85469188 6.64033025 -7.94904806 8.06059668 -8.01489258 9.48095703 C-8.05678711 10.33496094 -8.09868164 11.18896484 -8.1418457 12.06884766 C-8.18116211 12.96667969 -8.22047852 13.86451172 -8.26098633 14.78955078 C-8.30416992 15.69125 -8.34735352 16.59294922 -8.3918457 17.52197266 C-8.49826775 19.75683563 -8.6002862 21.99181386 -8.69848633 24.22705078 C-9.02848633 24.22705078 -9.35848633 24.22705078 -9.69848633 24.22705078 C-9.69848633 16.96705078 -9.69848633 9.70705078 -9.69848633 2.22705078 C-4.07348633 -0.02294922 -4.07348633 -0.02294922 0 0 Z " fill="#92BDEC" transform="translate(36.698486328125,252.77294921875)"/>
<path d="M0 0 C2 2 2 2 2.22705078 4.33837891 C2.21657715 5.29147949 2.20610352 6.24458008 2.1953125 7.2265625 C2.19031738 8.15549316 2.18532227 9.08442383 2.18017578 10.04150391 C2.16196777 11.22405762 2.14375977 12.40661133 2.125 13.625 C2.08375 17.37875 2.0425 21.1325 2 25 C9.92 25.33 17.84 25.66 26 26 C26 26.33 26 26.66 26 27 C17.42 27 8.84 27 0 27 C0 18.09 0 9.18 0 0 Z " fill="#BFDBF5" transform="translate(569,512)"/>
</svg>
