<?xml version="1.0" encoding="UTF-8"?>
<svg version="1.1" viewBox="0 0 200 200" xmlns="http://www.w3.org/2000/svg">
<path d="M0 0 C55.44 0 110.88 0 168 0 C168 7.92 168 15.84 168 24 C167.01 24 166.02 24 165 24 C165 30.93 165 37.86 165 45 C164.01 45 163.02 45 162 45 C162 51.93 162 58.86 162 66 C161.01 66 160.02 66 159 66 C159 71.94 159 77.88 159 84 C158.01 84 157.02 84 156 84 C156 90.93 156 97.86 156 105 C155.01 105 154.02 105 153 105 C153 111.93 153 118.86 153 126 C152.01 126 151.02 126 150 126 C150 129.96 150 133.92 150 138 C149.01 138 148.02 138 147 138 C147 138.99 147 139.98 147 141 C145.02 141 143.04 141 141 141 C141 141.99 141 142.98 141 144 C137.04 144 133.08 144 129 144 C129 144.99 129 145.98 129 147 C126.03 147 123.06 147 120 147 C120 147.99 120 148.98 120 150 C116.04 150 112.08 150 108 150 C108 150.99 108 151.98 108 153 C105.03 153 102.06 153 99 153 C99 153.99 99 154.98 99 156 C95.04 156 91.08 156 87 156 C87 156.99 87 157.98 87 159 C85.02 159 83.04 159 81 159 C81 158.01 81 157.02 81 156 C77.04 156 73.08 156 69 156 C69 155.01 69 154.02 69 153 C66.03 153 63.06 153 60 153 C60 152.01 60 151.02 60 150 C56.04 150 52.08 150 48 150 C48 149.01 48 148.02 48 147 C45.03 147 42.06 147 39 147 C39 146.01 39 145.02 39 144 C35.04 144 31.08 144 27 144 C27 143.01 27 142.02 27 141 C25.02 141 23.04 141 21 141 C21 140.01 21 139.02 21 138 C20.01 138 19.02 138 18 138 C18 134.04 18 130.08 18 126 C17.01 126 16.02 126 15 126 C15 119.07 15 112.14 15 105 C14.01 105 13.02 105 12 105 C12 98.07 12 91.14 12 84 C11.01 84 10.02 84 9 84 C9 78.06 9 72.12 9 66 C8.01 66 7.02 66 6 66 C6 59.07 6 52.14 6 45 C5.01 45 4.02 45 3 45 C3 38.07 3 31.14 3 24 C2.01 24 1.02 24 0 24 C0 16.08 0 8.16 0 0 Z " fill="#2078B3" transform="translate(12,33)"/>
<path d="M0 0 C55.44 0 110.88 0 168 0 C168 7.92 168 15.84 168 24 C167.01 24 166.02 24 165 24 C165 30.93 165 37.86 165 45 C164.01 45 163.02 45 162 45 C162 51.93 162 58.86 162 66 C161.01 66 160.02 66 159 66 C159 71.94 159 77.88 159 84 C158.01 84 157.02 84 156 84 C156 90.93 156 97.86 156 105 C155.01 105 154.02 105 153 105 C153 111.93 153 118.86 153 126 C152.01 126 151.02 126 150 126 C150 129.96 150 133.92 150 138 C149.01 138 148.02 138 147 138 C147 138.99 147 139.98 147 141 C145.02 141 143.04 141 141 141 C141 141.99 141 142.98 141 144 C137.04 144 133.08 144 129 144 C129 144.99 129 145.98 129 147 C126.03 147 123.06 147 120 147 C120 147.99 120 148.98 120 150 C116.04 150 112.08 150 108 150 C108 150.99 108 151.98 108 153 C105.03 153 102.06 153 99 153 C99 153.99 99 154.98 99 156 C95.04 156 91.08 156 87 156 C87 156.99 87 157.98 87 159 C85.02 159 83.04 159 81 159 C81 158.01 81 157.02 81 156 C77.04 156 73.08 156 69 156 C69 155.01 69 154.02 69 153 C66.03 153 63.06 153 60 153 C60 152.01 60 151.02 60 150 C56.04 150 52.08 150 48 150 C48 149.01 48 148.02 48 147 C45.03 147 42.06 147 39 147 C39 146.01 39 145.02 39 144 C35.04 144 31.08 144 27 144 C27 143.01 27 142.02 27 141 C25.02 141 23.04 141 21 141 C21 140.01 21 139.02 21 138 C20.01 138 19.02 138 18 138 C18 134.04 18 130.08 18 126 C17.01 126 16.02 126 15 126 C15 119.07 15 112.14 15 105 C14.01 105 13.02 105 12 105 C12 98.07 12 91.14 12 84 C11.01 84 10.02 84 9 84 C9 78.06 9 72.12 9 66 C8.01 66 7.02 66 6 66 C6 59.07 6 52.14 6 45 C5.01 45 4.02 45 3 45 C3 38.07 3 31.14 3 24 C2.01 24 1.02 24 0 24 C0 16.08 0 8.16 0 0 Z M15 15 C15 17.97 15 20.94 15 24 C15.99 24 16.98 24 18 24 C18 29.94 18 35.88 18 42 C18.99 42 19.98 42 21 42 C21 47.94 21 53.88 21 60 C21.99 60 22.98 60 24 60 C24 65.94 24 71.88 24 78 C24.99 78 25.98 78 27 78 C27 83.94 27 89.88 27 96 C27.99 96 28.98 96 30 96 C30 101.94 30 107.88 30 114 C30.99 114 31.98 114 33 114 C33 117.96 33 121.92 33 126 C34.98 126 36.96 126 39 126 C39 126.99 39 127.98 39 129 C41.97 129 44.94 129 48 129 C48 129.99 48 130.98 48 132 C51.96 132 55.92 132 60 132 C60 132.99 60 133.98 60 135 C62.97 135 65.94 135 69 135 C69 135.99 69 136.98 69 138 C71.97 138 74.94 138 78 138 C78 138.99 78 139.98 78 141 C81.96 141 85.92 141 90 141 C90 140.01 90 139.02 90 138 C92.97 138 95.94 138 99 138 C99 137.01 99 136.02 99 135 C101.97 135 104.94 135 108 135 C108 134.01 108 133.02 108 132 C111.96 132 115.92 132 120 132 C120 131.01 120 130.02 120 129 C122.97 129 125.94 129 129 129 C129 128.01 129 127.02 129 126 C130.98 126 132.96 126 135 126 C135 122.04 135 118.08 135 114 C135.99 114 136.98 114 138 114 C138 108.06 138 102.12 138 96 C138.99 96 139.98 96 141 96 C141 90.06 141 84.12 141 78 C141.99 78 142.98 78 144 78 C144 72.06 144 66.12 144 60 C144.99 60 145.98 60 147 60 C147 54.06 147 48.12 147 42 C147.99 42 148.98 42 150 42 C150 36.06 150 30.12 150 24 C150.99 24 151.98 24 153 24 C153 21.03 153 18.06 153 15 C107.46 15 61.92 15 15 15 Z " fill="#2078B3" transform="translate(12,33)"/>
<path d="M0 0 C37.62 0 75.24 0 114 0 C114 3.96 114 7.92 114 12 C113.01 12 112.02 12 111 12 C111 13.98 111 15.96 111 18 C108.03 18 105.06 18 102 18 C102 18.99 102 19.98 102 21 C99.03 21 96.06 21 93 21 C93 21.99 93 22.98 93 24 C90.03 24 87.06 24 84 24 C84 24.99 84 25.98 84 27 C82.02 27 80.04 27 78 27 C78 27.99 78 28.98 78 30 C75.03 30 72.06 30 69 30 C69 30.99 69 31.98 69 33 C67.02 33 65.04 33 63 33 C63 33.99 63 34.98 63 36 C77.85 36 92.7 36 108 36 C108 39.96 108 43.92 108 48 C107.01 48 106.02 48 105 48 C105 53.94 105 59.88 105 66 C104.01 66 103.02 66 102 66 C102 68.97 102 71.94 102 75 C101.01 75 100.02 75 99 75 C99 77.97 99 80.94 99 84 C97.02 84 95.04 84 93 84 C93 84.99 93 85.98 93 87 C91.02 87 89.04 87 87 87 C87 87.99 87 88.98 87 90 C84.03 90 81.06 90 78 90 C78 90.99 78 91.98 78 93 C75.03 93 72.06 93 69 93 C69 93.99 69 94.98 69 96 C67.02 96 65.04 96 63 96 C63 96.99 63 97.98 63 99 C59.04 99 55.08 99 51 99 C51 98.01 51 97.02 51 96 C49.02 96 47.04 96 45 96 C45 95.01 45 94.02 45 93 C42.03 93 39.06 93 36 93 C36 92.01 36 91.02 36 90 C33.03 90 30.06 90 27 90 C27 89.01 27 88.02 27 87 C25.02 87 23.04 87 21 87 C21 86.01 21 85.02 21 84 C19.02 84 17.04 84 15 84 C15 81.03 15 78.06 15 75 C14.01 75 13.02 75 12 75 C12 71.04 12 67.08 12 63 C17.94 63 23.88 63 30 63 C30 63.99 30 64.98 30 66 C30.99 66 31.98 66 33 66 C33 67.98 33 69.96 33 72 C33.99 72 34.98 72 36 72 C36 72.99 36 73.98 36 75 C37.98 75 39.96 75 42 75 C42 75.99 42 76.98 42 78 C44.97 78 47.94 78 51 78 C51 78.99 51 79.98 51 81 C54.96 81 58.92 81 63 81 C63 80.01 63 79.02 63 78 C65.97 78 68.94 78 72 78 C72 77.01 72 76.02 72 75 C73.98 75 75.96 75 78 75 C78 74.01 78 73.02 78 72 C78.99 72 79.98 72 81 72 C81 70.02 81 68.04 81 66 C81.99 66 82.98 66 84 66 C84 62.04 84 58.08 84 54 C59.25 54 34.5 54 9 54 C9 52.02 9 50.04 9 48 C8.01 48 7.02 48 6 48 C6 44.04 6 40.08 6 36 C7.98 36 9.96 36 12 36 C12 35.01 12 34.02 12 33 C13.98 33 15.96 33 18 33 C18 32.01 18 31.02 18 30 C20.97 30 23.94 30 27 30 C27 29.01 27 28.02 27 27 C28.98 27 30.96 27 33 27 C33 26.01 33 25.02 33 24 C35.97 24 38.94 24 42 24 C42 23.01 42 22.02 42 21 C44.97 21 47.94 21 51 21 C51 20.01 51 19.02 51 18 C35.16 18 19.32 18 3 18 C3 16.02 3 14.04 3 12 C2.01 12 1.02 12 0 12 C0 8.04 0 4.08 0 0 Z " fill="#FFFFFF" transform="translate(39,63)"/>
<path d="M0 0 C27.72 0 55.44 0 84 0 C84 4.95 84 9.9 84 15 C61.23 15 38.46 15 15 15 C15 17.97 15 20.94 15 24 C15.99 24 16.98 24 18 24 C18 29.94 18 35.88 18 42 C18.99 42 19.98 42 21 42 C21 47.94 21 53.88 21 60 C21.99 60 22.98 60 24 60 C24 65.94 24 71.88 24 78 C24.99 78 25.98 78 27 78 C27 83.94 27 89.88 27 96 C27.99 96 28.98 96 30 96 C30 101.94 30 107.88 30 114 C30.99 114 31.98 114 33 114 C33 117.96 33 121.92 33 126 C34.98 126 36.96 126 39 126 C39 126.99 39 127.98 39 129 C41.97 129 44.94 129 48 129 C48 129.99 48 130.98 48 132 C51.96 132 55.92 132 60 132 C60 132.99 60 133.98 60 135 C62.97 135 65.94 135 69 135 C69 135.99 69 136.98 69 138 C71.97 138 74.94 138 78 138 C78 138.99 78 139.98 78 141 C79.98 141 81.96 141 84 141 C84 146.94 84 152.88 84 159 C83.01 159 82.02 159 81 159 C81 158.01 81 157.02 81 156 C77.04 156 73.08 156 69 156 C69 155.01 69 154.02 69 153 C66.03 153 63.06 153 60 153 C60 152.01 60 151.02 60 150 C56.04 150 52.08 150 48 150 C48 149.01 48 148.02 48 147 C45.03 147 42.06 147 39 147 C39 146.01 39 145.02 39 144 C35.04 144 31.08 144 27 144 C27 143.01 27 142.02 27 141 C25.02 141 23.04 141 21 141 C21 140.01 21 139.02 21 138 C20.01 138 19.02 138 18 138 C18 134.04 18 130.08 18 126 C17.01 126 16.02 126 15 126 C15 119.07 15 112.14 15 105 C14.01 105 13.02 105 12 105 C12 98.07 12 91.14 12 84 C11.01 84 10.02 84 9 84 C9 78.06 9 72.12 9 66 C8.01 66 7.02 66 6 66 C6 59.07 6 52.14 6 45 C5.01 45 4.02 45 3 45 C3 38.07 3 31.14 3 24 C2.01 24 1.02 24 0 24 C0 16.08 0 8.16 0 0 Z " fill="#1D6CA1" transform="translate(12,33)"/>
<path d="M0 0 C22.77 0 45.54 0 69 0 C69 2.97 69 5.94 69 9 C68.01 9 67.02 9 66 9 C66 14.94 66 20.88 66 27 C65.01 27 64.02 27 63 27 C63 32.94 63 38.88 63 45 C62.01 45 61.02 45 60 45 C60 50.94 60 56.88 60 63 C59.01 63 58.02 63 57 63 C57 68.94 57 74.88 57 81 C56.01 81 55.02 81 54 81 C54 86.94 54 92.88 54 99 C53.01 99 52.02 99 51 99 C51 102.96 51 106.92 51 111 C49.02 111 47.04 111 45 111 C45 111.99 45 112.98 45 114 C42.03 114 39.06 114 36 114 C36 114.99 36 115.98 36 117 C32.04 117 28.08 117 24 117 C24 117.99 24 118.98 24 120 C21.03 120 18.06 120 15 120 C15 120.99 15 121.98 15 123 C12.03 123 9.06 123 6 123 C6 123.99 6 124.98 6 126 C4.02 126 2.04 126 0 126 C0 122.04 0 118.08 0 114 C1.98 114 3.96 114 6 114 C6 113.01 6 112.02 6 111 C7.98 111 9.96 111 12 111 C12 110.01 12 109.02 12 108 C14.97 108 17.94 108 21 108 C21 107.01 21 106.02 21 105 C23.97 105 26.94 105 30 105 C30 104.01 30 103.02 30 102 C31.98 102 33.96 102 36 102 C36 101.01 36 100.02 36 99 C37.98 99 39.96 99 42 99 C42 96.03 42 93.06 42 90 C42.99 90 43.98 90 45 90 C45 87.03 45 84.06 45 81 C45.99 81 46.98 81 48 81 C48 75.06 48 69.12 48 63 C48.99 63 49.98 63 51 63 C51 59.04 51 55.08 51 51 C36.15 51 21.3 51 6 51 C6 50.01 6 49.02 6 48 C7.98 48 9.96 48 12 48 C12 47.01 12 46.02 12 45 C14.97 45 17.94 45 21 45 C21 44.01 21 43.02 21 42 C22.98 42 24.96 42 27 42 C27 41.01 27 40.02 27 39 C29.97 39 32.94 39 36 39 C36 38.01 36 37.02 36 36 C38.97 36 41.94 36 45 36 C45 35.01 45 34.02 45 33 C47.97 33 50.94 33 54 33 C54 31.02 54 29.04 54 27 C54.99 27 55.98 27 57 27 C57 23.04 57 19.08 57 15 C38.19 15 19.38 15 0 15 C0 10.05 0 5.1 0 0 Z " fill="#1F9BED" transform="translate(96,48)"/>
<path d="M0 0 C8.91 0 17.82 0 27 0 C27 3.96 27 7.92 27 12 C26.01 12 25.02 12 24 12 C24 13.98 24 15.96 24 18 C23.01 18 22.02 18 21 18 C21 18.99 21 19.98 21 21 C19.02 21 17.04 21 15 21 C15 21.99 15 22.98 15 24 C12.03 24 9.06 24 6 24 C6 24.99 6 25.98 6 27 C4.02 27 2.04 27 0 27 C0 18.09 0 9.18 0 0 Z " fill="#1F9BED" transform="translate(96,117)"/>
</svg>
