<svg xmlns="http://www.w3.org/2000/svg" width="640" height="640" viewBox="0 0 640 640" version="1.1"><path d="M 320 90 L 320 97 313 97 L 306 97 306 104 L 306 111 299 111 L 292 111 292 125 L 292 139 285 139 L 278 139 278 146 L 278 153 271 153 L 264 153 264 160 L 264 167 257 167 L 250 167 250 188 L 250 209 243.500 209 L 237 209 237 243.500 L 237 278 243.500 278 L 250 278 250 285 L 250 292 264 292 L 278 292 278 299 L 278 306 285 306 L 292 306 292 313 L 292 320 299 320 L 306 320 306 334 L 306 348 313 348 L 320 348 320 355 L 320 362 327 362 L 334 362 334 410.500 L 334 459 327 459 L 320 459 320 466 L 320 473 313 473 L 306 473 306 480 L 306 487 313 487 L 320 487 320 494 L 320 501 334 501 L 348 501 348 508 L 348 515 362 515 L 376 515 376 522 L 376 529 383 529 L 390 529 390 536 L 390 543 396.500 543 L 403 543 403 536 L 403 529 410 529 L 417 529 417 522 L 417 515 424 515 L 431 515 431 508 L 431 501 445 501 L 459 501 459 487 L 459 473 466 473 L 473 473 473 459 L 473 445 480 445 L 487 445 487 431.046 L 487 417.091 493.750 416.796 L 500.500 416.500 500.758 361.250 L 501.017 306 494.008 306 L 487 306 487 299 L 487 292 480 292 L 473 292 473 278 L 473 264 466 264 L 459 264 459 250.500 L 459 237 452 237 L 445 237 445 230 L 445 223 438 223 L 431 223 431 216 L 431 209 424 209 L 417 209 417 202 L 417 195 410 195 L 403 195 403 181 L 403 167 396.500 167 L 390 167 390 160 L 390 153 383 153 L 376 153 376 146 L 376 139 369 139 L 362 139 362 132 L 362 125 355 125 L 348 125 348 111 L 348 97 341 97 L 334 97 334 90 L 334 83 327 83 L 320 83 320 90" stroke="none" fill="#db2c04" fill-rule="evenodd"/><path d="M 153 285 L 153 292 146 292 L 139 292 139 368.500 L 139 445 146 445 L 153 445 153 452 L 153 459 160 459 L 167 459 167 466 L 167 473 174 473 L 181 473 181 487 L 181 501 188 501 L 195 501 195 508 L 195 515 209 515 L 223 515 223 522 L 223 529 230 529 L 237 529 237 536 L 237 543 264.500 543 L 292 543 292 550 L 292 557 320 557 L 348 557 348 550 L 348 543 369 543 L 390 543 390 536 L 390 529 383 529 L 376 529 376 522 L 376 515 362 515 L 348 515 348 508 L 348 501 334 501 L 320 501 320 494 L 320 487 313 487 L 306 487 306 480 L 306 473 313 473 L 320 473 320 466 L 320 459 327 459 L 334 459 334 410.500 L 334 362 327 362 L 320 362 320 355 L 320 348 313 348 L 306 348 306 334 L 306 320 299 320 L 292 320 292 313 L 292 306 285 306 L 278 306 278 299 L 278 292 264 292 L 250 292 250 285 L 250 278 201.500 278 L 153 278 153 285" stroke="none" fill="#fcb104" fill-rule="evenodd"/></svg>