<?xml version="1.0" encoding="UTF-8"?>
<!-- Generator: visioncortex VTracer -->
<svg id="svg" version="1.1" xmlns="http://www.w3.org/2000/svg" style="display: block;" viewBox="0 0 3840 3840"><path d="M0 0 C87.12 0 174.24 0 264 0 C264 22.11 264 44.22 264 67 C286.11 67 308.22 67 331 67 C331 88.78 331 110.56 331 133 C352.78 133 374.56 133 397 133 C397 154.78 397 176.56 397 199 C418.78 199 440.56 199 463 199 C463 220.78 463 242.56 463 265 C484.78 265 506.56 265 529 265 C529 286.78 529 308.56 529 331 C550.78 331 572.56 331 595 331 C595 353.11 595 375.22 595 398 C617.11 398 639.22 398 662 398 C662 419.78 662 441.56 662 464 C683.78 464 705.56 464 728 464 C728 485.78 728 507.56 728 530 C749.78 530 771.56 530 794 530 C794 551.78 794 573.56 794 596 C815.78 596 837.56 596 860 596 C860 617.78 860 639.56 860 662 C881.78 662 903.56 662 926 662 C926 684.11 926 706.22 926 729 C948.11 729 970.22 729 993 729 C993 750.78 993 772.56 993 795 C1014.78 795 1036.56 795 1059 795 C1059 816.78 1059 838.56 1059 861 C1080.78 861 1102.56 861 1125 861 C1125 882.78 1125 904.56 1125 927 C1146.78 927 1168.56 927 1191 927 C1191 949.11 1191 971.22 1191 994 C1213.11 994 1235.22 994 1258 994 C1258 1015.78 1258 1037.56 1258 1060 C1279.78 1060 1301.56 1060 1324 1060 C1324 1081.78 1324 1103.56 1324 1126 C1345.78 1126 1367.56 1126 1390 1126 C1390 1147.78 1390 1169.56 1390 1192 C1411.78 1192 1433.56 1192 1456 1192 C1456 1213.78 1456 1235.56 1456 1258 C1477.78 1258 1499.56 1258 1522 1258 C1522 1280.11 1522 1302.22 1522 1325 C1544.11 1325 1566.22 1325 1589 1325 C1589 1346.78 1589 1368.56 1589 1391 C1610.78 1391 1632.56 1391 1655 1391 C1655 1412.78 1655 1434.56 1655 1457 C1676.78 1457 1698.56 1457 1721 1457 C1721 1478.78 1721 1500.56 1721 1523 C1742.78 1523 1764.56 1523 1787 1523 C1787 1544.78 1787 1566.56 1787 1589 C1808.78 1589 1830.56 1589 1853 1589 C1853 1611.11 1853 1633.22 1853 1656 C1875.11 1656 1897.22 1656 1920 1656 C1920 1765.23 1920 1874.46 1920 1987 C1897.89 1987 1875.78 1987 1853 1987 C1853 2008.78 1853 2030.56 1853 2053 C1831.22 2053 1809.44 2053 1787 2053 C1787 2074.78 1787 2096.56 1787 2119 C1765.22 2119 1743.44 2119 1721 2119 C1721 2140.78 1721 2162.56 1721 2185 C1699.22 2185 1677.44 2185 1655 2185 C1655 2206.78 1655 2228.56 1655 2251 C1633.22 2251 1611.44 2251 1589 2251 C1589 2273.11 1589 2295.22 1589 2318 C1566.89 2318 1544.78 2318 1522 2318 C1522 2339.78 1522 2361.56 1522 2384 C1500.22 2384 1478.44 2384 1456 2384 C1456 2405.78 1456 2427.56 1456 2450 C1434.22 2450 1412.44 2450 1390 2450 C1390 2471.78 1390 2493.56 1390 2516 C1368.22 2516 1346.44 2516 1324 2516 C1324 2537.78 1324 2559.56 1324 2582 C1302.22 2582 1280.44 2582 1258 2582 C1258 2604.11 1258 2626.22 1258 2649 C1235.89 2649 1213.78 2649 1191 2649 C1191 2670.78 1191 2692.56 1191 2715 C1169.22 2715 1147.44 2715 1125 2715 C1125 2736.78 1125 2758.56 1125 2781 C1103.22 2781 1081.44 2781 1059 2781 C1059 2802.78 1059 2824.56 1059 2847 C1037.22 2847 1015.44 2847 993 2847 C993 2869.11 993 2891.22 993 2914 C970.89 2914 948.78 2914 926 2914 C926 2935.78 926 2957.56 926 2980 C904.22 2980 882.44 2980 860 2980 C860 3001.78 860 3023.56 860 3046 C838.22 3046 816.44 3046 794 3046 C794 3067.78 794 3089.56 794 3112 C772.22 3112 750.44 3112 728 3112 C728 3133.78 728 3155.56 728 3178 C706.22 3178 684.44 3178 662 3178 C662 3200.11 662 3222.22 662 3245 C639.89 3245 617.78 3245 595 3245 C595 3266.78 595 3288.56 595 3311 C573.22 3311 551.44 3311 529 3311 C529 3332.78 529 3354.56 529 3377 C507.22 3377 485.44 3377 463 3377 C463 3398.78 463 3420.56 463 3443 C441.22 3443 419.44 3443 397 3443 C397 3464.78 397 3486.56 397 3509 C375.22 3509 353.44 3509 331 3509 C331 3531.11 331 3553.22 331 3576 C221.77 3576 112.54 3576 0 3576 C0 3553.89 0 3531.78 0 3509 C-22.11 3509 -44.22 3509 -67 3509 C-67 3487.22 -67 3465.44 -67 3443 C-88.78 3443 -110.56 3443 -133 3443 C-133 3421.22 -133 3399.44 -133 3377 C-154.78 3377 -176.56 3377 -199 3377 C-199 3355.22 -199 3333.44 -199 3311 C-220.78 3311 -242.56 3311 -265 3311 C-265 3289.22 -265 3267.44 -265 3245 C-286.78 3245 -308.56 3245 -331 3245 C-331 3222.89 -331 3200.78 -331 3178 C-353.11 3178 -375.22 3178 -398 3178 C-398 3156.22 -398 3134.44 -398 3112 C-419.78 3112 -441.56 3112 -464 3112 C-464 3090.22 -464 3068.44 -464 3046 C-485.78 3046 -507.56 3046 -530 3046 C-530 3024.22 -530 3002.44 -530 2980 C-551.78 2980 -573.56 2980 -596 2980 C-596 2958.22 -596 2936.44 -596 2914 C-617.78 2914 -639.56 2914 -662 2914 C-662 2891.89 -662 2869.78 -662 2847 C-684.11 2847 -706.22 2847 -729 2847 C-729 2825.22 -729 2803.44 -729 2781 C-772.56 2781 -816.12 2781 -861 2781 C-861 2737.44 -861 2693.88 -861 2649 C-882.78 2649 -904.56 2649 -927 2649 C-927 2626.89 -927 2604.78 -927 2582 C-949.11 2582 -971.22 2582 -994 2582 C-994 2560.22 -994 2538.44 -994 2516 C-1015.78 2516 -1037.56 2516 -1060 2516 C-1060 2494.22 -1060 2472.44 -1060 2450 C-1081.78 2450 -1103.56 2450 -1126 2450 C-1126 2428.22 -1126 2406.44 -1126 2384 C-1147.78 2384 -1169.56 2384 -1192 2384 C-1192 2362.22 -1192 2340.44 -1192 2318 C-1213.78 2318 -1235.56 2318 -1258 2318 C-1258 2295.89 -1258 2273.78 -1258 2251 C-1280.11 2251 -1302.22 2251 -1325 2251 C-1325 2229.22 -1325 2207.44 -1325 2185 C-1346.78 2185 -1368.56 2185 -1391 2185 C-1391 2163.22 -1391 2141.44 -1391 2119 C-1412.78 2119 -1434.56 2119 -1457 2119 C-1457 2097.22 -1457 2075.44 -1457 2053 C-1478.78 2053 -1500.56 2053 -1523 2053 C-1523 2031.22 -1523 2009.44 -1523 1987 C-1544.78 1987 -1566.56 1987 -1589 1987 C-1589 1964.89 -1589 1942.78 -1589 1920 C-1611.11 1920 -1633.22 1920 -1656 1920 C-1656 1832.88 -1656 1745.76 -1656 1656 C-1633.89 1656 -1611.78 1656 -1589 1656 C-1589 1633.89 -1589 1611.78 -1589 1589 C-1567.22 1589 -1545.44 1589 -1523 1589 C-1523 1567.22 -1523 1545.44 -1523 1523 C-1501.22 1523 -1479.44 1523 -1457 1523 C-1457 1501.22 -1457 1479.44 -1457 1457 C-1435.22 1457 -1413.44 1457 -1391 1457 C-1391 1435.22 -1391 1413.44 -1391 1391 C-1369.22 1391 -1347.44 1391 -1325 1391 C-1325 1369.22 -1325 1347.44 -1325 1325 C-1302.89 1325 -1280.78 1325 -1258 1325 C-1258 1302.89 -1258 1280.78 -1258 1258 C-1236.22 1258 -1214.44 1258 -1192 1258 C-1192 1236.22 -1192 1214.44 -1192 1192 C-1170.22 1192 -1148.44 1192 -1126 1192 C-1126 1170.22 -1126 1148.44 -1126 1126 C-1104.22 1126 -1082.44 1126 -1060 1126 C-1060 1104.22 -1060 1082.44 -1060 1060 C-1038.22 1060 -1016.44 1060 -994 1060 C-994 1038.22 -994 1016.44 -994 994 C-971.89 994 -949.78 994 -927 994 C-927 971.89 -927 949.78 -927 927 C-905.22 927 -883.44 927 -861 927 C-861 905.22 -861 883.44 -861 861 C-839.22 861 -817.44 861 -795 861 C-795 839.22 -795 817.44 -795 795 C-773.22 795 -751.44 795 -729 795 C-729 773.22 -729 751.44 -729 729 C-706.89 729 -684.78 729 -662 729 C-662 706.89 -662 684.78 -662 662 C-640.22 662 -618.44 662 -596 662 C-596 640.22 -596 618.44 -596 596 C-530.66 596 -465.32 596 -398 596 C-398 617.78 -398 639.56 -398 662 C-375.89 662 -353.78 662 -331 662 C-331 705.89 -331 749.78 -331 795 C-309.22 795 -287.44 795 -265 795 C-265 816.78 -265 838.56 -265 861 C-221.44 861 -177.88 861 -133 861 C-133 970.23 -133 1079.46 -133 1192 C-111.22 1192 -89.44 1192 -67 1192 C-67 1213.78 -67 1235.56 -67 1258 C-44.89 1258 -22.78 1258 0 1258 C0 1280.11 0 1302.22 0 1325 C21.78 1325 43.56 1325 66 1325 C66 1652.69 66 1980.38 66 2318 C22.11 2318 -21.78 2318 -67 2318 C-67 2361.56 -67 2405.12 -67 2450 C-88.78 2450 -110.56 2450 -133 2450 C-133 2537.45 -133 2624.9 -133 2715 C-111.22 2715 -89.44 2715 -67 2715 C-67 2736.78 -67 2758.56 -67 2781 C-44.89 2781 -22.78 2781 0 2781 C0 2802.78 0 2824.56 0 2847 C87.12 2847 174.24 2847 264 2847 C264 2825.22 264 2803.44 264 2781 C286.11 2781 308.22 2781 331 2781 C331 2759.22 331 2737.44 331 2715 C352.78 2715 374.56 2715 397 2715 C397 2605.77 397 2496.54 397 2384 C375.22 2384 353.44 2384 331 2384 C331 2362.22 331 2340.44 331 2318 C308.89 2318 286.78 2318 264 2318 C264 1990.31 264 1662.62 264 1325 C286.11 1325 308.22 1325 331 1325 C331 1346.78 331 1368.56 331 1391 C352.78 1391 374.56 1391 397 1391 C397 1434.56 397 1478.12 397 1523 C440.56 1523 484.12 1523 529 1523 C529 1544.78 529 1566.56 529 1589 C550.78 1589 572.56 1589 595 1589 C595 1698.23 595 1807.46 595 1920 C617.11 1920 639.22 1920 662 1920 C662 1942.11 662 1964.22 662 1987 C683.78 1987 705.56 1987 728 1987 C728 2008.78 728 2030.56 728 2053 C837.23 2053 946.46 2053 1059 2053 C1059 2031.22 1059 2009.44 1059 1987 C1080.78 1987 1102.56 1987 1125 1987 C1125 1964.89 1125 1942.78 1125 1920 C1146.78 1920 1168.56 1920 1191 1920 C1191 1854.66 1191 1789.32 1191 1722 C1169.22 1722 1147.44 1722 1125 1722 C1125 1678.11 1125 1634.22 1125 1589 C1103.22 1589 1081.44 1589 1059 1589 C1059 1567.22 1059 1545.44 1059 1523 C949.77 1523 840.54 1523 728 1523 C728 1501.22 728 1479.44 728 1457 C706.22 1457 684.44 1457 662 1457 C662 1435.22 662 1413.44 662 1391 C639.89 1391 617.78 1391 595 1391 C595 1369.22 595 1347.44 595 1325 C573.22 1325 551.44 1325 529 1325 C529 1302.89 529 1280.78 529 1258 C507.22 1258 485.44 1258 463 1258 C463 1236.22 463 1214.44 463 1192 C441.22 1192 419.44 1192 397 1192 C397 1082.77 397 973.54 397 861 C375.22 861 353.44 861 331 861 C331 839.22 331 817.44 331 795 C221.77 795 112.54 795 0 795 C0 773.22 0 751.44 0 729 C-22.11 729 -44.22 729 -67 729 C-67 706.89 -67 684.78 -67 662 C-88.78 662 -110.56 662 -133 662 C-133 640.22 -133 618.44 -133 596 C-154.78 596 -176.56 596 -199 596 C-199 574.22 -199 552.44 -199 530 C-220.78 530 -242.56 530 -265 530 C-265 508.22 -265 486.44 -265 464 C-286.78 464 -308.56 464 -331 464 C-331 420.11 -331 376.22 -331 331 C-309.22 331 -287.44 331 -265 331 C-265 309.22 -265 287.44 -265 265 C-243.22 265 -221.44 265 -199 265 C-199 243.22 -199 221.44 -199 199 C-177.22 199 -155.44 199 -133 199 C-133 177.22 -133 155.44 -133 133 C-111.22 133 -89.44 133 -67 133 C-67 111.22 -67 89.44 -67 67 C-44.89 67 -22.78 67 0 67 C0 44.89 0 22.78 0 0 Z " transform="translate(1788,132)" fill="currentColor";/></svg>