<?xml version="1.0" encoding="UTF-8"?>
<svg version="1.1" viewBox="0 0 200 200" xmlns="http://www.w3.org/2000/svg">
<path d="M0 0 C2.97 0 5.94 0 9 0 C9 0.99 9 1.98 9 3 C7.02 3 5.04 3 3 3 C3 3.99 3 4.98 3 6 C2.01 6 1.02 6 0 6 C0 6.99 0 7.98 0 9 C-0.99 9 -1.98 9 -3 9 C-3 9.99 -3 10.98 -3 12 C-3.99 12 -4.98 12 -6 12 C-6 12.99 -6 13.98 -6 15 C-4.02 15 -2.04 15 0 15 C0 15.99 0 16.98 0 18 C2.97 18 5.94 18 9 18 C9 18.99 9 19.98 9 21 C12.96 21 16.92 21 21 21 C21 21.99 21 22.98 21 24 C28.92 24 36.84 24 45 24 C45 24.99 45 25.98 45 27 C62.82 27 80.64 27 99 27 C99 26.01 99 25.02 99 24 C105.93 24 112.86 24 120 24 C120 23.01 120 22.02 120 21 C123.96 21 127.92 21 132 21 C132 20.01 132 19.02 132 18 C135.96 18 139.92 18 144 18 C144 17.01 144 16.02 144 15 C144.99 15 145.98 15 147 15 C147 14.01 147 13.02 147 12 C147.99 12 148.98 12 150 12 C150 10.02 150 8.04 150 6 C150.99 6 151.98 6 153 6 C153 6.99 153 7.98 153 9 C153.99 9 154.98 9 156 9 C156 9.99 156 10.98 156 12 C156.99 12 157.98 12 159 12 C159 13.98 159 15.96 159 18 C158.01 18 157.02 18 156 18 C156 18.99 156 19.98 156 21 C155.01 21 154.02 21 153 21 C153 21.99 153 22.98 153 24 C152.01 24 151.02 24 150 24 C150 24.99 150 25.98 150 27 C148.02 27 146.04 27 144 27 C144 27.99 144 28.98 144 30 C141.03 30 138.06 30 135 30 C135 30.99 135 31.98 135 33 C131.04 33 127.08 33 123 33 C123 33.99 123 34.98 123 36 C116.07 36 109.14 36 102 36 C102 36.99 102 37.98 102 39 C83.19 39 64.38 39 45 39 C45 38.01 45 37.02 45 36 C36.09 36 27.18 36 18 36 C18 35.01 18 34.02 18 33 C14.04 33 10.08 33 6 33 C6 32.01 6 31.02 6 30 C3.03 30 0.06 30 -3 30 C-3 29.01 -3 28.02 -3 27 C-4.98 27 -6.96 27 -9 27 C-9 26.01 -9 25.02 -9 24 C-9.99 24 -10.98 24 -12 24 C-12 23.01 -12 22.02 -12 21 C-12.99 21 -13.98 21 -15 21 C-15 20.01 -15 19.02 -15 18 C-15.99 18 -16.98 18 -18 18 C-18 16.02 -18 14.04 -18 12 C-17.01 12 -16.02 12 -15 12 C-15 11.01 -15 10.02 -15 9 C-14.01 9 -13.02 9 -12 9 C-12 8.01 -12 7.02 -12 6 C-10.02 6 -8.04 6 -6 6 C-6 5.01 -6 4.02 -6 3 C-4.02 3 -2.04 3 0 3 C0 2.01 0 1.02 0 0 Z " fill="#5B6EE1" transform="translate(18,144)"/>
<path d="M0 0 C4.95 0 9.9 0 15 0 C15 0.99 15 1.98 15 3 C13.02 3 11.04 3 9 3 C9 3.99 9 4.98 9 6 C8.01 6 7.02 6 6 6 C6 6.99 6 7.98 6 9 C5.01 9 4.02 9 3 9 C3 9.99 3 10.98 3 12 C2.01 12 1.02 12 0 12 C0 12.99 0 13.98 0 15 C0.99 15 1.98 15 3 15 C3 15.99 3 16.98 3 18 C4.98 18 6.96 18 9 18 C9 18.99 9 19.98 9 21 C10.98 21 12.96 21 15 21 C15 21.99 15 22.98 15 24 C19.95 24 24.9 24 30 24 C30 24.99 30 25.98 30 27 C40.89 27 51.78 27 63 27 C63 26.01 63 25.02 63 24 C68.94 24 74.88 24 81 24 C81 23.01 81 22.02 81 21 C83.97 21 86.94 21 90 21 C90 20.01 90 19.02 90 18 C92.97 18 95.94 18 99 18 C99 17.01 99 16.02 99 15 C100.98 15 102.96 15 105 15 C105 15.99 105 16.98 105 18 C104.01 18 103.02 18 102 18 C102 18.99 102 19.98 102 21 C101.01 21 100.02 21 99 21 C99 21.99 99 22.98 99 24 C98.01 24 97.02 24 96 24 C96 24.99 96 25.98 96 27 C95.01 27 94.02 27 93 27 C93 27.99 93 28.98 93 30 C89.04 30 85.08 30 81 30 C81 30.99 81 31.98 81 33 C76.05 33 71.1 33 66 33 C66 33.99 66 34.98 66 36 C53.13 36 40.26 36 27 36 C27 35.01 27 34.02 27 33 C21.06 33 15.12 33 9 33 C9 32.01 9 31.02 9 30 C6.03 30 3.06 30 0 30 C0 29.01 0 28.02 0 27 C-0.99 27 -1.98 27 -3 27 C-3 26.01 -3 25.02 -3 24 C-3.99 24 -4.98 24 -6 24 C-6 23.01 -6 22.02 -6 21 C-6.99 21 -7.98 21 -9 21 C-9 20.01 -9 19.02 -9 18 C-9.99 18 -10.98 18 -12 18 C-12 15.03 -12 12.06 -12 9 C-11.01 9 -10.02 9 -9 9 C-9 8.01 -9 7.02 -9 6 C-8.01 6 -7.02 6 -6 6 C-6 5.01 -6 4.02 -6 3 C-4.02 3 -2.04 3 0 3 C0 2.01 0 1.02 0 0 Z " fill="#5B6EE1" transform="translate(45,75)"/>
<path d="M0 0 C2.97 0 5.94 0 9 0 C9 0.99 9 1.98 9 3 C9.99 3 10.98 3 12 3 C12 5.97 12 8.94 12 12 C11.01 12 10.02 12 9 12 C9 12.99 9 13.98 9 15 C8.01 15 7.02 15 6 15 C6 15.99 6 16.98 6 18 C3.03 18 0.06 18 -3 18 C-3 18.99 -3 19.98 -3 21 C-7.95 21 -12.9 21 -18 21 C-18 21.99 -18 22.98 -18 24 C-28.89 24 -39.78 24 -51 24 C-51 24.99 -51 25.98 -51 27 C-72.78 27 -94.56 27 -117 27 C-117 26.01 -117 25.02 -117 24 C-128.88 24 -140.76 24 -153 24 C-153 23.01 -153 22.02 -153 21 C-155.97 21 -158.94 21 -162 21 C-162 20.01 -162 19.02 -162 18 C-163.98 18 -165.96 18 -168 18 C-168 17.01 -168 16.02 -168 15 C-168.99 15 -169.98 15 -171 15 C-171 13.02 -171 11.04 -171 9 C-170.01 9 -169.02 9 -168 9 C-168 9.99 -168 10.98 -168 12 C-167.01 12 -166.02 12 -165 12 C-165 12.99 -165 13.98 -165 15 C-161.04 15 -157.08 15 -153 15 C-153 15.99 -153 16.98 -153 18 C-141.12 18 -129.24 18 -117 18 C-117 18.99 -117 19.98 -117 21 C-94.23 21 -71.46 21 -48 21 C-48 20.01 -48 19.02 -48 18 C-37.11 18 -26.22 18 -15 18 C-15 17.01 -15 16.02 -15 15 C-11.04 15 -7.08 15 -3 15 C-3 14.01 -3 13.02 -3 12 C-1.02 12 0.96 12 3 12 C3 11.01 3 10.02 3 9 C3.99 9 4.98 9 6 9 C6 8.01 6 7.02 6 6 C5.01 6 4.02 6 3 6 C3 5.01 3 4.02 3 3 C2.01 3 1.02 3 0 3 C0 2.01 0 1.02 0 0 Z " fill="#5B6EE1" transform="translate(180,165)"/>
<path d="M0 0 C0.99 0 1.98 0 3 0 C3 1.98 3 3.96 3 6 C2.01 6 1.02 6 0 6 C0 8.97 0 11.94 0 15 C-0.99 15 -1.98 15 -3 15 C-3 15.99 -3 16.98 -3 18 C-3.99 18 -4.98 18 -6 18 C-6 18.99 -6 19.98 -6 21 C-6.99 21 -7.98 21 -9 21 C-9 21.99 -9 22.98 -9 24 C-9.99 24 -10.98 24 -12 24 C-12 24.99 -12 25.98 -12 27 C-12.99 27 -13.98 27 -15 27 C-15 27.99 -15 28.98 -15 30 C-15.99 30 -16.98 30 -18 30 C-18 30.99 -18 31.98 -18 33 C-18.99 33 -19.98 33 -21 33 C-21 33.99 -21 34.98 -21 36 C-21.99 36 -22.98 36 -24 36 C-24 36.99 -24 37.98 -24 39 C-24.99 39 -25.98 39 -27 39 C-27 39.99 -27 40.98 -27 42 C-27.99 42 -28.98 42 -30 42 C-30 42.99 -30 43.98 -30 45 C-30.99 45 -31.98 45 -33 45 C-33 45.99 -33 46.98 -33 48 C-33.99 48 -34.98 48 -36 48 C-36 48.99 -36 49.98 -36 51 C-36.99 51 -37.98 51 -39 51 C-39 51.99 -39 52.98 -39 54 C-39.99 54 -40.98 54 -42 54 C-42 54.99 -42 55.98 -42 57 C-42.99 57 -43.98 57 -45 57 C-45 58.98 -45 60.96 -45 63 C-44.01 63 -43.02 63 -42 63 C-42 63.99 -42 64.98 -42 66 C-41.01 66 -40.02 66 -39 66 C-39 67.98 -39 69.96 -39 72 C-38.01 72 -37.02 72 -36 72 C-36 72.99 -36 73.98 -36 75 C-35.01 75 -34.02 75 -33 75 C-33 76.98 -33 78.96 -33 81 C-32.01 81 -31.02 81 -30 81 C-30 81.99 -30 82.98 -30 84 C-29.01 84 -28.02 84 -27 84 C-27 84.99 -27 85.98 -27 87 C-28.98 87 -30.96 87 -33 87 C-33 86.01 -33 85.02 -33 84 C-33.99 84 -34.98 84 -36 84 C-36 83.01 -36 82.02 -36 81 C-36.99 81 -37.98 81 -39 81 C-39 80.01 -39 79.02 -39 78 C-39.99 78 -40.98 78 -42 78 C-42 77.01 -42 76.02 -42 75 C-42.99 75 -43.98 75 -45 75 C-45 74.01 -45 73.02 -45 72 C-45.99 72 -46.98 72 -48 72 C-48 71.01 -48 70.02 -48 69 C-48.99 69 -49.98 69 -51 69 C-51 68.01 -51 67.02 -51 66 C-51.99 66 -52.98 66 -54 66 C-54 65.01 -54 64.02 -54 63 C-54.99 63 -55.98 63 -57 63 C-57 59.04 -57 55.08 -57 51 C-56.01 51 -55.02 51 -54 51 C-54 50.01 -54 49.02 -54 48 C-53.01 48 -52.02 48 -51 48 C-51 47.01 -51 46.02 -51 45 C-50.01 45 -49.02 45 -48 45 C-48 44.01 -48 43.02 -48 42 C-47.01 42 -46.02 42 -45 42 C-45 41.01 -45 40.02 -45 39 C-44.01 39 -43.02 39 -42 39 C-42 38.01 -42 37.02 -42 36 C-41.01 36 -40.02 36 -39 36 C-39 35.01 -39 34.02 -39 33 C-37.02 33 -35.04 33 -33 33 C-33 32.01 -33 31.02 -33 30 C-32.01 30 -31.02 30 -30 30 C-30 29.01 -30 28.02 -30 27 C-28.02 27 -26.04 27 -24 27 C-24 26.01 -24 25.02 -24 24 C-23.01 24 -22.02 24 -21 24 C-21 23.01 -21 22.02 -21 21 C-20.01 21 -19.02 21 -18 21 C-18 20.01 -18 19.02 -18 18 C-16.02 18 -14.04 18 -12 18 C-12 17.01 -12 16.02 -12 15 C-11.01 15 -10.02 15 -9 15 C-9 14.01 -9 13.02 -9 12 C-8.01 12 -7.02 12 -6 12 C-6 11.01 -6 10.02 -6 9 C-5.01 9 -4.02 9 -3 9 C-3 7.02 -3 5.04 -3 3 C-2.01 3 -1.02 3 0 3 C0 2.01 0 1.02 0 0 Z " fill="#AC3232" transform="translate(123,0)"/>
<path d="M0 0 C1.98 0 3.96 0 6 0 C6 0.99 6 1.98 6 3 C5.01 3 4.02 3 3 3 C3 3.99 3 4.98 3 6 C0.03 6 -2.94 6 -6 6 C-6 6.99 -6 7.98 -6 9 C-7.98 9 -9.96 9 -12 9 C-12 9.99 -12 10.98 -12 12 C-12.99 12 -13.98 12 -15 12 C-15 12.99 -15 13.98 -15 15 C-15.99 15 -16.98 15 -18 15 C-18 15.99 -18 16.98 -18 18 C-18.99 18 -19.98 18 -21 18 C-21 18.99 -21 19.98 -21 21 C-21.99 21 -22.98 21 -24 21 C-24 21.99 -24 22.98 -24 24 C-24.99 24 -25.98 24 -27 24 C-27 24.99 -27 25.98 -27 27 C-27.99 27 -28.98 27 -30 27 C-30 31.95 -30 36.9 -30 42 C-29.01 42 -28.02 42 -27 42 C-27 42.99 -27 43.98 -27 45 C-26.01 45 -25.02 45 -24 45 C-24 45.99 -24 46.98 -24 48 C-23.01 48 -22.02 48 -21 48 C-21 50.97 -21 53.94 -21 57 C-21.99 57 -22.98 57 -24 57 C-24 57.99 -24 58.98 -24 60 C-25.98 60 -27.96 60 -30 60 C-30 60.99 -30 61.98 -30 63 C-32.97 63 -35.94 63 -39 63 C-39 62.01 -39 61.02 -39 60 C-37.02 60 -35.04 60 -33 60 C-33 59.01 -33 58.02 -33 57 C-32.01 57 -31.02 57 -30 57 C-30 55.02 -30 53.04 -30 51 C-31.98 51 -33.96 51 -36 51 C-36 50.01 -36 49.02 -36 48 C-36.99 48 -37.98 48 -39 48 C-39 47.01 -39 46.02 -39 45 C-39.99 45 -40.98 45 -42 45 C-42 44.01 -42 43.02 -42 42 C-43.98 42 -45.96 42 -48 42 C-48 37.05 -48 32.1 -48 27 C-47.01 27 -46.02 27 -45 27 C-45 26.01 -45 25.02 -45 24 C-44.01 24 -43.02 24 -42 24 C-42 23.01 -42 22.02 -42 21 C-41.01 21 -40.02 21 -39 21 C-39 20.01 -39 19.02 -39 18 C-38.01 18 -37.02 18 -36 18 C-36 17.01 -36 16.02 -36 15 C-34.02 15 -32.04 15 -30 15 C-30 14.01 -30 13.02 -30 12 C-28.02 12 -26.04 12 -24 12 C-24 11.01 -24 10.02 -24 9 C-21.03 9 -18.06 9 -15 9 C-15 8.01 -15 7.02 -15 6 C-13.02 6 -11.04 6 -9 6 C-9 5.01 -9 4.02 -9 3 C-6.03 3 -3.06 3 0 3 C0 2.01 0 1.02 0 0 Z " fill="#AC3232" transform="translate(144,33)"/>
<path d="M0 0 C2.97 0 5.94 0 9 0 C9 0.99 9 1.98 9 3 C10.98 3 12.96 3 15 3 C15 3.99 15 4.98 15 6 C15.99 6 16.98 6 18 6 C18 6.99 18 7.98 18 9 C18.99 9 19.98 9 21 9 C21 14.94 21 20.88 21 27 C20.01 27 19.02 27 18 27 C18 27.99 18 28.98 18 30 C17.01 30 16.02 30 15 30 C15 30.99 15 31.98 15 33 C14.01 33 13.02 33 12 33 C12 33.99 12 34.98 12 36 C11.01 36 10.02 36 9 36 C9 36.99 9 37.98 9 39 C8.01 39 7.02 39 6 39 C6 39.99 6 40.98 6 42 C4.02 42 2.04 42 0 42 C0 42.99 0 43.98 0 45 C-1.98 45 -3.96 45 -6 45 C-6 45.99 -6 46.98 -6 48 C-7.98 48 -9.96 48 -12 48 C-12 48.99 -12 49.98 -12 51 C-14.97 51 -17.94 51 -21 51 C-21 51.99 -21 52.98 -21 54 C-22.98 54 -24.96 54 -27 54 C-27 53.01 -27 52.02 -27 51 C-26.01 51 -25.02 51 -24 51 C-24 50.01 -24 49.02 -24 48 C-22.02 48 -20.04 48 -18 48 C-18 47.01 -18 46.02 -18 45 C-16.02 45 -14.04 45 -12 45 C-12 44.01 -12 43.02 -12 42 C-11.01 42 -10.02 42 -9 42 C-9 41.01 -9 40.02 -9 39 C-8.01 39 -7.02 39 -6 39 C-6 38.01 -6 37.02 -6 36 C-5.01 36 -4.02 36 -3 36 C-3 35.01 -3 34.02 -3 33 C-2.01 33 -1.02 33 0 33 C0 32.01 0 31.02 0 30 C0.99 30 1.98 30 3 30 C3 29.01 3 28.02 3 27 C3.99 27 4.98 27 6 27 C6 26.01 6 25.02 6 24 C6.99 24 7.98 24 9 24 C9 22.02 9 20.04 9 18 C8.01 18 7.02 18 6 18 C6 17.01 6 16.02 6 15 C5.01 15 4.02 15 3 15 C3 14.01 3 13.02 3 12 C-0.96 12 -4.92 12 -9 12 C-9 12.99 -9 13.98 -9 15 C-10.98 15 -12.96 15 -15 15 C-15 14.01 -15 13.02 -15 12 C-14.01 12 -13.02 12 -12 12 C-12 10.02 -12 8.04 -12 6 C-10.02 6 -8.04 6 -6 6 C-6 5.01 -6 4.02 -6 3 C-4.02 3 -2.04 3 0 3 C0 2.01 0 1.02 0 0 Z " fill="#5B6EE1" transform="translate(171,72)"/>
<path d="M0 0 C1.98 0 3.96 0 6 0 C6 2.97 6 5.94 6 9 C6.99 9 7.98 9 9 9 C9 9.99 9 10.98 9 12 C9.99 12 10.98 12 12 12 C12 12.99 12 13.98 12 15 C17.94 15 23.88 15 30 15 C30 15.99 30 16.98 30 18 C37.92 18 45.84 18 54 18 C54 17.01 54 16.02 54 15 C60.93 15 67.86 15 75 15 C75 14.01 75 13.02 75 12 C76.98 12 78.96 12 81 12 C81 11.01 81 10.02 81 9 C82.98 9 84.96 9 87 9 C87 9.99 87 10.98 87 12 C86.01 12 85.02 12 84 12 C84 12.99 84 13.98 84 15 C83.01 15 82.02 15 81 15 C81 15.99 81 16.98 81 18 C80.01 18 79.02 18 78 18 C78 18.99 78 19.98 78 21 C75.03 21 72.06 21 69 21 C69 21.99 69 22.98 69 24 C65.04 24 61.08 24 57 24 C57 24.99 57 25.98 57 27 C47.1 27 37.2 27 27 27 C27 26.01 27 25.02 27 24 C23.04 24 19.08 24 15 24 C15 23.01 15 22.02 15 21 C12.03 21 9.06 21 6 21 C6 20.01 6 19.02 6 18 C5.01 18 4.02 18 3 18 C3 17.01 3 16.02 3 15 C2.01 15 1.02 15 0 15 C0 14.01 0 13.02 0 12 C-0.99 12 -1.98 12 -3 12 C-3 9.03 -3 6.06 -3 3 C-2.01 3 -1.02 3 0 3 C0 2.01 0 1.02 0 0 Z " fill="#5B6EE1" transform="translate(51,111)"/>
<path d="M0 0 C1.98 0 3.96 0 6 0 C6 2.97 6 5.94 6 9 C6.99 9 7.98 9 9 9 C9 9.99 9 10.98 9 12 C9.99 12 10.98 12 12 12 C12 12.99 12 13.98 12 15 C16.95 15 21.9 15 27 15 C27 15.99 27 16.98 27 18 C34.92 18 42.84 18 51 18 C51 17.01 51 16.02 51 15 C56.94 15 62.88 15 69 15 C69 14.01 69 13.02 69 12 C70.98 12 72.96 12 75 12 C75 11.01 75 10.02 75 9 C76.98 9 78.96 9 81 9 C81 9.99 81 10.98 81 12 C80.01 12 79.02 12 78 12 C78 12.99 78 13.98 78 15 C77.01 15 76.02 15 75 15 C75 15.99 75 16.98 75 18 C74.01 18 73.02 18 72 18 C72 18.99 72 19.98 72 21 C70.02 21 68.04 21 66 21 C66 21.99 66 22.98 66 24 C62.04 24 58.08 24 54 24 C54 24.99 54 25.98 54 27 C44.1 27 34.2 27 24 27 C24 26.01 24 25.02 24 24 C21.03 24 18.06 24 15 24 C15 23.01 15 22.02 15 21 C12.03 21 9.06 21 6 21 C6 20.01 6 19.02 6 18 C5.01 18 4.02 18 3 18 C3 17.01 3 16.02 3 15 C2.01 15 1.02 15 0 15 C0 14.01 0 13.02 0 12 C-0.99 12 -1.98 12 -3 12 C-3 9.03 -3 6.06 -3 3 C-2.01 3 -1.02 3 0 3 C0 2.01 0 1.02 0 0 Z " fill="#5B6EE1" transform="translate(54,135)"/>
<path d="M0 0 C0.99 0 1.98 0 3 0 C3 0.99 3 1.98 3 3 C2.01 3 1.02 3 0 3 C0 2.01 0 1.02 0 0 Z " fill="#AC3232" transform="translate(102,96)"/>
<path d="M0 0 C0.99 0 1.98 0 3 0 C3 0.99 3 1.98 3 3 C2.01 3 1.02 3 0 3 C0 2.01 0 1.02 0 0 Z " fill="#AC3232" transform="translate(96,87)"/>
<path d="M0 0 C0.99 0 1.98 0 3 0 C3 0.99 3 1.98 3 3 C2.01 3 1.02 3 0 3 C0 2.01 0 1.02 0 0 Z " fill="#AC3232" transform="translate(150,30)"/>
</svg>
