<?xml version="1.0" encoding="UTF-8"?>
<!-- Generator: visioncortex VTracer -->
<svg id="svg" version="1.1" xmlns="http://www.w3.org/2000/svg" style="display: block;" viewBox="0 0 512 512"><path d="M0 0 C89.43 0 178.86 0 271 0 C271 89.43 271 178.86 271 271 C251.2 271 231.4 271 211 271 C211 261.1 211 251.2 211 241 C201.1 241 191.2 241 181 241 C181 221.2 181 201.4 181 181 C171.1 181 161.2 181 151 181 C151 250.63 151 320.26 151 392 C130.87 392 110.74 392 90 392 C90 381.77 90 371.54 90 361 C80.1 361 70.2 361 60 361 C60 351.1 60 341.2 60 331 C50.1 331 40.2 331 30 331 C30 390.73 30 450.46 30 512 C10.2 512 -9.6 512 -30 512 C-30 502.1 -30 492.2 -30 482 C-39.9 482 -49.8 482 -60 482 C-60 472.1 -60 462.2 -60 452 C-69.9 452 -79.8 452 -90 452 C-90 421.97 -90 391.94 -90 361 C-120.03 361 -150.06 361 -181 361 C-181 351.1 -181 341.2 -181 331 C-190.9 331 -200.8 331 -211 331 C-211 321.1 -211 311.2 -211 301 C-220.9 301 -230.8 301 -241 301 C-241 281.2 -241 261.4 -241 241 C-181.27 241 -121.54 241 -60 241 C-60 231.1 -60 221.2 -60 211 C-69.9 211 -79.8 211 -90 211 C-90 201.1 -90 191.2 -90 181 C-100.23 181 -110.46 181 -121 181 C-121 160.87 -121 140.74 -121 120 C-51.37 120 18.26 120 90 120 C90 110.1 90 100.2 90 90 C70.2 90 50.4 90 30 90 C30 80.1 30 70.2 30 60 C20.1 60 10.2 60 0 60 C0 40.2 0 20.4 0 0 Z " transform="translate(241,0)" style="fill: #00A1FF;"/><path d="M0 0 C89.43 0 178.86 0 271 0 C271 89.43 271 178.86 271 271 C251.2 271 231.4 271 211 271 C211 261.1 211 251.2 211 241 C201.1 241 191.2 241 181 241 C181 221.2 181 201.4 181 181 C171.1 181 161.2 181 151 181 C151 160.87 151 140.74 151 120 C130.87 120 110.74 120 90 120 C90 110.1 90 100.2 90 90 C70.2 90 50.4 90 30 90 C30 80.1 30 70.2 30 60 C20.1 60 10.2 60 0 60 C0 40.2 0 20.4 0 0 Z " transform="translate(241,0)" style="fill: #00A7FF;"/><path d="M0 0 C59.73 0 119.46 0 181 0 C181 59.73 181 119.46 181 181 C170.77 181 160.54 181 150 181 C150 171.1 150 161.2 150 151 C140.1 151 130.2 151 120 151 C120 141.1 120 131.2 120 121 C110.1 121 100.2 121 90 121 C90 111.1 90 101.2 90 91 C80.1 91 70.2 91 60 91 C60 81.1 60 71.2 60 61 C50.1 61 40.2 61 30 61 C30 51.1 30 41.2 30 31 C20.1 31 10.2 31 0 31 C0 20.77 0 10.54 0 0 Z " transform="translate(211,120)" style="fill: #0090FF;"/><path d="M0 0 C49.83 0 99.66 0 151 0 C151 49.83 151 99.66 151 151 C141.1 151 131.2 151 121 151 C121 130.87 121 110.74 121 90 C111.1 90 101.2 90 91 90 C91 80.1 91 70.2 91 60 C71.2 60 51.4 60 31 60 C31 50.1 31 40.2 31 30 C20.77 30 10.54 30 0 30 C0 20.1 0 10.2 0 0 Z " transform="translate(120,241)" style="fill: #0072FF;"/><path d="M0 0 C9.9 0 19.8 0 30 0 C30 10.23 30 20.46 30 31 C39.9 31 49.8 31 60 31 C60 40.9 60 50.8 60 61 C69.9 61 79.8 61 90 61 C90 70.9 90 80.8 90 91 C99.9 91 109.8 91 120 91 C120 110.8 120 130.6 120 151 C100.2 151 80.4 151 60 151 C60 141.1 60 131.2 60 121 C50.1 121 40.2 121 30 121 C30 111.1 30 101.2 30 91 C20.1 91 10.2 91 0 91 C0 60.97 0 30.94 0 0 Z " transform="translate(151,361)" style="fill: #00A7FF;"/><path d="M0 0 C39.93 0 79.86 0 121 0 C121 39.93 121 79.86 121 121 C110.77 121 100.54 121 90 121 C90 111.1 90 101.2 90 91 C80.1 91 70.2 91 60 91 C60 81.1 60 71.2 60 61 C50.1 61 40.2 61 30 61 C30 51.1 30 41.2 30 31 C20.1 31 10.2 31 0 31 C0 20.77 0 10.54 0 0 Z " transform="translate(271,120)" style="fill: #0076FF;"/><path d="M0 0 C20.13 0 40.26 0 61 0 C61 20.13 61 40.26 61 61 C50.77 61 40.54 61 30 61 C30 51.1 30 41.2 30 31 C20.1 31 10.2 31 0 31 C0 20.77 0 10.54 0 0 Z " transform="translate(331,120)" style="fill: #005FFF;"/><path d="M0 0 C20.13 0 40.26 0 61 0 C61 19.8 61 39.6 61 60 C51.1 60 41.2 60 31 60 C31 50.1 31 40.2 31 30 C20.77 30 10.54 30 0 30 C0 20.1 0 10.2 0 0 Z " transform="translate(120,241)" style="fill: #0080FF;"/><path d="M0 0 C19.8 0 39.6 0 60 0 C60 19.8 60 39.6 60 60 C50.1 60 40.2 60 30 60 C30 50.1 30 40.2 30 30 C20.1 30 10.2 30 0 30 C0 20.1 0 10.2 0 0 Z " transform="translate(211,241)" style="fill: #005FFF;"/><path d="M0 0 C9.9 0 19.8 0 30 0 C30 10.23 30 20.46 30 31 C20.1 31 10.2 31 0 31 C0 20.77 0 10.54 0 0 Z " transform="translate(241,361)" style="fill: #0083FF;"/></svg>