<?xml version="1.0" encoding="UTF-8"?>
<svg version="1.1" viewBox="0 0 200 200" xmlns="http://www.w3.org/2000/svg">
<path d="M0 0 C55.44 0 110.88 0 168 0 C168 7.92 168 15.84 168 24 C167.01 24 166.02 24 165 24 C165 30.93 165 37.86 165 45 C164.01 45 163.02 45 162 45 C162 51.93 162 58.86 162 66 C161.01 66 160.02 66 159 66 C159 71.94 159 77.88 159 84 C158.01 84 157.02 84 156 84 C156 90.93 156 97.86 156 105 C155.01 105 154.02 105 153 105 C153 111.93 153 118.86 153 126 C152.01 126 151.02 126 150 126 C150 129.96 150 133.92 150 138 C149.01 138 148.02 138 147 138 C147 138.99 147 139.98 147 141 C145.02 141 143.04 141 141 141 C141 141.99 141 142.98 141 144 C137.04 144 133.08 144 129 144 C129 144.99 129 145.98 129 147 C126.03 147 123.06 147 120 147 C120 147.99 120 148.98 120 150 C116.04 150 112.08 150 108 150 C108 150.99 108 151.98 108 153 C105.03 153 102.06 153 99 153 C99 153.99 99 154.98 99 156 C95.04 156 91.08 156 87 156 C87 156.99 87 157.98 87 159 C85.02 159 83.04 159 81 159 C81 158.01 81 157.02 81 156 C77.04 156 73.08 156 69 156 C69 155.01 69 154.02 69 153 C66.03 153 63.06 153 60 153 C60 152.01 60 151.02 60 150 C56.04 150 52.08 150 48 150 C48 149.01 48 148.02 48 147 C45.03 147 42.06 147 39 147 C39 146.01 39 145.02 39 144 C35.04 144 31.08 144 27 144 C27 143.01 27 142.02 27 141 C25.02 141 23.04 141 21 141 C21 140.01 21 139.02 21 138 C20.01 138 19.02 138 18 138 C18 134.04 18 130.08 18 126 C17.01 126 16.02 126 15 126 C15 119.07 15 112.14 15 105 C14.01 105 13.02 105 12 105 C12 98.07 12 91.14 12 84 C11.01 84 10.02 84 9 84 C9 78.06 9 72.12 9 66 C8.01 66 7.02 66 6 66 C6 59.07 6 52.14 6 45 C5.01 45 4.02 45 3 45 C3 38.07 3 31.14 3 24 C2.01 24 1.02 24 0 24 C0 16.08 0 8.16 0 0 Z " fill="#F2D541" transform="translate(12,33)"/>
<path d="M0 0 C55.44 0 110.88 0 168 0 C168 7.92 168 15.84 168 24 C167.01 24 166.02 24 165 24 C165 30.93 165 37.86 165 45 C164.01 45 163.02 45 162 45 C162 51.93 162 58.86 162 66 C161.01 66 160.02 66 159 66 C159 71.94 159 77.88 159 84 C158.01 84 157.02 84 156 84 C156 90.93 156 97.86 156 105 C155.01 105 154.02 105 153 105 C153 111.93 153 118.86 153 126 C152.01 126 151.02 126 150 126 C150 129.96 150 133.92 150 138 C149.01 138 148.02 138 147 138 C147 138.99 147 139.98 147 141 C145.02 141 143.04 141 141 141 C141 141.99 141 142.98 141 144 C137.04 144 133.08 144 129 144 C129 144.99 129 145.98 129 147 C126.03 147 123.06 147 120 147 C120 147.99 120 148.98 120 150 C116.04 150 112.08 150 108 150 C108 150.99 108 151.98 108 153 C105.03 153 102.06 153 99 153 C99 153.99 99 154.98 99 156 C95.04 156 91.08 156 87 156 C87 156.99 87 157.98 87 159 C85.02 159 83.04 159 81 159 C81 158.01 81 157.02 81 156 C77.04 156 73.08 156 69 156 C69 155.01 69 154.02 69 153 C66.03 153 63.06 153 60 153 C60 152.01 60 151.02 60 150 C56.04 150 52.08 150 48 150 C48 149.01 48 148.02 48 147 C45.03 147 42.06 147 39 147 C39 146.01 39 145.02 39 144 C35.04 144 31.08 144 27 144 C27 143.01 27 142.02 27 141 C25.02 141 23.04 141 21 141 C21 140.01 21 139.02 21 138 C20.01 138 19.02 138 18 138 C18 134.04 18 130.08 18 126 C17.01 126 16.02 126 15 126 C15 119.07 15 112.14 15 105 C14.01 105 13.02 105 12 105 C12 98.07 12 91.14 12 84 C11.01 84 10.02 84 9 84 C9 78.06 9 72.12 9 66 C8.01 66 7.02 66 6 66 C6 59.07 6 52.14 6 45 C5.01 45 4.02 45 3 45 C3 38.07 3 31.14 3 24 C2.01 24 1.02 24 0 24 C0 16.08 0 8.16 0 0 Z M15 15 C15 17.97 15 20.94 15 24 C15.99 24 16.98 24 18 24 C18 29.94 18 35.88 18 42 C18.99 42 19.98 42 21 42 C21 47.94 21 53.88 21 60 C21.99 60 22.98 60 24 60 C24 65.94 24 71.88 24 78 C24.99 78 25.98 78 27 78 C27 83.94 27 89.88 27 96 C27.99 96 28.98 96 30 96 C30 101.94 30 107.88 30 114 C30.99 114 31.98 114 33 114 C33 117.96 33 121.92 33 126 C34.98 126 36.96 126 39 126 C39 126.99 39 127.98 39 129 C41.97 129 44.94 129 48 129 C48 129.99 48 130.98 48 132 C51.96 132 55.92 132 60 132 C60 132.99 60 133.98 60 135 C62.97 135 65.94 135 69 135 C69 135.99 69 136.98 69 138 C71.97 138 74.94 138 78 138 C78 138.99 78 139.98 78 141 C81.96 141 85.92 141 90 141 C90 140.01 90 139.02 90 138 C92.97 138 95.94 138 99 138 C99 137.01 99 136.02 99 135 C101.97 135 104.94 135 108 135 C108 134.01 108 133.02 108 132 C111.96 132 115.92 132 120 132 C120 131.01 120 130.02 120 129 C122.97 129 125.94 129 129 129 C129 128.01 129 127.02 129 126 C130.98 126 132.96 126 135 126 C135 122.04 135 118.08 135 114 C135.99 114 136.98 114 138 114 C138 108.06 138 102.12 138 96 C138.99 96 139.98 96 141 96 C141 90.06 141 84.12 141 78 C141.99 78 142.98 78 144 78 C144 72.06 144 66.12 144 60 C144.99 60 145.98 60 147 60 C147 54.06 147 48.12 147 42 C147.99 42 148.98 42 150 42 C150 36.06 150 30.12 150 24 C150.99 24 151.98 24 153 24 C153 21.03 153 18.06 153 15 C107.46 15 61.92 15 15 15 Z " fill="#DEC02C" transform="translate(12,33)"/>
<path d="M0 0 C22.77 0 45.54 0 69 0 C69 41.58 69 83.16 69 126 C67.02 126 65.04 126 63 126 C63 125.01 63 124.02 63 123 C60.03 123 57.06 123 54 123 C54 122.01 54 121.02 54 120 C51.03 120 48.06 120 45 120 C45 119.01 45 118.02 45 117 C41.04 117 37.08 117 33 117 C33 116.01 33 115.02 33 114 C30.03 114 27.06 114 24 114 C24 113.01 24 112.02 24 111 C22.02 111 20.04 111 18 111 C18 107.04 18 103.08 18 99 C17.01 99 16.02 99 15 99 C15 93.06 15 87.12 15 81 C14.01 81 13.02 81 12 81 C12 75.06 12 69.12 12 63 C11.01 63 10.02 63 9 63 C9 57.06 9 51.12 9 45 C8.01 45 7.02 45 6 45 C6 39.06 6 33.12 6 27 C5.01 27 4.02 27 3 27 C3 21.06 3 15.12 3 9 C2.01 9 1.02 9 0 9 C0 6.03 0 3.06 0 0 Z " fill="#DBC13B" transform="translate(27,48)"/>
<path d="M0 0 C27.72 0 55.44 0 84 0 C84 4.95 84 9.9 84 15 C61.23 15 38.46 15 15 15 C15 17.97 15 20.94 15 24 C15.99 24 16.98 24 18 24 C18 29.94 18 35.88 18 42 C18.99 42 19.98 42 21 42 C21 47.94 21 53.88 21 60 C21.99 60 22.98 60 24 60 C24 65.94 24 71.88 24 78 C24.99 78 25.98 78 27 78 C27 83.94 27 89.88 27 96 C27.99 96 28.98 96 30 96 C30 101.94 30 107.88 30 114 C30.99 114 31.98 114 33 114 C33 117.96 33 121.92 33 126 C34.98 126 36.96 126 39 126 C39 126.99 39 127.98 39 129 C41.97 129 44.94 129 48 129 C48 129.99 48 130.98 48 132 C51.96 132 55.92 132 60 132 C60 132.99 60 133.98 60 135 C62.97 135 65.94 135 69 135 C69 135.99 69 136.98 69 138 C71.97 138 74.94 138 78 138 C78 138.99 78 139.98 78 141 C79.98 141 81.96 141 84 141 C84 146.94 84 152.88 84 159 C83.01 159 82.02 159 81 159 C81 158.01 81 157.02 81 156 C77.04 156 73.08 156 69 156 C69 155.01 69 154.02 69 153 C66.03 153 63.06 153 60 153 C60 152.01 60 151.02 60 150 C56.04 150 52.08 150 48 150 C48 149.01 48 148.02 48 147 C45.03 147 42.06 147 39 147 C39 146.01 39 145.02 39 144 C35.04 144 31.08 144 27 144 C27 143.01 27 142.02 27 141 C25.02 141 23.04 141 21 141 C21 140.01 21 139.02 21 138 C20.01 138 19.02 138 18 138 C18 134.04 18 130.08 18 126 C17.01 126 16.02 126 15 126 C15 119.07 15 112.14 15 105 C14.01 105 13.02 105 12 105 C12 98.07 12 91.14 12 84 C11.01 84 10.02 84 9 84 C9 78.06 9 72.12 9 66 C8.01 66 7.02 66 6 66 C6 59.07 6 52.14 6 45 C5.01 45 4.02 45 3 45 C3 38.07 3 31.14 3 24 C2.01 24 1.02 24 0 24 C0 16.08 0 8.16 0 0 Z " fill="#C2A723" transform="translate(12,33)"/>
<path d="M0 0 C17.82 0 35.64 0 54 0 C54 2.97 54 5.94 54 9 C53.01 9 52.02 9 51 9 C51 11.97 51 14.94 51 18 C40.11 18 29.22 18 18 18 C18 23.94 18 29.88 18 36 C22.95 36 27.9 36 33 36 C33 35.01 33 34.02 33 33 C37.95 33 42.9 33 48 33 C48 37.95 48 42.9 48 48 C47.01 48 46.02 48 45 48 C45 53.94 45 59.88 45 66 C44.01 66 43.02 66 42 66 C42 68.97 42 71.94 42 75 C41.01 75 40.02 75 39 75 C39 77.97 39 80.94 39 84 C38.01 84 37.02 84 36 84 C36 84.99 36 85.98 36 87 C34.02 87 32.04 87 30 87 C30 87.99 30 88.98 30 90 C28.02 90 26.04 90 24 90 C24 90.99 24 91.98 24 93 C22.02 93 20.04 93 18 93 C18 93.99 18 94.98 18 96 C15.03 96 12.06 96 9 96 C9 96.99 9 97.98 9 99 C6.03 99 3.06 99 0 99 C0 93.06 0 87.12 0 81 C2.97 81 5.94 81 9 81 C9 80.01 9 79.02 9 78 C11.97 78 14.94 78 18 78 C18 77.01 18 76.02 18 75 C19.98 75 21.96 75 24 75 C24 74.01 24 73.02 24 72 C24.99 72 25.98 72 27 72 C27 71.01 27 70.02 27 69 C27.99 69 28.98 69 30 69 C30 65.04 30 61.08 30 57 C30.99 57 31.98 57 33 57 C33 55.02 33 53.04 33 51 C27.06 51 21.12 51 15 51 C15 51.99 15 52.98 15 54 C10.05 54 5.1 54 0 54 C0 36.18 0 18.36 0 0 Z " fill="#FFFFFF" transform="translate(99,63)"/>
<path d="M0 0 C5.94 0 11.88 0 18 0 C18 32.67 18 65.34 18 99 C15.03 99 12.06 99 9 99 C9 98.01 9 97.02 9 96 C6.03 96 3.06 96 0 96 C0 95.01 0 94.02 0 93 C-1.98 93 -3.96 93 -6 93 C-6 92.01 -6 91.02 -6 90 C-7.98 90 -9.96 90 -12 90 C-12 89.01 -12 88.02 -12 87 C-13.98 87 -15.96 87 -18 87 C-18 86.01 -18 85.02 -18 84 C-18.99 84 -19.98 84 -21 84 C-21 81.03 -21 78.06 -21 75 C-21.99 75 -22.98 75 -24 75 C-24 70.05 -24 65.1 -24 60 C-18.06 60 -12.12 60 -6 60 C-6 63.96 -6 67.92 -6 72 C-5.01 72 -4.02 72 -3 72 C-3 72.99 -3 73.98 -3 75 C-2.01 75 -1.02 75 0 75 C0 50.25 0 25.5 0 0 Z " fill="#E3E3E3" transform="translate(75,63)"/>
</svg>
