<?xml version="1.0" encoding="UTF-8"?>
<!-- Generator: visioncortex VTracer -->
<svg id="svg" version="1.1" xmlns="http://www.w3.org/2000/svg" style="display: block;" viewBox="0 0 512 512"><path d="M0 0 C2.31 0 4.62 0 7 0 C7 2.31 7 4.62 7 7 C9.31 7 11.62 7 14 7 C14 9.31 14 11.62 14 14 C18.62 14 23.24 14 28 14 C28 18.62 28 23.24 28 28 C34.6 28 41.2 28 48 28 C48 30.31 48 32.62 48 35 C52.62 35 57.24 35 62 35 C62 37.31 62 39.62 62 42 C68.93 42 75.86 42 83 42 C83 44.31 83 46.62 83 49 C87.62 49 92.24 49 97 49 C97 51.31 97 53.62 97 56 C140.23 56 183.46 56 228 56 C228 53.69 228 51.38 228 49 C234.93 49 241.86 49 249 49 C249 46.69 249 44.38 249 42 C255.93 42 262.86 42 270 42 C270 39.69 270 37.38 270 35 C274.62 35 279.24 35 284 35 C284 32.69 284 30.38 284 28 C288.29 28 292.58 28 297 28 C297 25.69 297 23.38 297 21 C299.31 21 301.62 21 304 21 C304 18.69 304 16.38 304 14 C308.62 14 313.24 14 318 14 C318 11.69 318 9.38 318 7 C320.31 7 322.62 7 325 7 C325 11.62 325 16.24 325 21 C322.69 21 320.38 21 318 21 C318 25.62 318 30.24 318 35 C315.69 35 313.38 35 311 35 C311 37.31 311 39.62 311 42 C308.69 42 306.38 42 304 42 C304 44.31 304 46.62 304 49 C301.69 49 299.38 49 297 49 C297 53.62 297 58.24 297 63 C292.71 63 288.42 63 284 63 C284 65.31 284 67.62 284 70 C281.69 70 279.38 70 277 70 C277 71.98 277 73.96 277 76 C274.69 76 272.38 76 270 76 C270 78.31 270 80.62 270 83 C265.38 83 260.76 83 256 83 C256 85.31 256 87.62 256 90 C251.38 90 246.76 90 242 90 C242 92.31 242 94.62 242 97 C239.69 97 237.38 97 235 97 C235 99.31 235 101.62 235 104 C228.07 104 221.14 104 214 104 C214 106.31 214 108.62 214 111 C181.99 111 149.98 111 117 111 C117 108.69 117 106.38 117 104 C110.4 104 103.8 104 97 104 C97 101.69 97 99.38 97 97 C94.69 97 92.38 97 90 97 C90 94.69 90 92.38 90 90 C83.07 90 76.14 90 69 90 C69 87.69 69 85.38 69 83 C66.69 83 64.38 83 62 83 C62 80.69 62 78.38 62 76 C59.69 76 57.38 76 55 76 C55 74.02 55 72.04 55 70 C52.69 70 50.38 70 48 70 C48 67.69 48 65.38 48 63 C45.69 63 43.38 63 41 63 C41 60.69 41 58.38 41 56 C36.71 56 32.42 56 28 56 C28 51.38 28 46.76 28 42 C25.69 42 23.38 42 21 42 C21 39.69 21 37.38 21 35 C18.69 35 16.38 35 14 35 C14 30.38 14 25.76 14 21 C11.69 21 9.38 21 7 21 C7 18.69 7 16.38 7 14 C4.69 14 2.38 14 0 14 C0 9.38 0 4.76 0 0 Z " transform="translate(97,311)" fill="currentColor"/><path d="M0 0 C27.39 0 54.78 0 83 0 C83 2.31 83 4.62 83 7 C87.62 7 92.24 7 97 7 C97 9.31 97 11.62 97 14 C103.93 14 110.86 14 118 14 C118 16.31 118 18.62 118 21 C122.62 21 127.24 21 132 21 C132 23.31 132 25.62 132 28 C136.62 28 141.24 28 146 28 C146 30.31 146 32.62 146 35 C148.31 35 150.62 35 153 35 C153 37.31 153 39.62 153 42 C155.31 42 157.62 42 160 42 C160 44.31 160 46.62 160 49 C161.98 49 163.96 49 166 49 C166 51.31 166 53.62 166 56 C168.31 56 170.62 56 173 56 C173 57.98 173 59.96 173 62 C175.31 62 177.62 62 180 62 C180 64.31 180 66.62 180 69 C182.31 69 184.62 69 187 69 C187 71.31 187 73.62 187 76 C189.31 76 191.62 76 194 76 C194 80.62 194 85.24 194 90 C196.31 90 198.62 90 201 90 C201 94.62 201 99.24 201 104 C198.69 104 196.38 104 194 104 C194 101.69 194 99.38 194 97 C189.38 97 184.76 97 180 97 C180 94.69 180 92.38 180 90 C175.38 90 170.76 90 166 90 C166 87.69 166 85.38 166 83 C164.02 83 162.04 83 160 83 C160 80.69 160 78.38 160 76 C155.38 76 150.76 76 146 76 C146 73.69 146 71.38 146 69 C136.76 69 127.52 69 118 69 C118 66.69 118 64.38 118 62 C113.38 62 108.76 62 104 62 C104 60.02 104 58.04 104 56 C63.08 56 22.16 56 -20 56 C-20 57.98 -20 59.96 -20 62 C-24.62 62 -29.24 62 -34 62 C-34 64.31 -34 66.62 -34 69 C-43.24 69 -52.48 69 -62 69 C-62 71.31 -62 73.62 -62 76 C-66.62 76 -71.24 76 -76 76 C-76 78.31 -76 80.62 -76 83 C-78.31 83 -80.62 83 -83 83 C-83 85.31 -83 87.62 -83 90 C-87.29 90 -91.58 90 -96 90 C-96 92.31 -96 94.62 -96 97 C-100.62 97 -105.24 97 -110 97 C-110 99.31 -110 101.62 -110 104 C-112.31 104 -114.62 104 -117 104 C-117 106.31 -117 108.62 -117 111 C-119.31 111 -121.62 111 -124 111 C-124 106.38 -124 101.76 -124 97 C-121.69 97 -119.38 97 -117 97 C-117 94.69 -117 92.38 -117 90 C-114.69 90 -112.38 90 -110 90 C-110 85.38 -110 80.76 -110 76 C-107.69 76 -105.38 76 -103 76 C-103 73.69 -103 71.38 -103 69 C-100.69 69 -98.38 69 -96 69 C-96 64.71 -96 60.42 -96 56 C-91.71 56 -87.42 56 -83 56 C-83 53.69 -83 51.38 -83 49 C-80.69 49 -78.38 49 -76 49 C-76 46.69 -76 44.38 -76 42 C-73.69 42 -71.38 42 -69 42 C-69 39.69 -69 37.38 -69 35 C-66.69 35 -64.38 35 -62 35 C-62 32.69 -62 30.38 -62 28 C-57.38 28 -52.76 28 -48 28 C-48 25.69 -48 23.38 -48 21 C-43.38 21 -38.76 21 -34 21 C-34 18.69 -34 16.38 -34 14 C-27.07 14 -20.14 14 -13 14 C-13 11.69 -13 9.38 -13 7 C-8.71 7 -4.42 7 0 7 C0 4.69 0 2.38 0 0 Z " transform="translate(221,69)" fill="currentColor"/><path d="M0 0 C11.22 0 22.44 0 34 0 C34 2.31 34 4.62 34 7 C38.62 7 43.24 7 48 7 C48 9.31 48 11.62 48 14 C50.31 14 52.62 14 55 14 C55 23.24 55 32.48 55 42 C52.69 42 50.38 42 48 42 C48 46.29 48 50.58 48 55 C43.38 55 38.76 55 34 55 C34 57.31 34 59.62 34 62 C22.78 62 11.56 62 0 62 C0 59.69 0 57.38 0 55 C-2.31 55 -4.62 55 -7 55 C-7 53.02 -7 51.04 -7 49 C-9.31 49 -11.62 49 -14 49 C-14 37.45 -14 25.9 -14 14 C-11.69 14 -9.38 14 -7 14 C-7 11.69 -7 9.38 -7 7 C-4.69 7 -2.38 7 0 7 C0 4.69 0 2.38 0 0 Z " transform="translate(111,415)" fill="currentColor"/><path d="M0 0 C13.53 0 27.06 0 41 0 C41 4.29 41 8.58 41 13 C43.31 13 45.62 13 48 13 C48 19.93 48 26.86 48 34 C45.69 34 43.38 34 41 34 C41 38.62 41 43.24 41 48 C36.38 48 31.76 48 27 48 C27 50.31 27 52.62 27 55 C20.4 55 13.8 55 7 55 C7 52.69 7 50.38 7 48 C4.69 48 2.38 48 0 48 C0 45.69 0 43.38 0 41 C-2.31 41 -4.62 41 -7 41 C-7 29.78 -7 18.56 -7 7 C-4.69 7 -2.38 7 0 7 C0 4.69 0 2.38 0 0 Z " transform="translate(374,35)" fill="currentColor"/><path d="M0 0 C9.24 0 18.48 0 28 0 C28 4.62 28 9.24 28 14 C30.31 14 32.62 14 35 14 C35 16.31 35 18.62 35 21 C32.69 21 30.38 21 28 21 C28 25.62 28 30.24 28 35 C25.69 35 23.38 35 21 35 C21 37.31 21 39.62 21 42 C16.38 42 11.76 42 7 42 C7 39.69 7 37.38 7 35 C2.38 35 -2.24 35 -7 35 C-7 25.76 -7 16.52 -7 7 C-4.69 7 -2.38 7 0 7 C0 4.69 0 2.38 0 0 Z " transform="translate(90,76)" fill="currentColor"/><path d="M0 0 C2.31 0 4.62 0 7 0 C7 4.62 7 9.24 7 14 C4.69 14 2.38 14 0 14 C0 9.38 0 4.76 0 0 Z " transform="translate(422,173)" fill="currentColor"/><path d="M0 0 C2.31 0 4.62 0 7 0 C7 2.31 7 4.62 7 7 C4.69 7 2.38 7 0 7 C0 4.69 0 2.38 0 0 Z " transform="translate(159,429)" fill="currentColor"/><path d="M0 0 C2.31 0 4.62 0 7 0 C7 2.31 7 4.62 7 7 C4.69 7 2.38 7 0 7 C0 4.69 0 2.38 0 0 Z " transform="translate(214,415)" fill="currentColor"/><path d="M0 0 C2.31 0 4.62 0 7 0 C7 2.31 7 4.62 7 7 C4.69 7 2.38 7 0 7 C0 4.69 0 2.38 0 0 Z " transform="translate(166,394)" fill="currentColor"/><path d="M0 0 C2.31 0 4.62 0 7 0 C7 2.31 7 4.62 7 7 C4.69 7 2.38 7 0 7 C0 4.69 0 2.38 0 0 Z " transform="translate(138,339)" fill="currentColor"/><path d="M0 0 C2.31 0 4.62 0 7 0 C7 2.31 7 4.62 7 7 C4.69 7 2.38 7 0 7 C0 4.69 0 2.38 0 0 Z " transform="translate(422,311)" fill="currentColor"/><path d="M0 0 C2.31 0 4.62 0 7 0 C7 2.31 7 4.62 7 7 C4.69 7 2.38 7 0 7 C0 4.69 0 2.38 0 0 Z " transform="translate(152,104)"fill="currentColor"/><path d="M0 0 C2.31 0 4.62 0 7 0 C7 2.31 7 4.62 7 7 C4.69 7 2.38 7 0 7 C0 4.69 0 2.38 0 0 Z " transform="translate(83,104)" fill="currentColor"/><path d="M0 0 C2.31 0 4.62 0 7 0 C7 2.31 7 4.62 7 7 C4.69 7 2.38 7 0 7 C0 4.69 0 2.38 0 0 Z " transform="translate(111,76)" fill="currentColor"/><path d="M0 0 C2.31 0 4.62 0 7 0 C7 2.31 7 4.62 7 7 C4.69 7 2.38 7 0 7 C0 4.69 0 2.38 0 0 Z " transform="translate(367,69)" fill="currentColor"/><path d="M0 0 C1.98 0 3.96 0 6 0 C6 2.31 6 4.62 6 7 C4.02 7 2.04 7 0 7 C0 4.69 0 2.38 0 0 Z " transform="translate(381,83)" fill="currentColor"/></svg>