<?xml version="1.0" encoding="UTF-8"?>
<svg version="1.1" xmlns="http://www.w3.org/2000/svg" width="512" height="512" viewBox="0 0 600 500">
<path d="M0 0 C14.85 0 29.7 0 45 0 C45 3.63 45 7.26 45 11 C52.26 11 59.52 11 67 11 C67 14.63 67 18.26 67 22 C74.26 22 81.52 22 89 22 C89 25.63 89 29.26 89 33 C107.48 33 125.96 33 145 33 C145 36.96 145 40.92 145 45 C155.89 45 166.78 45 178 45 C178 48.63 178 52.26 178 56 C181.63 56 185.26 56 189 56 C189 59.63 189 63.26 189 67 C196.59 67 204.18 67 212 67 C212 70.63 212 74.26 212 78 C219.26 78 226.52 78 234 78 C234 81.63 234 85.26 234 89 C237.63 89 241.26 89 245 89 C245 92.63 245 96.26 245 100 C248.63 100 252.26 100 256 100 C256 103.63 256 107.26 256 111 C259.63 111 263.26 111 267 111 C267 114.63 267 118.26 267 122 C270.63 122 274.26 122 278 122 C278 125.96 278 129.92 278 134 C281.96 134 285.92 134 290 134 C290 141.26 290 148.52 290 156 C293.63 156 297.26 156 301 156 C301 159.63 301 163.26 301 167 C304.63 167 308.26 167 312 167 C312 170.63 312 174.26 312 178 C315.63 178 319.26 178 323 178 C323 188.89 323 199.78 323 211 C326.63 211 330.26 211 334 211 C334 218.59 334 226.18 334 234 C337.63 234 341.26 234 345 234 C345 237.63 345 241.26 345 245 C348.63 245 352.26 245 356 245 C356 252.26 356 259.52 356 267 C359.63 267 363.26 267 367 267 C367 278.22 367 289.44 367 301 C374.59 301 382.18 301 390 301 C390 304.63 390 308.26 390 312 C397.26 312 404.52 312 412 312 C412 315.63 412 319.26 412 323 C419.26 323 426.52 323 434 323 C434 326.63 434 330.26 434 334 C441.26 334 448.52 334 456 334 C456 337.63 456 341.26 456 345 C459.96 345 463.92 345 468 345 C468 348.63 468 352.26 468 356 C471.63 356 475.26 356 479 356 C479 359.63 479 363.26 479 367 C482.63 367 486.26 367 490 367 C490 370.63 490 374.26 490 378 C493.63 378 497.26 378 501 378 C501 385.59 501 393.18 501 401 C497.37 401 493.74 401 490 401 C490 404.63 490 408.26 490 412 C482.74 412 475.48 412 468 412 C468 415.63 468 419.26 468 423 C453.15 423 438.3 423 423 423 C423 426.63 423 430.26 423 434 C426.63 434 430.26 434 434 434 C434 437.63 434 441.26 434 445 C441.26 445 448.52 445 456 445 C456 448.63 456 452.26 456 456 C459.96 456 463.92 456 468 456 C468 459.63 468 463.26 468 467 C471.63 467 475.26 467 479 467 C479 470.96 479 474.92 479 479 C482.63 479 486.26 479 490 479 C490 482.63 490 486.26 490 490 C493.63 490 497.26 490 501 490 C501 497.26 501 504.52 501 512 C493.74 512 486.48 512 479 512 C479 508.37 479 504.74 479 501 C475.37 501 471.74 501 468 501 C468 497.37 468 493.74 468 490 C460.41 490 452.82 490 445 490 C445 486.37 445 482.74 445 479 C441.37 479 437.74 479 434 479 C434 475.04 434 471.08 434 467 C430.37 467 426.74 467 423 467 C423 463.37 423 459.74 423 456 C419.37 456 415.74 456 412 456 C412 452.37 412 448.74 412 445 C408.37 445 404.74 445 401 445 C401 441.37 401 437.74 401 434 C397.37 434 393.74 434 390 434 C390 423.11 390 412.22 390 401 C404.52 401 419.04 401 434 401 C434 397.37 434 393.74 434 390 C441.26 390 448.52 390 456 390 C456 386.04 456 382.08 456 378 C452.37 378 448.74 378 445 378 C445 374.37 445 370.74 445 367 C441.37 367 437.74 367 434 367 C434 363.37 434 359.74 434 356 C426.74 356 419.48 356 412 356 C412 352.37 412 348.74 412 345 C404.74 345 397.48 345 390 345 C390 341.37 390 337.74 390 334 C382.41 334 374.82 334 367 334 C367 330.37 367 326.74 367 323 C363.37 323 359.74 323 356 323 C356 319.37 356 315.74 356 312 C352.37 312 348.74 312 345 312 C345 308.37 345 304.74 345 301 C341.37 301 337.74 301 334 301 C334 289.78 334 278.56 334 267 C330.37 267 326.74 267 323 267 C323 259.74 323 252.48 323 245 C319.37 245 315.74 245 312 245 C312 237.74 312 230.48 312 223 C308.37 223 304.74 223 301 223 C301 215.41 301 207.82 301 200 C297.37 200 293.74 200 290 200 C290 196.37 290 192.74 290 189 C286.04 189 282.08 189 278 189 C278 181.74 278 174.48 278 167 C274.37 167 270.74 167 267 167 C267 163.37 267 159.74 267 156 C263.37 156 259.74 156 256 156 C256 152.37 256 148.74 256 145 C252.37 145 248.74 145 245 145 C245 141.37 245 137.74 245 134 C241.37 134 237.74 134 234 134 C234 130.04 234 126.08 234 122 C230.37 122 226.74 122 223 122 C223 118.37 223 114.74 223 111 C219.37 111 215.74 111 212 111 C212 107.37 212 103.74 212 100 C208.04 100 204.08 100 200 100 C200 96.37 200 92.74 200 89 C192.74 89 185.48 89 178 89 C178 85.37 178 81.74 178 78 C167.11 78 156.22 78 145 78 C145 74.37 145 70.74 145 67 C133.78 67 122.56 67 111 67 C111 63.37 111 59.74 111 56 C96.48 56 81.96 56 67 56 C67 52.37 67 48.74 67 45 C63.37 45 59.74 45 56 45 C56 41.04 56 37.08 56 33 C44.78 33 33.56 33 22 33 C22 40.59 22 48.18 22 56 C25.96 56 29.92 56 34 56 C34 59.63 34 63.26 34 67 C37.63 67 41.26 67 45 67 C45 74.26 45 81.52 45 89 C48.63 89 52.26 89 56 89 C56 99.89 56 110.78 56 122 C59.63 122 63.26 122 67 122 C67 133.22 67 144.44 67 156 C70.63 156 74.26 156 78 156 C78 163.26 78 170.52 78 178 C81.63 178 85.26 178 89 178 C89 181.63 89 185.26 89 189 C92.63 189 96.26 189 100 189 C100 200.22 100 211.44 100 223 C96.37 223 92.74 223 89 223 C89 226.63 89 230.26 89 234 C85.37 234 81.74 234 78 234 C78 263.37 78 292.74 78 323 C81.63 323 85.26 323 89 323 C89 330.26 89 337.52 89 345 C96.26 345 103.52 345 111 345 C111 322.89 111 300.78 111 278 C122.22 278 133.44 278 145 278 C145 285.59 145 293.18 145 301 C148.63 301 152.26 301 156 301 C156 311.89 156 322.78 156 334 C159.63 334 163.26 334 167 334 C167 337.63 167 341.26 167 345 C170.63 345 174.26 345 178 345 C178 352.26 178 359.52 178 367 C181.63 367 185.26 367 189 367 C189 370.63 189 374.26 189 378 C192.63 378 196.26 378 200 378 C200 381.96 200 385.92 200 390 C203.96 390 207.92 390 212 390 C212 393.63 212 397.26 212 401 C215.63 401 219.26 401 223 401 C223 411.89 223 422.78 223 434 C215.41 434 207.82 434 200 434 C200 430.37 200 426.74 200 423 C196.37 423 192.74 423 189 423 C189 419.37 189 415.74 189 412 C185.37 412 181.74 412 178 412 C178 408.37 178 404.74 178 401 C174.37 401 170.74 401 167 401 C167 397.37 167 393.74 167 390 C163.37 390 159.74 390 156 390 C156 382.41 156 374.82 156 367 C152.37 367 148.74 367 145 367 C145 363.37 145 359.74 145 356 C141.37 356 137.74 356 134 356 C134 359.63 134 363.26 134 367 C130.37 367 126.74 367 123 367 C123 370.63 123 374.26 123 378 C111.78 378 100.56 378 89 378 C89 374.37 89 370.74 89 367 C81.74 367 74.48 367 67 367 C67 359.74 67 352.48 67 345 C63.37 345 59.74 345 56 345 C56 304.74 56 264.48 56 223 C59.63 223 63.26 223 67 223 C67 211.78 67 200.56 67 189 C63.37 189 59.74 189 56 189 C56 185.37 56 181.74 56 178 C52.37 178 48.74 178 45 178 C45 170.74 45 163.48 45 156 C41.37 156 37.74 156 34 156 C34 141.15 34 126.3 34 111 C30.04 111 26.08 111 22 111 C22 103.74 22 96.48 22 89 C18.37 89 14.74 89 11 89 C11 85.37 11 81.74 11 78 C7.37 78 3.74 78 0 78 C0 70.74 0 63.48 0 56 C-3.63 56 -7.26 56 -11 56 C-11 41.15 -11 26.3 -11 11 C-7.37 11 -3.74 11 0 11 C0 7.37 0 3.74 0 0 Z M11 22 C11 25.63 11 29.26 11 33 C14.63 33 18.26 33 22 33 C22 29.37 22 25.74 22 22 C18.37 22 14.74 22 11 22 Z " fill="#3285D7" transform="translate(11,0)"/>
<path d="M0 0 C3.63 0 7.26 0 11 0 C11 3.63 11 7.26 11 11 C18.59 11 26.18 11 34 11 C34 14.63 34 18.26 34 22 C37.63 22 41.26 22 45 22 C45 29.26 45 36.52 45 44 C41.37 44 37.74 44 34 44 C34 47.63 34 51.26 34 55 C30.04 55 26.08 55 22 55 C22 51.37 22 47.74 22 44 C18.37 44 14.74 44 11 44 C11 40.37 11 36.74 11 33 C7.37 33 3.74 33 0 33 C0 29.37 0 25.74 0 22 C-3.63 22 -7.26 22 -11 22 C-11 18.37 -11 14.74 -11 11 C-7.37 11 -3.74 11 0 11 C0 7.37 0 3.74 0 0 Z " fill="#3D8CD8" transform="translate(100,67)"/>
<path d="M0 0 C3.96 0 7.92 0 12 0 C12 3.63 12 7.26 12 11 C8.04 11 4.08 11 0 11 C0 7.37 0 3.74 0 0 Z " fill="#8080FF" transform="translate(211,423)"/>
<path d="M0 0 C3.96 0 7.92 0 12 0 C12 3.63 12 7.26 12 11 C8.04 11 4.08 11 0 11 C0 7.37 0 3.74 0 0 Z " fill="#2480DB" transform="translate(467,412)"/>
<path d="M0 0 C3.63 0 7.26 0 11 0 C11 3.96 11 7.92 11 12 C7.37 12 3.74 12 0 12 C0 8.04 0 4.08 0 0 Z " fill="#000000" transform="translate(167,378)"/>
<path d="M0 0 C3.96 0 7.92 0 12 0 C12 3.63 12 7.26 12 11 C8.04 11 4.08 11 0 11 C0 7.37 0 3.74 0 0 Z " fill="#2080D7" transform="translate(467,345)"/>
<path d="M0 0 C3.63 0 7.26 0 11 0 C11 3.96 11 7.92 11 12 C7.37 12 3.74 12 0 12 C0 8.04 0 4.08 0 0 Z " fill="#3380E6" transform="translate(345,289)"/>
<path d="M0 0 C3.63 0 7.26 0 11 0 C11 3.96 11 7.92 11 12 C7.37 12 3.74 12 0 12 C0 8.04 0 4.08 0 0 Z " fill="#55AAFF" transform="translate(100,211)"/>
<path d="M0 0 C3.63 0 7.26 0 11 0 C11 3.96 11 7.92 11 12 C7.37 12 3.74 12 0 12 C0 8.04 0 4.08 0 0 Z " fill="#4390D3" transform="translate(22,33)"/>
<path d="M0 0 C3.96 0 7.92 0 12 0 C12 3.63 12 7.26 12 11 C8.04 11 4.08 11 0 11 C0 7.37 0 3.74 0 0 Z " fill="#00FFFF" transform="translate(33,22)"/>
<path d="M0 0 C3.63 0 7.26 0 11 0 C11 3.63 11 7.26 11 11 C7.37 11 3.74 11 0 11 C0 7.37 0 3.74 0 0 Z " fill="#00FFFF" transform="translate(456,479)"/>
<path d="M0 0 C3.63 0 7.26 0 11 0 C11 3.63 11 7.26 11 11 C7.37 11 3.74 11 0 11 C0 7.37 0 3.74 0 0 Z " fill="#2492DB" transform="translate(456,445)"/>
<path d="M0 0 C3.63 0 7.26 0 11 0 C11 3.63 11 7.26 11 11 C7.37 11 3.74 11 0 11 C0 7.37 0 3.74 0 0 Z " fill="#0080FF" transform="translate(401,401)"/>
<path d="M0 0 C3.63 0 7.26 0 11 0 C11 3.63 11 7.26 11 11 C7.37 11 3.74 11 0 11 C0 7.37 0 3.74 0 0 Z " fill="#2492DB" transform="translate(134,356)"/>
<path d="M0 0 C3.63 0 7.26 0 11 0 C11 3.63 11 7.26 11 11 C7.37 11 3.74 11 0 11 C0 7.37 0 3.74 0 0 Z " fill="#4080BF" transform="translate(78,356)"/>
<path d="M0 0 C3.63 0 7.26 0 11 0 C11 3.63 11 7.26 11 11 C7.37 11 3.74 11 0 11 C0 7.37 0 3.74 0 0 Z " fill="#55AAFF" transform="translate(423,345)"/>
<path d="M0 0 C3.63 0 7.26 0 11 0 C11 3.63 11 7.26 11 11 C7.37 11 3.74 11 0 11 C0 7.37 0 3.74 0 0 Z " fill="#55AAFF" transform="translate(145,345)"/>
<path d="M0 0 C3.63 0 7.26 0 11 0 C11 3.63 11 7.26 11 11 C7.37 11 3.74 11 0 11 C0 7.37 0 3.74 0 0 Z " fill="#00FFFF" transform="translate(456,334)"/>
<path d="M0 0 C3.63 0 7.26 0 11 0 C11 3.63 11 7.26 11 11 C7.37 11 3.74 11 0 11 C0 7.37 0 3.74 0 0 Z " fill="#00FFFF" transform="translate(401,334)"/>
<path d="M0 0 C3.63 0 7.26 0 11 0 C11 3.63 11 7.26 11 11 C7.37 11 3.74 11 0 11 C0 7.37 0 3.74 0 0 Z " fill="#4080CF" transform="translate(89,323)"/>
<path d="M0 0 C3.63 0 7.26 0 11 0 C11 3.63 11 7.26 11 11 C7.37 11 3.74 11 0 11 C0 7.37 0 3.74 0 0 Z " fill="#3399CC" transform="translate(156,301)"/>
<path d="M0 0 C3.63 0 7.26 0 11 0 C11 3.63 11 7.26 11 11 C7.37 11 3.74 11 0 11 C0 7.37 0 3.74 0 0 Z " fill="#0000FF" transform="translate(367,267)"/>
<path d="M0 0 C3.63 0 7.26 0 11 0 C11 3.63 11 7.26 11 11 C7.37 11 3.74 11 0 11 C0 7.37 0 3.74 0 0 Z " fill="#3380E6" transform="translate(356,245)"/>
<path d="M0 0 C3.63 0 7.26 0 11 0 C11 3.63 11 7.26 11 11 C7.37 11 3.74 11 0 11 C0 7.37 0 3.74 0 0 Z " fill="#0000FF" transform="translate(323,178)"/>
<path d="M0 0 C3.63 0 7.26 0 11 0 C11 3.63 11 7.26 11 11 C7.37 11 3.74 11 0 11 C0 7.37 0 3.74 0 0 Z " fill="#5555AA" transform="translate(45,145)"/>
<path d="M0 0 C3.63 0 7.26 0 11 0 C11 3.63 11 7.26 11 11 C7.37 11 3.74 11 0 11 C0 7.37 0 3.74 0 0 Z " fill="#4992DB" transform="translate(134,89)"/>
<path d="M0 0 C3.63 0 7.26 0 11 0 C11 3.63 11 7.26 11 11 C7.37 11 3.74 11 0 11 C0 7.37 0 3.74 0 0 Z " fill="#4080BF" transform="translate(234,78)"/>
<path d="M0 0 C3.63 0 7.26 0 11 0 C11 3.63 11 7.26 11 11 C7.37 11 3.74 11 0 11 C0 7.37 0 3.74 0 0 Z " fill="#3399CC" transform="translate(156,67)"/>
<path d="M0 0 C3.63 0 7.26 0 11 0 C11 3.63 11 7.26 11 11 C7.37 11 3.74 11 0 11 C0 7.37 0 3.74 0 0 Z " fill="#00FFFF" transform="translate(45,67)"/>
<path d="M0 0 C3.63 0 7.26 0 11 0 C11 3.63 11 7.26 11 11 C7.37 11 3.74 11 0 11 C0 7.37 0 3.74 0 0 Z " fill="#808080" transform="translate(11,67)"/>
<path d="M0 0 C3.63 0 7.26 0 11 0 C11 3.63 11 7.26 11 11 C7.37 11 3.74 11 0 11 C0 7.37 0 3.74 0 0 Z " fill="#00FFFF" transform="translate(178,45)"/>
<path d="M0 0 C3.63 0 7.26 0 11 0 C11 3.63 11 7.26 11 11 C7.37 11 3.74 11 0 11 C0 7.37 0 3.74 0 0 Z " fill="#008080" transform="translate(78,45)"/>
</svg>
