<?xml version="1.0" encoding="UTF-8"?>
<!-- Generator: visioncortex VTracer -->
<svg id="svg" version="1.1" xmlns="http://www.w3.org/2000/svg" style="display: block;" viewBox="0 0 800 800"><path d="M0 0 C91.41 0 182.82 0 277 0 C277 10.23 277 20.46 277 31 C297.46 31 317.92 31 339 31 C339 41.23 339 51.46 339 62 C359.13 62 379.26 62 400 62 C400 71.9 400 81.8 400 92 C410.23 92 420.46 92 431 92 C431 102.23 431 112.46 431 123 C441.23 123 451.46 123 462 123 C462 133.23 462 143.46 462 154 C471.9 154 481.8 154 492 154 C492 164.23 492 174.46 492 185 C502.23 185 512.46 185 523 185 C523 205.13 523 225.26 523 246 C533.23 246 543.46 246 554 246 C554 317.28 554 388.56 554 462 C543.77 462 533.54 462 523 462 C523 492.36 523 522.72 523 554 C512.77 554 502.54 554 492 554 C492 574.13 492 594.26 492 615 C482.1 615 472.2 615 462 615 C462 635.46 462 655.92 462 677 C441.54 677 421.08 677 400 677 C400 687.23 400 697.46 400 708 C379.87 708 359.74 708 339 708 C339 687.54 339 667.08 339 646 C328.77 646 318.54 646 308 646 C308 635.77 308 625.54 308 615 C297.77 615 287.54 615 277 615 C277 594.87 277 574.74 277 554 C266.77 554 256.54 554 246 554 C246 543.77 246 533.54 246 523 C236.1 523 226.2 523 216 523 C216 502.87 216 482.74 216 462 C205.77 462 195.54 462 185 462 C185 451.77 185 441.54 185 431 C174.77 431 164.54 431 154 431 C154 410.54 154 390.08 154 369 C143.77 369 133.54 369 123 369 C123 358.77 123 348.54 123 338 C112.77 338 102.54 338 92 338 C92 317.87 92 297.74 92 277 C82.1 277 72.2 277 62 277 C62 266.77 62 256.54 62 246 C55.5810446 246.12082135 49.16220548 246.24387166 42.7434082 246.37231445 C40.56634936 246.41524147 38.38926588 246.45693966 36.2121582 246.49731445 C33.05672827 246.55605723 29.90141767 246.61943353 26.74609375 246.68359375 C25.7954454 246.70030624 24.84479706 246.71701874 23.86534119 246.73423767 C15.86806154 246.90395497 8.00926853 247.46604876 0 248 C0 359.21 0 470.42 0 585 C20.46 585 40.92 585 62 585 C62 513.72 62 442.44 62 369 C71.9 369 81.8 369 92 369 C92 389.46 92 409.92 92 431 C102.23 431 112.46 431 123 431 C123 441.23 123 451.46 123 462 C133.23 462 143.46 462 154 462 C154 482.13 154 502.26 154 523 C164.23 523 174.46 523 185 523 C185 533.23 185 543.46 185 554 C195.23 554 205.46 554 216 554 C216 574.13 216 594.26 216 615 C225.9 615 235.8 615 246 615 C246 625.23 246 635.46 246 646 C256.23 646 266.46 646 277 646 C277 656.23 277 666.46 277 677 C287.23 677 297.46 677 308 677 C308 697.13 308 717.26 308 738 C318.23 738 328.46 738 339 738 C339 748.23 339 758.46 339 769 C308.31 769 277.62 769 246 769 C246 779.23 246 789.46 246 800 C175.05 800 104.1 800 31 800 C31 789.77 31 779.54 31 769 C10.54 769 -9.92 769 -31 769 C-31 758.77 -31 748.54 -31 738 C-51.13 738 -71.26 738 -92 738 C-92 728.1 -92 718.2 -92 708 C-102.23 708 -112.46 708 -123 708 C-123 697.77 -123 687.54 -123 677 C-133.23 677 -143.46 677 -154 677 C-154 666.77 -154 656.54 -154 646 C-163.9 646 -173.8 646 -184 646 C-184 635.77 -184 625.54 -184 615 C-194.23 615 -204.46 615 -215 615 C-215 594.87 -215 574.74 -215 554 C-225.23 554 -235.46 554 -246 554 C-246 452.36 -246 350.72 -246 246 C-235.77 246 -225.54 246 -215 246 C-215 225.87 -215 205.74 -215 185 C-204.77 185 -194.54 185 -184 185 C-184 174.77 -184 164.54 -184 154 C-174.1 154 -164.2 154 -154 154 C-154 143.77 -154 133.54 -154 123 C-143.77 123 -133.54 123 -123 123 C-123 112.77 -123 102.54 -123 92 C-112.77 92 -102.54 92 -92 92 C-92 82.1 -92 72.2 -92 62 C-81.77 62 -71.54 62 -61 62 C-61 51.77 -61 41.54 -61 31 C-40.87 31 -20.74 31 0 31 C0 20.77 0 10.54 0 0 Z M246 246 C246 327.18 246 408.36 246 492 C256.23 492 266.46 492 277 492 C277 502.23 277 512.46 277 523 C287.23 523 297.46 523 308 523 C308 431.59 308 340.18 308 246 C287.54 246 267.08 246 246 246 Z " transform="translate(246,0)" fill="currentColor"/></svg>