<?xml version="1.0" encoding="UTF-8"?>
<!-- Generator: visioncortex VTracer -->
<svg id="svg" version="1.1" xmlns="http://www.w3.org/2000/svg" style="display: block;" viewBox="0 0 3840 1034"><path d="M0 0 C18.81 0 37.62 0 57 0 C57 9.57 57 19.14 57 29 C76.14 29 95.28 29 115 29 C115 38.24 115 47.48 115 57 C134.14 57 153.28 57 173 57 C173 66.57 173 76.14 173 86 C182.57 86 192.14 86 202 86 C202 351.32 202 616.64 202 890 C192.43 890 182.86 890 173 890 C173 899.57 173 909.14 173 919 C153.86 919 134.72 919 115 919 C115 928.57 115 938.14 115 948 C95.86 948 76.72 948 57 948 C57 957.57 57 967.14 57 977 C38.19 977 19.38 977 0 977 C0 986.24 0 995.48 0 1005 C-19.14 1005 -38.28 1005 -58 1005 C-58 1014.57 -58 1024.14 -58 1034 C-67.57 1034 -77.14 1034 -87 1034 C-87 1024.43 -87 1014.86 -87 1005 C-106.14 1005 -125.28 1005 -145 1005 C-145 995.76 -145 986.52 -145 977 C-164.14 977 -183.28 977 -203 977 C-203 967.43 -203 957.86 -203 948 C-221.81 948 -240.62 948 -260 948 C-260 938.43 -260 928.86 -260 919 C-279.14 919 -298.28 919 -318 919 C-318 909.43 -318 899.86 -318 890 C-327.57 890 -337.14 890 -347 890 C-347 880.76 -347 871.52 -347 862 C-356.57 862 -366.14 862 -376 862 C-376 757.72 -376 653.44 -376 546 C-366.43 546 -356.86 546 -347 546 C-347 536.43 -347 526.86 -347 517 C-337.43 517 -327.86 517 -318 517 C-318 507.43 -318 497.86 -318 488 C-289.29 488 -260.58 488 -231 488 C-231 478.76 -231 469.52 -231 460 C-221.76 460 -212.52 460 -203 460 C-203 450.43 -203 440.86 -203 431 C-193.43 431 -183.86 431 -174 431 C-174 421.43 -174 411.86 -174 402 C-154.86 402 -135.72 402 -116 402 C-116 392.43 -116 382.86 -116 373 C-96.86 373 -77.72 373 -58 373 C-58 382.57 -58 392.14 -58 402 C-38.86 402 -19.72 402 0 402 C0 269.34 0 136.68 0 0 Z M-116 603 C-116 612.57 -116 622.14 -116 632 C-135.14 632 -154.28 632 -174 632 C-174 679.19 -174 726.38 -174 775 C-154.86 775 -135.72 775 -116 775 C-116 784.57 -116 794.14 -116 804 C-87.29 804 -58.58 804 -29 804 C-29 794.43 -29 784.86 -29 775 C-10.19 775 8.62 775 28 775 C28 727.81 28 680.62 28 632 C-0.38 632 -28.76 632 -58 632 C-58 622.43 -58 612.86 -58 603 C-77.14 603 -96.28 603 -116 603 Z " transform="translate(1906,0)" fill="currentColor"/><path d="M0 0 C28.38 0 56.76 0 86 0 C86 9.57 86 19.14 86 29 C105.14 29 124.28 29 144 29 C144 38.57 144 48.14 144 58 C153.57 58 163.14 58 173 58 C173 67.57 173 77.14 173 87 C192.14 87 211.28 87 231 87 C231 96.24 231 105.48 231 115 C249.81 115 268.62 115 288 115 C288 124.57 288 134.14 288 144 C307.14 144 326.28 144 346 144 C346 257.85 346 371.7 346 489 C336.43 489 326.86 489 317 489 C317 498.24 317 507.48 317 517 C307.43 517 297.86 517 288 517 C288 526.57 288 536.14 288 546 C269.19 546 250.38 546 231 546 C231 555.57 231 565.14 231 575 C211.86 575 192.72 575 173 575 C173 584.57 173 594.14 173 604 C153.86 604 134.72 604 115 604 C115 613.24 115 622.48 115 632 C67.48 632 19.96 632 -29 632 C-29 622.76 -29 613.52 -29 604 C-38.57 604 -48.14 604 -58 604 C-58 594.43 -58 584.86 -58 575 C-86.71 575 -115.42 575 -145 575 C-145 565.43 -145 555.86 -145 546 C-154.57 546 -164.14 546 -174 546 C-174 536.43 -174 526.86 -174 517 C-183.57 517 -193.14 517 -203 517 C-203 507.76 -203 498.52 -203 489 C-212.24 489 -221.48 489 -231 489 C-231 375.15 -231 261.3 -231 144 C-212.19 144 -193.38 144 -174 144 C-174 134.43 -174 124.86 -174 115 C-164.43 115 -154.86 115 -145 115 C-145 105.76 -145 96.52 -145 87 C-116.29 87 -87.58 87 -58 87 C-58 67.86 -58 48.72 -58 29 C-38.86 29 -19.72 29 0 29 C0 19.43 0 9.86 0 0 Z " transform="translate(1011,373)" fill="currentColor"/><path d="M0 0 C37.95 0 75.9 0 115 0 C115 9.57 115 19.14 115 29 C124.57 29 134.14 29 144 29 C144 38.57 144 48.14 144 58 C153.57 58 163.14 58 173 58 C173 67.57 173 77.14 173 87 C192.14 87 211.28 87 231 87 C231 96.24 231 105.48 231 115 C250.14 115 269.28 115 289 115 C289 124.57 289 134.14 289 144 C307.81 144 326.62 144 346 144 C346 286.23 346 428.46 346 575 C317.62 575 289.24 575 260 575 C260 565.43 260 555.86 260 546 C250.43 546 240.86 546 231 546 C231 536.43 231 526.86 231 517 C211.86 517 192.72 517 173 517 C173 507.76 173 498.52 173 489 C163.43 489 153.86 489 144 489 C144 413.1 144 337.2 144 259 C134.43 259 124.86 259 115 259 C115 249.43 115 239.86 115 230 C105.76 230 96.52 230 87 230 C87 220.43 87 210.86 87 201 C67.86 201 48.72 201 29 201 C29 210.57 29 220.14 29 230 C19.43 230 9.86 230 0 230 C0 239.57 0 249.14 0 259 C-9.57 259 -19.14 259 -29 259 C-29 334.9 -29 410.8 -29 489 C-38.57 489 -48.14 489 -58 489 C-58 498.24 -58 507.48 -58 517 C-77.14 517 -96.28 517 -116 517 C-116 526.57 -116 536.14 -116 546 C-125.24 546 -134.48 546 -144 546 C-144 555.57 -144 565.14 -144 575 C-172.71 575 -201.42 575 -231 575 C-231 432.77 -231 290.54 -231 144 C-211.86 144 -192.72 144 -173 144 C-173 134.43 -173 124.86 -173 115 C-154.19 115 -135.38 115 -116 115 C-116 105.76 -116 96.52 -116 87 C-96.86 87 -77.72 87 -58 87 C-58 77.43 -58 67.86 -58 58 C-48.43 58 -38.86 58 -29 58 C-29 48.43 -29 38.86 -29 29 C-19.43 29 -9.86 29 0 29 C0 19.43 0 9.86 0 0 Z " transform="translate(231,373)" fill="currentColor"/><path d="M0 0 C18.81 0 37.62 0 57 0 C57 9.57 57 19.14 57 29 C76.14 29 95.28 29 115 29 C115 38.57 115 48.14 115 58 C124.57 58 134.14 58 144 58 C144 67.57 144 77.14 144 87 C163.14 87 182.28 87 202 87 C202 96.24 202 105.48 202 115 C220.81 115 239.62 115 259 115 C259 124.57 259 134.14 259 144 C278.14 144 297.28 144 317 144 C317 191.52 317 239.04 317 288 C297.86 288 278.72 288 259 288 C259 297.24 259 306.48 259 316 C240.19 316 221.38 316 202 316 C202 325.57 202 335.14 202 345 C182.86 345 163.72 345 144 345 C144 354.57 144 364.14 144 374 C134.43 374 124.86 374 115 374 C115 336.05 115 298.1 115 259 C95.86 259 76.72 259 57 259 C57 249.43 57 239.86 57 230 C38.19 230 19.38 230 0 230 C0 239.57 0 249.14 0 259 C-28.71 259 -57.42 259 -87 259 C-87 306.19 -87 353.38 -87 402 C-58.29 402 -29.58 402 0 402 C0 411.57 0 421.14 0 431 C9.24 431 18.48 431 28 431 C28 440.57 28 450.14 28 460 C56.71 460 85.42 460 115 460 C115 469.57 115 479.14 115 489 C124.57 489 134.14 489 144 489 C144 498.24 144 507.48 144 517 C153.57 517 163.14 517 173 517 C173 526.57 173 536.14 173 546 C182.57 546 192.14 546 202 546 C202 555.57 202 565.14 202 575 C182.86 575 163.72 575 144 575 C144 584.57 144 594.14 144 604 C124.86 604 105.72 604 86 604 C86 613.24 86 622.48 86 632 C48.05 632 10.1 632 -29 632 C-29 622.76 -29 613.52 -29 604 C-48.14 604 -67.28 604 -87 604 C-87 594.43 -87 584.86 -87 575 C-106.14 575 -125.28 575 -145 575 C-145 565.43 -145 555.86 -145 546 C-163.81 546 -182.62 546 -202 546 C-202 536.43 -202 526.86 -202 517 C-211.57 517 -221.14 517 -231 517 C-231 507.76 -231 498.52 -231 489 C-240.57 489 -250.14 489 -260 489 C-260 375.15 -260 261.3 -260 144 C-240.86 144 -221.72 144 -202 144 C-202 134.43 -202 124.86 -202 115 C-183.19 115 -164.38 115 -145 115 C-145 105.76 -145 96.52 -145 87 C-125.86 87 -106.72 87 -87 87 C-87 77.43 -87 67.86 -87 58 C-77.43 58 -67.86 58 -58 58 C-58 48.43 -58 38.86 -58 29 C-38.86 29 -19.72 29 0 29 C0 19.43 0 9.86 0 0 Z " transform="translate(2570,373)" fill="currentColor"/><path d="M0 0 C38.28 0 76.56 0 116 0 C116 9.57 116 19.14 116 29 C125.57 29 135.14 29 145 29 C145 38.57 145 48.14 145 58 C154.57 58 164.14 58 174 58 C174 67.57 174 77.14 174 87 C202.38 87 230.76 87 260 87 C260 96.24 260 105.48 260 115 C269.57 115 279.14 115 289 115 C289 124.57 289 134.14 289 144 C298.57 144 308.14 144 318 144 C318 153.57 318 163.14 318 173 C327.57 173 337.14 173 347 173 C347 277.28 347 381.56 347 489 C337.43 489 327.86 489 318 489 C318 498.24 318 507.48 318 517 C308.43 517 298.86 517 289 517 C289 526.57 289 536.14 289 546 C269.86 546 250.72 546 231 546 C231 555.57 231 565.14 231 575 C212.19 575 193.38 575 174 575 C174 584.57 174 594.14 174 604 C154.86 604 135.72 604 116 604 C116 613.24 116 622.48 116 632 C96.86 632 77.72 632 58 632 C58 641.57 58 651.14 58 661 C48.43 661 38.86 661 29 661 C29 651.43 29 641.86 29 632 C9.86 632 -9.28 632 -29 632 C-29 622.76 -29 613.52 -29 604 C-38.24 604 -47.48 604 -57 604 C-57 594.43 -57 584.86 -57 575 C-38.19 575 -19.38 575 0 575 C0 584.57 0 594.14 0 604 C28.71 604 57.42 604 87 604 C87 594.43 87 584.86 87 575 C106.14 575 125.28 575 145 575 C145 565.43 145 555.86 145 546 C163.81 546 182.62 546 202 546 C202 536.43 202 526.86 202 517 C211.57 517 221.14 517 231 517 C231 507.76 231 498.52 231 489 C250.14 489 269.28 489 289 489 C289 384.72 289 280.44 289 173 C279.43 173 269.86 173 260 173 C260 163.43 260 153.86 260 144 C240.86 144 221.72 144 202 144 C202 134.43 202 124.86 202 115 C183.19 115 164.38 115 145 115 C145 105.76 145 96.52 145 87 C125.86 87 106.72 87 87 87 C87 77.43 87 67.86 87 58 C77.43 58 67.86 58 58 58 C58 48.43 58 38.86 58 29 C48.43 29 38.86 29 29 29 C29 38.57 29 48.14 29 58 C19.43 58 9.86 58 0 58 C0 67.57 0 77.14 0 87 C-18.81 87 -37.62 87 -57 87 C-57 96.24 -57 105.48 -57 115 C-76.14 115 -95.28 115 -115 115 C-115 124.57 -115 134.14 -115 144 C-134.14 144 -153.28 144 -173 144 C-173 153.57 -173 163.14 -173 173 C-182.57 173 -192.14 173 -202 173 C-202 267.71 -202 362.42 -202 460 C-192.43 460 -182.86 460 -173 460 C-173 469.57 -173 479.14 -173 489 C-163.43 489 -153.86 489 -144 489 C-144 498.24 -144 507.48 -144 517 C-124.86 517 -105.72 517 -86 517 C-86 412.72 -86 308.44 -86 201 C-67.19 201 -48.38 201 -29 201 C-29 314.85 -29 428.7 -29 546 C-47.81 546 -66.62 546 -86 546 C-86 555.57 -86 565.14 -86 575 C-95.57 575 -105.14 575 -115 575 C-115 565.43 -115 555.86 -115 546 C-143.71 546 -172.42 546 -202 546 C-202 527.19 -202 508.38 -202 489 C-221.14 489 -240.28 489 -260 489 C-260 375.15 -260 261.3 -260 144 C-240.86 144 -221.72 144 -202 144 C-202 134.43 -202 124.86 -202 115 C-182.86 115 -163.72 115 -144 115 C-144 105.76 -144 96.52 -144 87 C-124.86 87 -105.72 87 -86 87 C-86 77.43 -86 67.86 -86 58 C-76.43 58 -66.86 58 -57 58 C-57 48.43 -57 38.86 -57 29 C-38.19 29 -19.38 29 0 29 C0 19.43 0 9.86 0 0 Z " transform="translate(3320,373)" fill="currentColor"/><path d="M0 0 C57.09 0 114.18 0 173 0 C173 19.14 173 38.28 173 58 C182.57 58 192.14 58 202 58 C202 67.57 202 77.14 202 87 C183.19 87 164.38 87 145 87 C145 77.43 145 67.86 145 58 C135.43 58 125.86 58 116 58 C116 48.43 116 38.86 116 29 C96.86 29 77.72 29 58 29 C58 38.57 58 48.14 58 58 C48.43 58 38.86 58 29 58 C29 67.57 29 77.14 29 87 C57.71 87 86.42 87 116 87 C116 96.24 116 105.48 116 115 C144.38 115 172.76 115 202 115 C202 124.57 202 134.14 202 144 C211.57 144 221.14 144 231 144 C231 162.81 231 181.62 231 201 C221.43 201 211.86 201 202 201 C202 210.57 202 220.14 202 230 C192.43 230 182.86 230 173 230 C173 239.57 173 249.14 173 259 C115.91 259 58.82 259 0 259
 C0 249.43 0 239.86 0 230 C-9.57 230 -19.14 230 -29 230 C-29 201.62 -29 173.24 -29 144 C-19.43 144 -9.86 144 0 144 C0 134.43 0 124.86 0 115 C-9.57 115 -19.14 115 -29 115 C-29 86.62 -29 58.24 -29 29 C-19.43 29 -9.86 29 0 29 C0 19.43 0 9.86 0 0 Z M0 144 C0 162.81 0 181.62 0 201 C9.57 201 19.14 201 29 201 C29 210.57 29 220.14 29 230 C67.28 230 105.56 230 145 230 C145 220.43 145 210.86 145 201 C154.24 201 163.48 201 173 201 C173 191.76 173 182.52 173 173 C163.76 173 154.52 173 145 173 C145 163.43 145 153.86 145 144 C97.15 144 49.3 144 0 144 Z " transform="translate(3349,574)" fill="currentColor"/><path d="M0 0 C9.24 0 18.48 0 28 0 C28 9.57 28 19.14 28 29 C47.14 29 66.28 29 86 29 C86 47.81 86 66.62 86 86 C76.43 86 66.86 86 57 86 C57 95.57 57 105.14 57 115 C47.43 115 37.86 115 28 115 C28 124.24 28 133.48 28 143 C18.76 143 9.52 143 0 143 C0 124.19 0 105.38 0 86 C-9.57 86 -19.14 86 -29 86 C-29 67.19 -29 48.38 -29 29 C-19.43 29 -9.86 29 0 29 C0 19.43 0 9.86 0 0 Z " transform="translate(2570,632)" fill="currentColor"/><path d="M0 0 C9.57 0 19.14 0 29 0 C29 9.57 29 19.14 29 29 C19.43 29 9.86 29 0 29 C0 19.43 0 9.86 0 0 Z " transform="translate(3782,373)" fill="currentColor"/></svg>