<?xml version="1.0" encoding="UTF-8"?>
<!-- Generator: visioncortex VTracer -->
<svg id="svg" version="1.1" xmlns="http://www.w3.org/2000/svg" style="display: block;" viewBox="0 0 800 800"><path d="M0 0 C3.96 0 7.92 0 12 0 C12 3.96 12 7.92 12 12 C19.59 12 27.18 12 35 12 C35 15.96 35 19.92 35 24 C42.92 24 50.84 24 59 24 C59 27.96 59 31.92 59 36 C66.92 36 74.84 36 83 36 C83 39.96 83 43.92 83 48 C86.96 48 90.92 48 95 48 C95 51.96 95 55.92 95 60 C98.96 60 102.92 60 107 60 C107 71.55 107 83.1 107 95 C110.96 95 114.92 95 119 95 C119 102.92 119 110.84 119 119 C122.96 119 126.92 119 131 119 C131 126.92 131 134.84 131 143 C134.96 143 138.92 143 143 143 C143 150.92 143 158.84 143 167 C146.96 167 150.92 167 155 167 C155 174.92 155 182.84 155 191 C158.96 191 162.92 191 167 191 C167 198.92 167 206.84 167 215 C170.96 215 174.92 215 179 215 C179 222.92 179 230.84 179 239 C182.96 239 186.92 239 191 239 C191 250.55 191 262.1 191 274 C194.96 274 198.92 274 203 274 C203 281.92 203 289.84 203 298 C206.96 298 210.92 298 215 298 C215 238.93 215 179.86 215 119 C222.59 119 230.18 119 238 119 C238 122.96 238 126.92 238 131 C245.92 131 253.84 131 262 131 C262 134.96 262 138.92 262 143 C269.92 143 277.84 143 286 143 C286 146.96 286 150.92 286 155 C293.92 155 301.84 155 310 155 C310 277.1 310 399.2 310 525 C306.04 525 302.08 525 298 525 C298 521.04 298 517.08 298 513 C290.08 513 282.16 513 274 513 C274 509.04 274 505.08 274 501 C266.08 501 258.16 501 250 501 C250 497.04 250 493.08 250 489 C246.04 489 242.08 489 238 489 C238 485.04 238 481.08 238 477 C230.41 477 222.82 477 215 477 C215 473.37 215 469.74 215 466 C211.04 466 207.08 466 203 466 C203 458.08 203 450.16 203 442 C199.04 442 195.08 442 191 442 C191 434.08 191 426.16 191 418 C187.04 418 183.08 418 179 418 C179 410.08 179 402.16 179 394 C175.04 394 171.08 394 167 394 C167 390.04 167 386.08 167 382 C163.04 382 159.08 382 155 382 C155 374.08 155 366.16 155 358 C151.04 358 147.08 358 143 358 C143 350.08 143 342.16 143 334 C139.04 334 135.08 334 131 334 C131 326.08 131 318.16 131 310 C127.04 310 123.08 310 119 310 C119 302.08 119 294.16 119 286 C115.04 286 111.08 286 107 286 C107 278.41 107 270.82 107 263 C103.04 263 99.08 263 95 263 C95 255.08 95 247.16 95 239 C91.04 239 87.08 239 83 239 C83 294.11 83 349.22 83 406 C79.04 406 75.08 406 71 406 C71 402.04 71 398.08 71 394 C63.08 394 55.16 394 47 394 C47 390.04 47 386.08 47 382 C39.41 382 31.82 382 24 382 C24 378.04 24 374.08 24 370 C16.08 370 8.16 370 0 370 C0 247.9 0 125.8 0 0 Z " transform="translate(72,227)" style="fill: #4D77CF;"/><path d="M0 0 C7.92 0 15.84 0 24 0 C24 55.44 24 110.88 24 168 C16.08 168 8.16 168 0 168 C0 171.63 0 175.26 0 179 C-7.92 179 -15.84 179 -24 179 C-24 182.96 -24 186.92 -24 191 C-31.59 191 -39.18 191 -47 191 C-47 194.96 -47 198.92 -47 203 C-54.92 203 -62.84 203 -71 203 C-71 206.96 -71 210.92 -71 215 C-78.92 215 -86.84 215 -95 215 C-95 218.96 -95 222.92 -95 227 C-102.92 227 -110.84 227 -119 227 C-119 171.89 -119 116.78 -119 60 C-111.08 60 -103.16 60 -95 60 C-95 56.04 -95 52.08 -95 48 C-87.08 48 -79.16 48 -71 48 C-71 44.04 -71 40.08 -71 36 C-63.08 36 -55.16 36 -47 36 C-47 32.04 -47 28.08 -47 24 C-39.41 24 -31.82 24 -24 24 C-24 20.04 -24 16.08 -24 12 C-16.08 12 -8.16 12 0 12 C0 8.04 0 4.08 0 0 Z " transform="translate(537,525)" style="fill: #4CABCF;"/><path d="M0 0 C7.92 0 15.84 0 24 0 C24 51.48 24 102.96 24 156 C20.04 156 16.08 156 12 156 C12 159.96 12 163.92 12 168 C4.08 168 -3.84 168 -12 168 C-12 171.63 -12 175.26 -12 179 C-19.92 179 -27.84 179 -36 179 C-36 182.96 -36 186.92 -36 191 C-43.59 191 -51.18 191 -59 191 C-59 194.96 -59 198.92 -59 203 C-66.92 203 -74.84 203 -83 203 C-83 206.96 -83 210.92 -83 215 C-94.88 215 -106.76 215 -119 215 C-119 163.85 -119 112.7 -119 60 C-111.08 60 -103.16 60 -95 60 C-95 56.04 -95 52.08 -95 48 C-87.08 48 -79.16 48 -71 48 C-71 44.04 -71 40.08 -71 36 C-63.08 36 -55.16 36 -47 36 C-47 32.04 -47 28.08 -47 24 C-39.41 24 -31.82 24 -24 24 C-24 20.04 -24 16.08 -24 12 C-16.08 12 -8.16 12 0 12 C0 8.04 0 4.08 0 0 Z " transform="translate(537,322)" style="fill: #4DABCF;"/><path d="M0 0 C7.92 0 15.84 0 24 0 C24 55.11 24 110.22 24 167 C16.08 167 8.16 167 0 167 C0 170.96 0 174.92 0 179 C-7.59 179 -15.18 179 -23 179 C-23 182.96 -23 186.92 -23 191 C-30.92 191 -38.84 191 -47 191 C-47 194.96 -47 198.92 -47 203 C-54.92 203 -62.84 203 -71 203 C-71 206.96 -71 210.92 -71 215 C-78.92 215 -86.84 215 -95 215 C-95 159.89 -95 104.78 -95 48 C-87.08 48 -79.16 48 -71 48 C-71 44.04 -71 40.08 -71 36 C-63.08 36 -55.16 36 -47 36 C-47 32.04 -47 28.08 -47 24 C-39.08 24 -31.16 24 -23 24 C-23 20.04 -23 16.08 -23 12 C-15.41 12 -7.82 12 0 12 C0 8.04 0 4.08 0 0 Z " transform="translate(704,442)" style="fill: #4CABCF;"/><path d="M0 0 C7.92 0 15.84 0 24 0 C24 51.15 24 102.3 24 155 C20.04 155 16.08 155 12 155 C12 158.96 12 162.92 12 167 C4.41 167 -3.18 167 -11 167 C-11 170.96 -11 174.92 -11 179 C-18.92 179 -26.84 179 -35 179 C-35 182.96 -35 186.92 -35 191 C-42.92 191 -50.84 191 -59 191 C-59 194.96 -59 198.92 -59 203 C-66.92 203 -74.84 203 -83 203 C-83 206.96 -83 210.92 -83 215 C-86.96 215 -90.92 215 -95 215 C-95 159.89 -95 104.78 -95 48 C-87.08 48 -79.16 48 -71 48 C-71 44.04 -71 40.08 -71 36 C-63.08 36 -55.16 36 -47 36 C-47 32.04 -47 28.08 -47 24 C-39.08 24 -31.16 24 -23 24 C-23 20.04 -23 16.08 -23 12 C-15.41 12 -7.82 12 0 12 C0 8.04 0 4.08 0 0 Z " transform="translate(704,239)" style="fill: #4DABCF;"/><path d="M0 0 C11.88 0 23.76 0 36 0 C36 3.96 36 7.92 36 12 C43.92 12 51.84 12 60 12 C60 15.96 60 19.92 60 24 C67.92 24 75.84 24 84 24 C84 27.96 84 31.92 84 36 C91.59 36 99.18 36 107 36 C107 39.96 107 43.92 107 48 C114.92 48 122.84 48 131 48 C131 55.92 131 63.84 131 72 C127.04 72 123.08 72 119 72 C119 75.96 119 79.92 119 84 C111.08 84 103.16 84 95 84 C95 87.96 95 91.92 95 96 C87.41 96 79.82 96 72 96 C72 99.96 72 103.92 72 108 C64.08 108 56.16 108 48 108 C48 111.96 48 115.92 48 120 C40.08 120 32.16 120 24 120 C24 123.96 24 127.92 24 132 C16.08 132 8.16 132 0 132 C0 128.04 0 124.08 0 120 C-7.92 120 -15.84 120 -24 120 C-24 116.04 -24 112.08 -24 108 C-31.92 108 -39.84 108 -48 108 C-48 104.04 -48 100.08 -48 96 C-55.92 96 -63.84 96 -72 96 C-72 92.04 -72 88.08 -72 84 C-79.92 84 -87.84 84 -96 84 C-96 80.04 -96 76.08 -96 72 C-99.96 72 -103.92 72 -108 72 C-108 68.04 -108 64.08 -108 60 C-104.04 60 -100.08 60 -96 60 C-96 56.04 -96 52.08 -96 48 C-88.08 48 -80.16 48 -72 48 C-72 44.04 -72 40.08 -72 36 C-64.08 36 -56.16 36 -48 36 C-48 32.04 -48 28.08 -48 24 C-40.08 24 -32.16 24 -24 24 C-24 20.04 -24 16.08 -24 12 C-16.08 12 -8.16 12 0 12 C0 8.04 0 4.08 0 0 Z " transform="translate(215,131)" style="fill: #4DABCF;"/><path d="M0 0 C7.92 0 15.84 0 24 0 C24 3.96 24 7.92 24 12 C31.92 12 39.84 12 48 12 C48 15.96 48 19.92 48 24 C55.92 24 63.84 24 72 24 C72 27.96 72 31.92 72 36 C79.92 36 87.84 36 96 36 C96 39.96 96 43.92 96 48 C103.59 48 111.18 48 119 48 C119 51.96 119 55.92 119 60 C122.96 60 126.92 60 131 60 C131 63.96 131 67.92 131 72 C127.04 72 123.08 72 119 72 C119 75.96 119 79.92 119 84 C111.41 84 103.82 84 96 84 C96 87.63 96 91.26 96 95 C88.08 95 80.16 95 72 95 C72 98.96 72 102.92 72 107 C64.08 107 56.16 107 48 107 C48 110.96 48 114.92 48 119 C40.08 119 32.16 119 24 119 C24 122.96 24 126.92 24 131 C12.12 131 0.24 131 -12 131 C-12 127.04 -12 123.08 -12 119 C-19.92 119 -27.84 119 -36 119 C-36 115.04 -36 111.08 -36 107 C-43.92 107 -51.84 107 -60 107 C-60 103.04 -60 99.08 -60 95 C-67.92 95 -75.84 95 -84 95 C-84 91.37 -84 87.74 -84 84 C-91.59 84 -99.18 84 -107 84 C-107 80.04 -107 76.08 -107 72 C-110.96 72 -114.92 72 -119 72 C-119 68.04 -119 64.08 -119 60 C-111.08 60 -103.16 60 -95 60 C-95 56.04 -95 52.08 -95 48 C-87.41 48 -79.82 48 -72 48 C-72 44.04 -72 40.08 -72 36 C-64.08 36 -56.16 36 -48 36 C-48 32.04 -48 28.08 -48 24 C-40.08 24 -32.16 24 -24 24 C-24 20.04 -24 16.08 -24 12 C-16.08 12 -8.16 12 0 12 C0 8.04 0 4.08 0 0 Z " transform="translate(394,215)" style="fill: #4DABCF;"/><path d="M0 0 C11.88 0 23.76 0 36 0 C36 3.96 36 7.92 36 12 C43.92 12 51.84 12 60 12 C60 15.96 60 19.92 60 24 C67.92 24 75.84 24 84 24 C84 27.96 84 31.92 84 36 C91.92 36 99.84 36 108 36 C108 39.96 108 43.92 108 48 C115.92 48 123.84 48 132 48 C132 51.96 132 55.92 132 60 C135.96 60 139.92 60 144 60 C144 63.96 144 67.92 144 72 C140.04 72 136.08 72 132 72 C132 75.96 132 79.92 132 84 C124.08 84 116.16 84 108 84 C108 87.96 108 91.92 108 96 C100.08 96 92.16 96 84 96 C84 99.96 84 103.92 84 108 C76.08 108 68.16 108 60 108 C60 111.96 60 115.92 60 120 C52.08 120 44.16 120 36 120 C36 123.96 36 127.92 36 132 C32.04 132 28.08 132 24 132 C24 128.04 24 124.08 24 120 C16.08 120 8.16 120 0 120 C0 116.04 0 112.08 0 108 C-3.96 108 -7.92 108 -12 108 C-12 104.04 -12 100.08 -12 96 C-19.92 96 -27.84 96 -36 96 C-36 92.04 -36 88.08 -36 84 C-43.59 84 -51.18 84 -59 84 C-59 80.04 -59 76.08 -59 72 C-66.92 72 -74.84 72 -83 72 C-83 64.08 -83 56.16 -83 48 C-79.04 48 -75.08 48 -71 48 C-71 44.04 -71 40.08 -71 36 C-63.41 36 -55.82 36 -48 36 C-48 32.04 -48 28.08 -48 24 C-40.08 24 -32.16 24 -24 24 C-24 20.04 -24 16.08 -24 12 C-16.08 12 -8.16 12 0 12 C0 8.04 0 4.08 0 0 Z " transform="translate(549,131)" style="fill: #4DABCF;"/><path d="M0 0 C11.88 0 23.76 0 36 0 C36 3.96 36 7.92 36 12 C43.92 12 51.84 12 60 12 C60 15.96 60 19.92 60 24 C67.92 24 75.84 24 84 24 C84 27.96 84 31.92 84 36 C91.92 36 99.84 36 108 36 C108 39.96 108 43.92 108 48 C115.59 48 123.18 48 131 48 C131 55.59 131 63.18 131 71 C123.41 71 115.82 71 108 71 C108 74.96 108 78.92 108 83 C100.08 83 92.16 83 84 83 C84 86.96 84 90.92 84 95 C76.08 95 68.16 95 60 95 C60 98.96 60 102.92 60 107 C52.08 107 44.16 107 36 107 C36 110.96 36 114.92 36 119 C28.08 119 20.16 119 12 119 C12 115.04 12 111.08 12 107 C4.08 107 -3.84 107 -12 107 C-12 103.04 -12 99.08 -12 95 C-19.92 95 -27.84 95 -36 95 C-36 91.04 -36 87.08 -36 83 C-43.92 83 -51.84 83 -60 83 C-60 79.04 -60 75.08 -60 71 C-67.59 71 -75.18 71 -83 71 C-83 67.04 -83 63.08 -83 59 C-86.96 59 -90.92 59 -95 59 C-95 55.37 -95 51.74 -95 48 C-87.41 48 -79.82 48 -72 48 C-72 44.04 -72 40.08 -72 36 C-64.08 36 -56.16 36 -48 36 C-48 32.04 -48 28.08 -48 24 C-40.08 24 -32.16 24 -24 24 C-24 20.04 -24 16.08 -24 12 C-16.08 12 -8.16 12 0 12 C0 8.04 0 4.08 0 0 Z " transform="translate(382,48)" style="fill: #4DABCF;"/></svg>