<?xml version="1.0" encoding="UTF-8"?>
<!-- Generator: visioncortex VTracer -->
<svg id="svg" version="1.1" xmlns="http://www.w3.org/2000/svg" style="display: block;" viewBox="0 0 600 600"><path d="M0 0 C16.5 0 33 0 50 0 C50 137.61 50 275.22 50 417 C33.5 417 17 417 0 417 C0 279.39 0 141.78 0 0 Z " transform="translate(133,150)" style="fill: #1A237E;"/><path d="M0 0 C16.5 0 33 0 50 0 C50 137.61 50 275.22 50 417 C33.5 417 17 417 0 417 C0 279.39 0 141.78 0 0 Z " transform="translate(433,33)" style="fill: #1A237E;"/><path d="M0 0 C21.78 0 43.56 0 66 0 C66 43.89 66 87.78 66 133 C44.22 133 22.44 133 0 133 C0 89.11 0 45.22 0 0 Z " transform="translate(217,317)" style="fill: #1A237E;"/><path d="M0 0 C22.11 0 44.22 0 67 0 C67 38.61 67 77.22 67 117 C44.89 117 22.78 117 0 117 C0 78.39 0 39.78 0 0 Z " transform="translate(333,150)" style="fill: #1A237E;"/><path d="M0 0 C22.11 0 44.22 0 67 0 C67 38.28 67 76.56 67 116 C44.89 116 22.78 116 0 116 C0 77.72 0 39.44 0 0 Z " transform="translate(333,417)" style="fill: #1A237E;"/><path d="M0 0 C21.78 0 43.56 0 66 0 C66 38.61 66 77.22 66 117 C44.22 117 22.44 117 0 117 C0 78.39 0 39.78 0 0 Z " transform="translate(217,50)" style="fill: #1A237E;"/><path d="M0 0 C22.11 0 44.22 0 67 0 C67 21.78 67 43.56 67 66 C44.89 66 22.78 66 0 66 C0 44.22 0 22.44 0 0 Z " transform="translate(333,317)" style="fill: #FF4081;"/><path d="M0 0 C21.78 0 43.56 0 66 0 C66 22.11 66 44.22 66 67 C44.22 67 22.44 67 0 67 C0 44.89 0 22.78 0 0 Z " transform="translate(217,200)" style="fill: #FBC02D;"/></svg>