<?xml version="1.0" encoding="UTF-8"?>
<svg version="1.1" xmlns="http://www.w3.org/2000/svg" width="144" height="144"; viewBox="0 0 125 150">
<path d="M0 0 C10.56 0 21.12 0 32 0 C32 1.32 32 2.64 32 4 C39.92 4 47.84 4 56 4 C56 2.68 56 1.36 56 0 C69.2 0 82.4 0 96 0 C96 1.32 96 2.64 96 4 C97.32 4 98.64 4 100 4 C100 5.32 100 6.64 100 8 C102.64 8 105.28 8 108 8 C108 9.32 108 10.64 108 12 C109.32 12 110.64 12 112 12 C112 25.2 112 38.4 112 52 C110.68 52 109.36 52 108 52 C108 55.96 108 59.92 108 64 C106.68 64 105.36 64 104 64 C104 66.64 104 69.28 104 72 C102.68 72 101.36 72 100 72 C100 73.32 100 74.64 100 76 C103.96 76 107.92 76 112 76 C112 77.32 112 78.64 112 80 C113.32 80 114.64 80 116 80 C116 82.64 116 85.28 116 88 C114.68 88 113.36 88 112 88 C112 89.32 112 90.64 112 92 C110.68 92 109.36 92 108 92 C108 93.32 108 94.64 108 96 C104.04 96 100.08 96 96 96 C96 97.32 96 98.64 96 100 C93.36 100 90.72 100 88 100 C88 105.28 88 110.56 88 116 C86.68 116 85.36 116 84 116 C84 118.64 84 121.28 84 124 C82.68 124 81.36 124 80 124 C80 126.64 80 129.28 80 132 C77.36 132 74.72 132 72 132 C72 133.32 72 134.64 72 136 C66.72 136 61.44 136 56 136 C56 134.68 56 133.36 56 132 C54.68 132 53.36 132 52 132 C52 130.68 52 129.36 52 128 C50.68 128 49.36 128 48 128 C48 125.36 48 122.72 48 120 C46.68 120 45.36 120 44 120 C44 113.4 44 106.8 44 100 C42.68 100 41.36 100 40 100 C40 101.32 40 102.64 40 104 C37.36 104 34.72 104 32 104 C32 102.68 32 101.36 32 100 C22.76 100 13.52 100 4 100 C4 98.68 4 97.36 4 96 C2.68 96 1.36 96 0 96 C0 94.68 0 93.36 0 92 C-1.32 92 -2.64 92 -4 92 C-4 88.04 -4 84.08 -4 80 C-5.32 80 -6.64 80 -8 80 C-8 76.04 -8 72.08 -8 68 C-9.32 68 -10.64 68 -12 68 C-12 62.72 -12 57.44 -12 52 C-13.32 52 -14.64 52 -16 52 C-16 41.44 -16 30.88 -16 20 C-14.68 20 -13.36 20 -12 20 C-12 17.36 -12 14.72 -12 12 C-10.68 12 -9.36 12 -8 12 C-8 9.36 -8 6.72 -8 4 C-5.36 4 -2.72 4 0 4 C0 2.68 0 1.36 0 0 Z " fill="#F9FCFD" transform="translate(20,8)"/>
<path d="M0 0 C9.24 0 18.48 0 28 0 C28 1.32 28 2.64 28 4 C29.32 4 30.64 4 32 4 C32 5.32 32 6.64 32 8 C33.32 8 34.64 8 36 8 C36 9.32 36 10.64 36 12 C37.32 12 38.64 12 40 12 C40 13.32 40 14.64 40 16 C41.32 16 42.64 16 44 16 C44 18.64 44 21.28 44 24 C41.36 24 38.72 24 36 24 C36 25.32 36 26.64 36 28 C34.68 28 33.36 28 32 28 C32 34.6 32 41.2 32 48 C33.32 48 34.64 48 36 48 C36 50.64 36 53.28 36 56 C37.32 56 38.64 56 40 56 C40 58.64 40 61.28 40 64 C41.32 64 42.64 64 44 64 C44 65.32 44 66.64 44 68 C42.68 68 41.36 68 40 68 C40 79.88 40 91.76 40 104 C38.68 104 37.36 104 36 104 C36 105.32 36 106.64 36 108 C34.68 108 33.36 108 32 108 C32 109.32 32 110.64 32 112 C30.68 112 29.36 112 28 112 C28 113.32 28 114.64 28 116 C25.36 116 22.72 116 20 116 C20 114.68 20 113.36 20 112 C18.68 112 17.36 112 16 112 C16 109.36 16 106.72 16 104 C14.68 104 13.36 104 12 104 C12 93.44 12 82.88 12 72 C10.68 72 9.36 72 8 72 C8 70.68 8 69.36 8 68 C6.68 68 5.36 68 4 68 C4 65.36 4 62.72 4 60 C5.32 60 6.64 60 8 60 C8 49.44 8 38.88 8 28 C6.68 28 5.36 28 4 28 C4 26.68 4 25.36 4 24 C-1.28 24 -6.56 24 -12 24 C-12 20.04 -12 16.08 -12 12 C-10.68 12 -9.36 12 -8 12 C-8 10.68 -8 9.36 -8 8 C-6.68 8 -5.36 8 -4 8 C-4 6.68 -4 5.36 -4 4 C-2.68 4 -1.36 4 0 4 C0 2.68 0 1.36 0 0 Z " fill="#0679BE" transform="translate(60,20)"/>
<path d="M0 0 C7.92 0 15.84 0 24 0 C24 3.96 24 7.92 24 12 C22.68 12 21.36 12 20 12 C20 13.32 20 14.64 20 16 C18.68 16 17.36 16 16 16 C16 33.16 16 50.32 16 68 C17.32 68 18.64 68 20 68 C20 69.32 20 70.64 20 72 C21.32 72 22.64 72 24 72 C24 73.32 24 74.64 24 76 C22.68 76 21.36 76 20 76 C20 77.32 20 78.64 20 80 C18.68 80 17.36 80 16 80 C16 81.32 16 82.64 16 84 C12.04 84 8.08 84 4 84 C4 82.68 4 81.36 4 80 C2.68 80 1.36 80 0 80 C0 76.04 0 72.08 0 68 C-1.32 68 -2.64 68 -4 68 C-4 64.04 -4 60.08 -4 56 C-5.32 56 -6.64 56 -8 56 C-8 52.04 -8 48.08 -8 44 C-9.32 44 -10.64 44 -12 44 C-12 33.44 -12 22.88 -12 12 C-10.68 12 -9.36 12 -8 12 C-8 9.36 -8 6.72 -8 4 C-5.36 4 -2.72 4 0 4 C0 2.68 0 1.36 0 0 Z " fill="#077ABE" transform="translate(24,16)"/>
<path d="M0 0 C6.6 0 13.2 0 20 0 C20 1.32 20 2.64 20 4 C21.32 4 22.64 4 24 4 C24 5.32 24 6.64 24 8 C26.64 8 29.28 8 32 8 C32 18.56 32 29.12 32 40 C30.68 40 29.36 40 28 40 C28 43.96 28 47.92 28 52 C26.68 52 25.36 52 24 52 C24 54.64 24 57.28 24 60 C22.68 60 21.36 60 20 60 C20 48.12 20 36.24 20 24 C18.68 24 17.36 24 16 24 C16 21.36 16 18.72 16 16 C14.68 16 13.36 16 12 16 C12 14.68 12 13.36 12 12 C10.68 12 9.36 12 8 12 C8 10.68 8 9.36 8 8 C6.68 8 5.36 8 4 8 C4 6.68 4 5.36 4 4 C2.68 4 1.36 4 0 4 C0 2.68 0 1.36 0 0 Z " fill="#127FC1" transform="translate(92,16)"/>
<path d="M0 0 C3.96 0 7.92 0 12 0 C12 1.32 12 2.64 12 4 C10.68 4 9.36 4 8 4 C8 5.32 8 6.64 8 8 C10.64 8 13.28 8 16 8 C16 14.6 16 21.2 16 28 C14.68 28 13.36 28 12 28 C12 30.64 12 33.28 12 36 C8.04 36 4.08 36 0 36 C0 33.36 0 30.72 0 28 C-1.32 28 -2.64 28 -4 28 C-4 20.08 -4 12.16 -4 4 C-2.68 4 -1.36 4 0 4 C0 2.68 0 1.36 0 0 Z " fill="#0A7BBF" transform="translate(48,48)"/>
<path d="M0 0 C1.32 0 2.64 0 4 0 C4 1.32 4 2.64 4 4 C10.6 4 17.2 4 24 4 C24 5.32 24 6.64 24 8 C25.32 8 26.64 8 28 8 C28 17.24 28 26.48 28 36 C26.68 36 25.36 36 24 36 C24 29.4 24 22.8 24 16 C21.36 16 18.72 16 16 16 C16 14.68 16 13.36 16 12 C17.32 12 18.64 12 20 12 C20 10.68 20 9.36 20 8 C16.04 8 12.08 8 8 8 C8 9.32 8 10.64 8 12 C6.68 12 5.36 12 4 12 C4 19.92 4 27.84 4 36 C5.32 36 6.64 36 8 36 C8 39.96 8 43.92 8 48 C6.68 48 5.36 48 4 48 C4 46.68 4 45.36 4 44 C2.68 44 1.36 44 0 44 C0 29.48 0 14.96 0 0 Z " fill="#EBF4F9" transform="translate(40,40)"/>
<path d="M0 0 C1.32 0 2.64 0 4 0 C4 11.88 4 23.76 4 36 C5.32 36 6.64 36 8 36 C8 37.32 8 38.64 8 40 C6.68 40 5.36 40 4 40 C4 41.32 4 42.64 4 44 C2.68 44 1.36 44 0 44 C0 40.04 0 36.08 0 32 C-2.64 32 -5.28 32 -8 32 C-8 29.36 -8 26.72 -8 24 C-9.32 24 -10.64 24 -12 24 C-12 21.36 -12 18.72 -12 16 C-9.36 16 -6.72 16 -4 16 C-4 19.96 -4 23.92 -4 28 C-2.68 28 -1.36 28 0 28 C0 22.72 0 17.44 0 12 C-2.64 12 -5.28 12 -8 12 C-8 10.68 -8 9.36 -8 8 C-5.36 8 -2.72 8 0 8 C0 5.36 0 2.72 0 0 Z " fill="#B5D7EB" transform="translate(108,40)"/>
<path d="M0 0 C1.32 0 2.64 0 4 0 C4 3.96 4 7.92 4 12 C1.36 12 -1.28 12 -4 12 C-4 13.32 -4 14.64 -4 16 C-1.36 16 1.28 16 4 16 C4 21.28 4 26.56 4 32 C2.68 32 1.36 32 0 32 C0 28.04 0 24.08 0 20 C-2.64 20 -5.28 20 -8 20 C-8 22.64 -8 25.28 -8 28 C-9.32 28 -10.64 28 -12 28 C-12 22.72 -12 17.44 -12 12 C-10.68 12 -9.36 12 -8 12 C-8 10.68 -8 9.36 -8 8 C-5.36 8 -2.72 8 0 8 C0 5.36 0 2.72 0 0 Z " fill="#FAFCFD" transform="translate(104,36)"/>
<path d="M0 0 C5.28 0 10.56 0 16 0 C16 1.32 16 2.64 16 4 C12.04 4 8.08 4 4 4 C4 5.32 4 6.64 4 8 C5.32 8 6.64 8 8 8 C8 9.32 8 10.64 8 12 C9.32 12 10.64 12 12 12 C12 13.32 12 14.64 12 16 C13.32 16 14.64 16 16 16 C16 17.32 16 18.64 16 20 C17.32 20 18.64 20 20 20 C20 21.32 20 22.64 20 24 C17.36 24 14.72 24 12 24 C12 22.68 12 21.36 12 20 C10.68 20 9.36 20 8 20 C8 18.68 8 17.36 8 16 C6.68 16 5.36 16 4 16 C4 14.68 4 13.36 4 12 C2.68 12 1.36 12 0 12 C0 8.04 0 4.08 0 0 Z " fill="#D3E7F3" transform="translate(88,12)"/>
<path d="M0 0 C1.32 0 2.64 0 4 0 C4 2.64 4 5.28 4 8 C5.32 8 6.64 8 8 8 C8 9.32 8 10.64 8 12 C6.68 12 5.36 12 4 12 C4 13.32 4 14.64 4 16 C2.68 16 1.36 16 0 16 C0 19.96 0 23.92 0 28 C-1.32 28 -2.64 28 -4 28 C-4 26.68 -4 25.36 -4 24 C-5.32 24 -6.64 24 -8 24 C-8 21.36 -8 18.72 -8 16 C-6.68 16 -5.36 16 -4 16 C-4 14.68 -4 13.36 -4 12 C-2.68 12 -1.36 12 0 12 C0 8.04 0 4.08 0 0 Z " fill="#D9EAF5" transform="translate(48,16)"/>
<path d="M0 0 C6.6 0 13.2 0 20 0 C20 1.32 20 2.64 20 4 C17.36 4 14.72 4 12 4 C12 5.32 12 6.64 12 8 C8.04 8 4.08 8 0 8 C0 5.36 0 2.72 0 0 Z " fill="#5CA7D4" transform="translate(104,92)"/>
<path d="M0 0 C3.96 0 7.92 0 12 0 C12 7.92 12 15.84 12 24 C10.68 24 9.36 24 8 24 C8 17.4 8 10.8 8 4 C5.36 4 2.72 4 0 4 C0 2.68 0 1.36 0 0 Z " fill="#FCFDFE" transform="translate(56,52)"/>
<path d="M0 0 C1.32 0 2.64 0 4 0 C4 10.56 4 21.12 4 32 C2.68 32 1.36 32 0 32 C0 21.44 0 10.88 0 0 Z " fill="#2D8DC8" transform="translate(36,44)"/>
<path d="M0 0 C1.32 0 2.64 0 4 0 C4 7.92 4 15.84 4 24 C2.68 24 1.36 24 0 24 C0 20.04 0 16.08 0 12 C-2.64 12 -5.28 12 -8 12 C-8 10.68 -8 9.36 -8 8 C-5.36 8 -2.72 8 0 8 C0 5.36 0 2.72 0 0 Z " fill="#ADD3E9" transform="translate(108,40)"/>
<path d="M0 0 C1.32 0 2.64 0 4 0 C4 9.24 4 18.48 4 28 C2.68 28 1.36 28 0 28 C0 18.76 0 9.52 0 0 Z " fill="#489DCF" transform="translate(96,96)"/>
<path d="M0 0 C2.64 0 5.28 0 8 0 C8 2.64 8 5.28 8 8 C2.72 8 -2.56 8 -8 8 C-8 6.68 -8 5.36 -8 4 C-5.36 4 -2.72 4 0 4 C0 2.68 0 1.36 0 0 Z " fill="#0478BD" transform="translate(56,92)"/>
<path d="M0 0 C2.64 0 5.28 0 8 0 C8 1.32 8 2.64 8 4 C6.68 4 5.36 4 4 4 C4 6.64 4 9.28 4 12 C0.04 12 -3.92 12 -8 12 C-8 10.68 -8 9.36 -8 8 C-5.36 8 -2.72 8 0 8 C0 5.36 0 2.72 0 0 Z " fill="#FAFCFD" transform="translate(60,76)"/>
<path d="M0 0 C2.64 0 5.28 0 8 0 C8 2.64 8 5.28 8 8 C10.64 8 13.28 8 16 8 C16 9.32 16 10.64 16 12 C12.04 12 8.08 12 4 12 C4 9.36 4 6.72 4 4 C2.68 4 1.36 4 0 4 C0 2.68 0 1.36 0 0 Z " fill="#ECF5FA" transform="translate(92,64)"/>
<path d="M0 0 C2.64 0 5.28 0 8 0 C8 5.28 8 10.56 8 16 C6.68 16 5.36 16 4 16 C4 13.36 4 10.72 4 8 C2.68 8 1.36 8 0 8 C0 5.36 0 2.72 0 0 Z " fill="#1883C2" transform="translate(96,56)"/>
<path d="M0 0 C1.32 0 2.64 0 4 0 C4 7.92 4 15.84 4 24 C2.68 24 1.36 24 0 24 C0 16.08 0 8.16 0 0 Z " fill="#57A4D3" transform="translate(44,52)"/>
<path d="M0 0 C6.6 0 13.2 0 20 0 C20 1.32 20 2.64 20 4 C13.4 4 6.8 4 0 4 C0 2.68 0 1.36 0 0 Z " fill="#AED3EA" transform="translate(108,88)"/>
<path d="M0 0 C1.32 0 2.64 0 4 0 C4 1.32 4 2.64 4 4 C7.96 4 11.92 4 16 4 C16 5.32 16 6.64 16 8 C10.72 8 5.44 8 0 8 C0 5.36 0 2.72 0 0 Z " fill="#FEFEFE" transform="translate(48,84)"/>
<path d="M0 0 C1.32 0 2.64 0 4 0 C4 6.6 4 13.2 4 20 C2.68 20 1.36 20 0 20 C0 13.4 0 6.8 0 0 Z " fill="#61AAD6" transform="translate(60,56)"/>
<path d="M0 0 C2.64 0 5.28 0 8 0 C8 5.28 8 10.56 8 16 C6.68 16 5.36 16 4 16 C4 12.04 4 8.08 4 4 C2.68 4 1.36 4 0 4 C0 2.68 0 1.36 0 0 Z " fill="#F0F7FB" transform="translate(100,52)"/>
<path d="M0 0 C1.32 0 2.64 0 4 0 C4 2.64 4 5.28 4 8 C5.32 8 6.64 8 8 8 C8 9.32 8 10.64 8 12 C6.68 12 5.36 12 4 12 C4 13.32 4 14.64 4 16 C2.68 16 1.36 16 0 16 C0 10.72 0 5.44 0 0 Z " fill="#BEDCEE" transform="translate(48,16)"/>
<path d="M0 0 C5.28 0 10.56 0 16 0 C16 1.32 16 2.64 16 4 C10.72 4 5.44 4 0 4 C0 2.68 0 1.36 0 0 Z " fill="#98C8E4" transform="translate(48,100)"/>
<path d="M0 0 C5.28 0 10.56 0 16 0 C16 1.32 16 2.64 16 4 C10.72 4 5.44 4 0 4 C0 2.68 0 1.36 0 0 Z " fill="#0F7EC0" transform="translate(108,92)"/>
<path d="M0 0 C1.32 0 2.64 0 4 0 C4 1.32 4 2.64 4 4 C5.32 4 6.64 4 8 4 C8 5.32 8 6.64 8 8 C6.68 8 5.36 8 4 8 C4 9.32 4 10.64 4 12 C2.68 12 1.36 12 0 12 C0 8.04 0 4.08 0 0 Z " fill="#C9E1F0" transform="translate(64,88)"/>
<path d="M0 0 C3.96 0 7.92 0 12 0 C12 1.32 12 2.64 12 4 C9.36 4 6.72 4 4 4 C4 5.32 4 6.64 4 8 C2.68 8 1.36 8 0 8 C0 5.36 0 2.72 0 0 Z " fill="#C9E2F1" transform="translate(44,92)"/>
<path d="M0 0 C1.32 0 2.64 0 4 0 C4 5.28 4 10.56 4 16 C2.68 16 1.36 16 0 16 C0 10.72 0 5.44 0 0 Z " fill="#3290C9" transform="translate(68,56)"/>
<path d="M0 0 C3.96 0 7.92 0 12 0 C12 1.32 12 2.64 12 4 C10.68 4 9.36 4 8 4 C8 5.32 8 6.64 8 8 C6.68 8 5.36 8 4 8 C4 6.68 4 5.36 4 4 C2.68 4 1.36 4 0 4 C0 2.68 0 1.36 0 0 Z " fill="#4B9DD0" transform="translate(48,48)"/>
<path d="M0 0 C5.28 0 10.56 0 16 0 C16 1.32 16 2.64 16 4 C10.72 4 5.44 4 0 4 C0 2.68 0 1.36 0 0 Z " fill="#98C7E4" transform="translate(64,16)"/>
<path d="M0 0 C2.64 0 5.28 0 8 0 C8 1.32 8 2.64 8 4 C6.68 4 5.36 4 4 4 C4 5.32 4 6.64 4 8 C2.68 8 1.36 8 0 8 C0 5.36 0 2.72 0 0 Z " fill="#85BDDF" transform="translate(108,76)"/>
<path d="M0 0 C1.32 0 2.64 0 4 0 C4 1.32 4 2.64 4 4 C5.32 4 6.64 4 8 4 C8 5.32 8 6.64 8 8 C5.36 8 2.72 8 0 8 C0 5.36 0 2.72 0 0 Z " fill="#D8EAF4" transform="translate(60,44)"/>
<path d="M0 0 C3.96 0 7.92 0 12 0 C12 1.32 12 2.64 12 4 C8.04 4 4.08 4 0 4 C0 2.68 0 1.36 0 0 Z " fill="#5DA8D4" transform="translate(48,40)"/>
<path d="M0 0 C1.32 0 2.64 0 4 0 C4 3.96 4 7.92 4 12 C2.68 12 1.36 12 0 12 C0 8.04 0 4.08 0 0 Z " fill="#8EC2E1" transform="translate(124,32)"/>
<path d="M0 0 C1.32 0 2.64 0 4 0 C4 1.32 4 2.64 4 4 C5.32 4 6.64 4 8 4 C8 5.32 8 6.64 8 8 C5.36 8 2.72 8 0 8 C0 5.36 0 2.72 0 0 Z " fill="#E1EFF7" transform="translate(100,28)"/>
<path d="M0 0 C3.96 0 7.92 0 12 0 C12 1.32 12 2.64 12 4 C8.04 4 4.08 4 0 4 C0 2.68 0 1.36 0 0 Z " fill="#CCE3F1" transform="translate(28,12)"/>
<path d="M0 0 C2.64 0 5.28 0 8 0 C8 1.32 8 2.64 8 4 C5.36 4 2.72 4 0 4 C0 2.68 0 1.36 0 0 Z " fill="#56A4D2" transform="translate(80,132)"/>
<path d="M0 0 C1.32 0 2.64 0 4 0 C4 2.64 4 5.28 4 8 C2.68 8 1.36 8 0 8 C0 5.36 0 2.72 0 0 Z " fill="#BADAEC" transform="translate(72,124)"/>
<path d="M0 0 C2.64 0 5.28 0 8 0 C8 1.32 8 2.64 8 4 C5.36 4 2.72 4 0 4 C0 2.68 0 1.36 0 0 Z " fill="#B3D6EB" transform="translate(32,100)"/>
<path d="M0 0 C1.32 0 2.64 0 4 0 C4 2.64 4 5.28 4 8 C2.68 8 1.36 8 0 8 C0 5.36 0 2.72 0 0 Z " fill="#7DB9DD" transform="translate(104,92)"/>
<path d="M0 0 C2.64 0 5.28 0 8 0 C8 1.32 8 2.64 8 4 C5.36 4 2.72 4 0 4 C0 2.68 0 1.36 0 0 Z " fill="#59A6D4" transform="translate(56,92)"/>
<path d="M0 0 C2.64 0 5.28 0 8 0 C8 1.32 8 2.64 8 4 C5.36 4 2.72 4 0 4 C0 2.68 0 1.36 0 0 Z " fill="#D6E9F4" transform="translate(100,88)"/>
<path d="M0 0 C1.32 0 2.64 0 4 0 C4 2.64 4 5.28 4 8 C2.68 8 1.36 8 0 8 C0 5.36 0 2.72 0 0 Z " fill="#A3CDE7" transform="translate(20,84)"/>
<path d="M0 0 C1.32 0 2.64 0 4 0 C4 2.64 4 5.28 4 8 C2.68 8 1.36 8 0 8 C0 5.36 0 2.72 0 0 Z " fill="#3894CA" transform="translate(64,80)"/>
<path d="M0 0 C2.64 0 5.28 0 8 0 C8 1.32 8 2.64 8 4 C5.36 4 2.72 4 0 4 C0 2.68 0 1.36 0 0 Z " fill="#A3CDE7" transform="translate(52,84)"/>
<path d="M0 0 C2.64 0 5.28 0 8 0 C8 1.32 8 2.64 8 4 C5.36 4 2.72 4 0 4 C0 2.68 0 1.36 0 0 Z " fill="#CAE2F1" transform="translate(60,76)"/>
<path d="M0 0 C1.32 0 2.64 0 4 0 C4 2.64 4 5.28 4 8 C2.68 8 1.36 8 0 8 C0 5.36 0 2.72 0 0 Z " fill="#9BC9E4" transform="translate(16,72)"/>
<path d="M0 0 C2.64 0 5.28 0 8 0 C8 1.32 8 2.64 8 4 C5.36 4 2.72 4 0 4 C0 2.68 0 1.36 0 0 Z " fill="#D2E7F3" transform="translate(100,72)"/>
<path d="M0 0 C1.32 0 2.64 0 4 0 C4 2.64 4 5.28 4 8 C2.68 8 1.36 8 0 8 C0 5.36 0 2.72 0 0 Z " fill="#459BCE" transform="translate(44,68)"/>
<path d="M0 0 C1.32 0 2.64 0 4 0 C4 2.64 4 5.28 4 8 C2.68 8 1.36 8 0 8 C0 5.36 0 2.72 0 0 Z " fill="#4198CD" transform="translate(36,68)"/>
<path d="M0 0 C2.64 0 5.28 0 8 0 C8 1.32 8 2.64 8 4 C5.36 4 2.72 4 0 4 C0 2.68 0 1.36 0 0 Z " fill="#CFE5F2" transform="translate(92,64)"/>
<path d="M0 0 C1.32 0 2.64 0 4 0 C4 2.64 4 5.28 4 8 C2.68 8 1.36 8 0 8 C0 5.36 0 2.72 0 0 Z " fill="#D3E7F3" transform="translate(12,60)"/>
<path d="M0 0 C1.32 0 2.64 0 4 0 C4 2.64 4 5.28 4 8 C2.68 8 1.36 8 0 8 C0 5.36 0 2.72 0 0 Z " fill="#B1D5EA" transform="translate(120,56)"/>
<path d="M0 0 C1.32 0 2.64 0 4 0 C4 2.64 4 5.28 4 8 C2.68 8 1.36 8 0 8 C0 5.36 0 2.72 0 0 Z " fill="#5EA8D5" transform="translate(96,56)"/>
<path d="M0 0 C1.32 0 2.64 0 4 0 C4 2.64 4 5.28 4 8 C2.68 8 1.36 8 0 8 C0 5.36 0 2.72 0 0 Z " fill="#86BEDF" transform="translate(108,56)"/>
<path d="M0 0 C1.32 0 2.64 0 4 0 C4 2.64 4 5.28 4 8 C2.68 8 1.36 8 0 8 C0 5.36 0 2.72 0 0 Z " fill="#61AAD6" transform="translate(88,52)"/>
<path d="M0 0 C1.32 0 2.64 0 4 0 C4 2.64 4 5.28 4 8 C2.68 8 1.36 8 0 8 C0 5.36 0 2.72 0 0 Z " fill="#6AAFD8" transform="translate(12,52)"/>
<path d="M0 0 C2.64 0 5.28 0 8 0 C8 1.32 8 2.64 8 4 C5.36 4 2.72 4 0 4 C0 2.68 0 1.36 0 0 Z " fill="#DEEDF6" transform="translate(100,52)"/>
<path d="M0 0 C1.32 0 2.64 0 4 0 C4 2.64 4 5.28 4 8 C2.68 8 1.36 8 0 8 C0 5.36 0 2.72 0 0 Z " fill="#D8EAF4" transform="translate(124,44)"/>
<path d="M0 0 C2.64 0 5.28 0 8 0 C8 1.32 8 2.64 8 4 C5.36 4 2.72 4 0 4 C0 2.68 0 1.36 0 0 Z " fill="#91C4E2" transform="translate(100,48)"/>
<path d="M0 0 C1.32 0 2.64 0 4 0 C4 2.64 4 5.28 4 8 C2.68 8 1.36 8 0 8 C0 5.36 0 2.72 0 0 Z " fill="#62AAD6" transform="translate(100,36)"/>
<path d="M0 0 C1.32 0 2.64 0 4 0 C4 2.64 4 5.28 4 8 C2.68 8 1.36 8 0 8 C0 5.36 0 2.72 0 0 Z " fill="#86BEDF" transform="translate(40,32)"/>
<path d="M0 0 C1.32 0 2.64 0 4 0 C4 2.64 4 5.28 4 8 C2.68 8 1.36 8 0 8 C0 5.36 0 2.72 0 0 Z " fill="#4A9DD0" transform="translate(12,28)"/>
<path d="M0 0 C1.32 0 2.64 0 4 0 C4 2.64 4 5.28 4 8 C2.68 8 1.36 8 0 8 C0 5.36 0 2.72 0 0 Z " fill="#92C5E3" transform="translate(48,16)"/>
</svg>
