<?xml version="1.0" encoding="UTF-8"?>
<svg version="1.1" viewBox="-10 -50 350 330" xmlns="http://www.w3.org/2000/svg">
<path d="M0 0 C23.1 0 46.2 0 70 0 C70 2.97 70 5.94 70 9 C72.64 9 75.28 9 78 9 C78 34.74 78 60.48 78 87 C75.36 87 72.72 87 70 87 C70 89.64 70 92.28 70 95 C46.9 95 23.8 95 0 95 C0 97.31 0 99.62 0 102 C-2.64 102 -5.28 102 -8 102 C-8 104.64 -8 107.28 -8 110 C-10.64 110 -13.28 110 -16 110 C-16 120.23 -16 130.46 -16 141 C-26.23 141 -36.46 141 -47 141 C-47 138.69 -47 136.38 -47 134 C-49.64 134 -52.28 134 -55 134 C-55 110.57 -55 87.14 -55 63 C-52.36 63 -49.72 63 -47 63 C-47 60.36 -47 57.72 -47 55 C-34.13 55 -21.26 55 -8 55 C-8 39.82 -8 24.64 -8 9 C-5.36 9 -2.72 9 0 9 C0 6.03 0 3.06 0 0 Z " fill="#01456D" transform="translate(136,7)"/>
<path d="M0 0 C12.87 0 25.74 0 39 0 C39 2.64 39 5.28 39 8 C41.64 8 44.28 8 47 8 C47 31.43 47 54.86 47 79 C44.36 79 41.72 79 39 79 C39 81.31 39 83.62 39 86 C23.49 86 7.98 86 -8 86 C-8 98.87 -8 111.74 -8 125 C-10.64 125 -13.28 125 -16 125 C-16 127.64 -16 130.28 -16 133 C-39.1 133 -62.2 133 -86 133 C-86 130.36 -86 127.72 -86 125 C-88.64 125 -91.28 125 -94 125 C-94 101.9 -94 78.8 -94 55 C-91.36 55 -88.72 55 -86 55 C-86 52.36 -86 49.72 -86 47 C-62.9 47 -39.8 47 -16 47 C-16 44.69 -16 42.38 -16 40 C-13.36 40 -10.72 40 -8 40 C-8 37.36 -8 34.72 -8 32 C-5.36 32 -2.72 32 0 32 C0 21.44 0 10.88 0 0 Z " fill="#FDD14D" transform="translate(222,62)"/>
<path d="M0 0 C12.87 0 25.74 0 39 0 C39 2.64 39 5.28 39 8 C26.13 8 13.26 8 0 8 C0 5.36 0 2.72 0 0 Z " fill="#FFA300" transform="translate(175,148)"/>
<path d="M0 0 C12.87 0 25.74 0 39 0 C39 2.31 39 4.62 39 7 C26.13 7 13.26 7 0 7 C0 4.69 0 2.38 0 0 Z " fill="#1E1757" transform="translate(128,55)"/>
<path d="M0 0 C2.64 0 5.28 0 8 0 C8 2.64 8 5.28 8 8 C5.36 8 2.72 8 0 8 C0 5.36 0 2.72 0 0 Z " fill="#FFFFFF" transform="translate(183,172)"/>
<path d="M0 0 C2.31 0 4.62 0 7 0 C7 2.64 7 5.28 7 8 C4.69 8 2.38 8 0 8 C0 5.36 0 2.72 0 0 Z " fill="#FFFFFF" transform="translate(152,23)"/>
</svg>
