<?xml version="1.0" encoding="UTF-8"?>
<!-- Generator: visioncortex VTracer -->
<svg id="svg" version="1.1" xmlns="http://www.w3.org/2000/svg" style="display: block;" viewBox="0 0 3840 3417"><path d="M0 0 C134.97 0 269.94 0 409 0 C409 26.73 409 53.46 409 81 C462.79 81 516.58 81 572 81 C572 108.06 572 135.12 572 163 C599.06 163 626.12 163 654 163 C654 189.73 654 216.46 654 244 C707.79 244 761.58 244 817 244 C817 270.73 817 297.46 817 325 C844.06 325 871.12 325 899 325 C899 352.06 899 379.12 899 407 C926.06 407 953.12 407 981 407 C981 379.94 981 352.88 981 325 C1008.06 325 1035.12 325 1063 325 C1063 298.27 1063 271.54 1063 244 C1116.79 244 1170.58 244 1226 244 C1226 217.27 1226 190.54 1226 163 C1253.06 163 1280.12 163 1308 163 C1308 135.94 1308 108.88 1308 81 C1361.79 81 1415.58 81 1471 81 C1471 54.27 1471 27.54 1471 0 C1605.97 0 1740.94 0 1880 0 C1880 26.73 1880 53.46 1880 81 C1906.73 81 1933.46 81 1961 81 C1961 108.06 1961 135.12 1961 163 C1988.06 163 2015.12 163 2043 163 C2043 189.73 2043 216.46 2043 244 C2070.06 244 2097.12 244 2125 244 C2125 485.56 2125 727.12 2125 976 C2097.94 976 2070.88 976 2043 976 C2043 1003.06 2043 1030.12 2043 1058 C2096.79 1058 2150.58 1058 2206 1058 C2206 1084.73 2206 1111.46 2206 1139 C2260.12 1139 2314.24 1139 2370 1139 C2370 1165.73 2370 1192.46 2370 1220 C2423.79 1220 2477.58 1220 2533 1220 C2533 1247.06 2533 1274.12 2533 1302 C2560.06 1302 2587.12 1302 2615 1302 C2615 1328.73 2615 1355.46 2615 1383 C2668.79 1383 2722.58 1383 2778 1383 C2778 1436.79 2778 1490.58 2778 1546 C2805.06 1546 2832.12 1546 2860 1546 C2860 1653.25 2860 1760.5 2860 1871 C2832.94 1871 2805.88 1871 2778 1871 C2778 1924.79 2778 1978.58 2778 2034 C2724.21 2034 2670.42 2034 2615 2034 C2615 2060.73 2615 2087.46 2615 2115 C2587.94 2115 2560.88 2115 2533 2115 C2533 2142.06 2533 2169.12 2533 2197 C2479.21 2197 2425.42 2197 2370 2197 C2370 2223.73 2370 2250.46 2370 2278 C2315.88 2278 2261.76 2278 2206 2278 C2206 2304.73 2206 2331.46 2206 2359 C2152.21 2359 2098.42 2359 2043 2359 C2043 2386.06 2043 2413.12 2043 2441 C2070.06 2441 2097.12 2441 2125 2441 C2125 2655.83 2125 2870.66 2125 3092 C2097.94 3092 2070.88 3092 2043 3092 C2043 3145.46 2043 3198.92 2043 3254 C2015.94 3254 1988.88 3254 1961 3254 C1961 3281.06 1961 3308.12 1961 3336 C1934.27 3336 1907.54 3336 1880 3336 C1880 3362.73 1880 3389.46 1880 3417 C1745.03 3417 1610.06 3417 1471 3417 C1471 3390.27 1471 3363.54 1471 3336 C1417.21 3336 1363.42 3336 1308 3336 C1308 3308.94 1308 3281.88 1308 3254 C1280.94 3254 1253.88 3254 1226 3254 C1226 3227.27 1226 3200.54 1226 3173 C1172.21 3173 1118.42 3173 1063 3173 C1063 3146.27 1063 3119.54 1063 3092 C1035.94 3092 1008.88 3092 981 3092 C981 3064.94 981 3037.88 981 3010 C953.94 3010 926.88 3010 899 3010 C899 3037.06 899 3064.12 899 3092 C871.94 3092 844.88 3092 817 3092 C817 3118.73 817 3145.46 817 3173 C763.21 3173 709.42 3173 654 3173 C654 3199.73 654 3226.46 654 3254 C626.94 3254 599.88 3254 572 3254 C572 3281.06 572 3308.12 572 3336 C518.21 3336 464.42 3336 409 3336 C409 3362.73 409 3389.46 409 3417 C274.03 3417 139.06 3417 0 3417 C0 3390.27 0 3363.54 0 3336 C-26.73 3336 -53.46 3336 -81 3336 C-81 3308.94 -81 3281.88 -81 3254 C-108.06 3254 -135.12 3254 -163 3254 C-163 3200.54 -163 3147.08 -163 3092 C-190.06 3092 -217.12 3092 -245 3092 C-245 2877.17 -245 2662.34 -245 2441 C-217.94 2441 -190.88 2441 -163 2441 C-163 2413.94 -163 2386.88 -163 2359 C-216.79 2359 -270.58 2359 -326 2359 C-326 2332.27 -326 2305.54 -326 2278 C-380.12 2278 -434.24 2278 -490 2278 C-490 2251.27 -490 2224.54 -490 2197 C-543.79 2197 -597.58 2197 -653 2197 C-653 2169.94 -653 2142.88 -653 2115 C-680.06 2115 -707.12 2115 -735 2115 C-735 2088.27 -735 2061.54 -735 2034 C-788.79 2034 -842.58 2034 -898 2034 C-898 1980.21 -898 1926.42 -898 1871 C-925.06 1871 -952.12 1871 -980 1871 C-980 1763.75 -980 1656.5 -980 1546 C-952.94 1546 -925.88 1546 -898 1546 C-898 1492.21 -898 1438.42 -898 1383 C-844.21 1383 -790.42 1383 -735 1383 C-735 1356.27 -735 1329.54 -735 1302 C-707.94 1302 -680.88 1302 -653 1302 C-653 1274.94 -653 1247.88 -653 1220 C-599.21 1220 -545.42 1220 -490 1220 C-490 1193.27 -490 1166.54 -490 1139 C-435.88 1139 -381.76 1139 -326 1139 C-326 1112.27 -326 1085.54 -326 1058 C-272.21 1058 -218.42 1058 -163 1058 C-163 1030.94 -163 1003.88 -163 976 C-190.06 976 -217.12 976 -245 976 C-245 734.44 -245 492.88 -245 244 C-217.94 244 -190.88 244 -163 244 C-163 217.27 -163 190.54 -163 163 C-135.94 163 -108.88 163 -81 163 C-81 135.94 -81 108.88 -81 81 C-54.27 81 -27.54 81 0 81 C0 54.27 0 27.54 0 0 Z M82 163 C82 189.73 82 216.46 82 244 C54.94 244 27.88 244 0 244 C0 270.73 0 297.46 0 325 C-26.73 325 -53.46 325 -81 325 C-81 513.1 -81 701.2 -81 895 C-54.27 895 -27.54 895 0 895 C0 921.73 0 948.46 0 976 C162.03 976 324.06 976 491 976 C491 949.27 491 922.54 491 895 C517.73 895 544.46 895 572 895 C572 868.27 572 841.54 572 814 C599.06 814 626.12 814 654 814 C654 760.21 654 706.42 654 651 C681.06 651 708.12 651 736 651 C736 623.94 736 596.88 736 569 C762.73 569 789.46 569 817 569 C817 542.27 817 515.54 817 488 C790.27 488 763.54 488 736 488 C736 461.27 736 434.54 736 407 C708.94 407 681.88 407 654 407 C654 379.94 654 352.88 654 325 C600.21 325 546.42 325 491 325 C491 298.27 491 271.54 491 244 C436.88 244 382.76 244 327 244 C327 217.27 327 190.54 327 163 C246.15 163 165.3 163 82 163 Z M1553 163 C1553 189.73 1553 216.46 1553 244 C1498.88 244 1444.76 244 1389 244 C1389 270.73 1389 297.46 1389 325 C1335.21 325 1281.42 325 1226 325 C1226 352.06 1226 379.12 1226 407 C1198.94 407 1171.88 407 1144 407 C1144 433.73 1144 460.46 1144 488 C1117.27 488 1090.54 488 1063 488 C1063 514.73 1063 541.46 1063 569 C1089.73 569 1116.46 569 1144 569 C1144 596.06 1144 623.12 1144 651 C1171.06 651 1198.12 651 1226 651 C1226 704.79 1226 758.58 1226 814 C1253.06 814 1280.12 814 1308 814 C1308 840.73 1308 867.46 1308 895 C1334.73 895 1361.46 895 1389 895 C1389 921.73 1389 948.46 1389 976 C1551.03 976 1713.06 976 1880 976 C1880 949.27 1880 922.54 1880 895 C1906.73 895 1933.46 895 1961 895 C1961 706.9 1961 518.8 1961 325 C1934.27 325 1907.54 325 1880 325 C1880 298.27 1880 271.54 1880 244 C1852.94 244 1825.88 244 1798 244 C1798 217.27 1798 190.54 1798 163 C1717.15 163 1636.3 163 1553 163 Z M899 651 C899 677.73 899 704.46 899 732 C871.94 732 844.88 732 817 732 C817 759.06 817 786.12 817 814 C790.27 814 763.54 814 736 814 C736 840.73 736 867.46 736 895 C870.64 895 1005.28 895 1144 895 C1144 868.27 1144 841.54 1144 814 C1117.27 814 1090.54 814 1063 814 C1063 786.94 1063 759.88 1063 732 C1035.94 732 1008.88 732 981 732 C981 705.27 981 678.54 981 651 C953.94 651 926.88 651 899 651 Z M654 1058 C654 1084.73 654 1111.46 654 1139 C626.94 1139 599.88 1139 572 1139 C572 1165.73 572 1192.46 572 1220 C545.27 1220 518.54 1220 491 1220 C491 1247.06 491 1274.12 491 1302 C463.94 1302 436.88 1302 409 1302 C409 1355.46 409 1408.92 409 1464 C381.94 1464 354.88 1464 327 1464 C327 1517.79 327 1571.58 327 1627 C300.27 1627 273.54 1627 246 1627 C246 1680.79 246 1734.58 246 1790 C272.73 1790 299.46 1790 327 1790 C327 1843.79 327 1897.58 327 1953 C354.06 1953 381.12 1953 409 1953 C409 2006.46 409 2059.92 409 2115 C436.06 2115 463.12 2115 491 2115 C491 2142.06 491 2169.12 491 2197 C517.73 2197 544.46 2197 572 2197 C572 2223.73 572 2250.46 572 2278 C599.06 2278 626.12 2278 654 2278 C654 2304.73 654 2331.46 654 2359 C842.76 2359 1031.52 2359 1226 2359 C1226 2332.27 1226 2305.54 1226 2278 C1253.06 2278 1280.12 2278 1308 2278 C1308 2251.27 1308 2224.54 1308 2197 C1334.73 2197 1361.46 2197 1389 2197 C1389 2169.94 1389 2142.88 1389 2115 C1416.06 2115 1443.12 2115 1471 2115 C1471 2061.54 1471 2008.08 1471 1953 C1498.06 1953 1525.12 1953 1553 1953 C1553 1899.21 1553 1845.42 1553 1790 C1579.73 1790 1606.46 1790 1634 1790 C1634 1736.21 1634 1682.42 1634 1627 C1607.27 1627 1580.54 1627 1553 1627 C1553 1573.21 1553 1519.42 1553 1464 C1525.94 1464 1498.88 1464 1471 1464 C1471 1410.54 1471 1357.08 1471 1302 C1443.94 1302 1416.88 1302 1389 1302 C1389 1274.94 1389 1247.88 1389 1220 C1362.27 1220 1335.54 1220 1308 1220 C1308 1193.27 1308 1166.54 1308 1139 C1280.94 1139 1253.88 1139 1226 1139 C1226 1112.27 1226 1085.54 1226 1058 C1037.24 1058 848.48 1058 654 1058 Z M82 1139 C82 1246.25 82 1353.5 82 1464 C109.06 1464 136.12 1464 164 1464 C164 1437.27 164 1410.54 164 1383 C191.06 1383 218.12 1383 246 1383 C246 1356.27 246 1329.54 246 1302 C272.73 1302 299.46 1302 327 1302 C327 1248.21 327 1194.42 327 1139 C246.15 1139 165.3 1139 82 1139 Z M1553 1139 C1553 1192.79 1553 1246.58 1553 1302 C1579.73 1302 1606.46 1302 1634 1302 C1634 1328.73 1634 1355.46 1634 1383 C1661.06 1383 1688.12 1383 1716 1383 C1716 1409.73 1716 1436.46 1716 1464 C1743.06 1464 1770.12 1464 1798 1464 C1798 1356.75 1798 1249.5 1798 1139 C1717.15 1139 1636.3 1139 1553 1139 Z M-245 1220 C-245 1247.06 -245 1274.12 -245 1302 C-325.85 1302 -406.7 1302 -490 1302 C-490 1328.73 -490 1355.46 -490 1383 C-516.73 1383 -543.46 1383 -571 1383 C-571 1409.73 -571 1436.46 -571 1464 C-625.12 1464 -679.24 1464 -735 1464 C-735 1517.79 -735 1571.58 -735 1627 C-762.06 1627 -789.12 1627 -817 1627 C-817 1680.79 -817 1734.58 -817 1790 C-789.94 1790 -762.88 1790 -735 1790 C-735 1843.79 -735 1897.58 -735 1953 C-680.88 1953 -626.76 1953 -571 1953 C-571 1979.73 -571 2006.46 -571 2034 C-544.27 2034 -517.54 2034 -490 2034 C-490 2060.73 -490 2087.46 -490 2115 C-409.15 2115 -328.3 2115 -245 2115 C-245 2142.06 -245 2169.12 -245 2197 C-190.88 2197 -136.76 2197 -81 2197 C-81 2116.48 -81 2035.96 -81 1953 C-54.27 1953 -27.54 1953 0 1953 C0 1791.63 0 1630.26 0 1464 C-26.73 1464 -53.46 1464 -81 1464 C-81 1383.48 -81 1302.96 -81 1220 C-135.12 1220 -189.24 1220 -245 1220 Z M1961 1220 C1961 1300.52 1961 1381.04 1961 1464 C1934.27 1464 1907.54 1464 1880 1464 C1880 1625.37 1880 1786.74 1880 1953 C1906.73 1953 1933.46 1953 1961 1953 C1961 2033.52 1961 2114.04 1961 2197 C2015.12 2197 2069.24 2197 2125 2197 C2125 2169.94 2125 2142.88 2125 2115 C2205.85 2115 2286.7 2115 2370 2115 C2370 2088.27 2370 2061.54 2370 2034 C2396.73 2034 2423.46 2034 2451 2034 C2451 2007.27 2451 1980.54 2451 1953 C2505.12 1953 2559.24 1953 2615 1953 C2615 1899.21 2615 1845.42 2615 1790 C2642.06 1790 2669.12 1790 2697 1790 C2697 1736.21 2697 1682.42 2697 1627 C2669.94 1627 2642.88 1627 2615 1627 C2615 1573.21 2615 1519.42 2615 1464 C2560.88 1464 2506.76 1464 2451 1464 C2451 1437.27 2451 1410.54 2451 1383 C2424.27 1383 2397.54 1383 2370 1383 C2370 1356.27 2370 1329.54 2370 1302 C2289.15 1302 2208.3 1302 2125 1302 C2125 1274.94 2125 1247.88 2125 1220 C2070.88 1220 2016.76 1220 1961 1220 Z M82 1953 C82 2060.25 82 2167.5 82 2278 C162.85 2278 243.7 2278 327 2278 C327 2224.21 327 2170.42 327 2115 C300.27 2115 273.54 2115 246 2115 C246 2088.27 246 2061.54 246 2034 C218.94 2034 191.88 2034 164 2034 C164 2007.27 164 1980.54 164 1953 C136.94 1953 109.88 1953 82 1953 Z M1716 1953 C1716 1979.73 1716 2006.46 1716 2034 C1688.94 2034 1661.88 2034 1634 2034 C1634 2060.73 1634 2087.46 1634 2115 C1607.27 2115 1580.54 2115 1553 2115 C1553 2168.79 1553 2222.58 1553 2278 C1633.85 2278 1714.7 2278 1798 2278 C1798 2170.75 1798 2063.5 1798 1953 C1770.94 1953 1743.88 1953 1716 1953 Z M0 2441 C0 2467.73 0 2494.46 0 2522 C-26.73 2522 -53.46 2522 -81 2522 C-81 2710.1 -81 2898.2 -81 3092 C-54.27 3092 -27.54 3092 0 3092 C0 3118.73 0 3145.46 0 3173 C27.06 3173 54.12 3173 82 3173 C82 3199.73 82 3226.46 82 3254 C162.85 3254 243.7 3254 327 3254 C327 3227.27 327 3200.54 327 3173 C381.12 3173 435.24 3173 491 3173 C491 3146.27 491 3119.54 491 3092 C544.79 3092 598.58 3092 654 3092 C654 3064.94 654 3037.88 654 3010 C681.06 3010 708.12 3010 736 3010 C736 2983.27 736 2956.54 736 2929 C762.73 2929 789.46 2929 817 2929 C817 2901.94 817 2874.88 817 2847 C790.27 2847 763.54 2847 736 2847 C736 2820.27 736 2793.54 736 2766 C708.94 2766 681.88 2766 654 2766 C654 2712.21 654 2658.42 654 2603 C626.94 2603 599.88 2603 572 2603 C572 2576.27 572 2549.54 572 2522 C545.27 2522 518.54 2522 491 2522 C491 2495.27 491 2468.54 491 2441 C328.97 2441 166.94 2441 0 2441 Z M1389 2441 C1389 2467.73 1389 2494.46 1389 2522 C1362.27 2522 1335.54 2522 1308 2522 C1308 2548.73 1308 2575.46 1308 2603 C1280.94 2603 1253.88 2603 1226 2603 C1226 2656.79 1226 2710.58 1226 2766 C1198.94 2766 1171.88 2766 1144 2766 C1144 2792.73 1144 2819.46 1144 2847 C1117.27 2847 1090.54 2847 1063 2847 C1063 2874.06 1063 2901.12 1063 2929 C1089.73 2929 1116.46 2929 1144 2929 C1144 2955.73 1144 2982.46 1144 3010 C1171.06 3010 1198.12 3010 1226 3010 C1226 3037.06 1226 3064.12 1226 3092 C1279.79 3092 1333.58 3092 1389 3092 C1389 3118.73 1389 3145.46 1389 3173 C1443.12 3173 1497.24 3173 1553 3173 C1553 3199.73 1553 3226.46 1553 3254 C1633.85 3254 1714.7 3254 1798 3254 C1798 3227.27 1798 3200.54 1798 3173 C1825.06 3173 1852.12 3173 1880 3173 C1880 3146.27 1880 3119.54 1880 3092 C1906.73 3092 1933.46 3092 1961 3092 C1961 2903.9 1961 2715.8 1961 2522 C1934.27 2522 1907.54 2522 1880 2522 C1880 2495.27 1880 2468.54 1880 2441 C1717.97 2441 1555.94 2441 1389 2441 Z M736 2522 C736 2548.73 736 2575.46 736 2603 C762.73 2603 789.46 2603 817 2603 C817 2630.06 817 2657.12 817 2685 C844.06 2685 871.12 2685 899 2685 C899 2711.73 899 2738.46 899 2766 C926.06 2766 953.12 2766 981 2766 C981 2739.27 981 2712.54 981 2685 C1008.06 2685 1035.12 2685 1063 2685 C1063 2657.94 1063 2630.88 1063 2603 C1089.73 2603 1116.46 2603 1144 2603 C1144 2576.27 1144 2549.54 1144 2522 C1009.36 2522 874.72 2522 736 2522 Z " transform="translate(980,0)" fill="currentColor"/><path d="M0 0 C134.64 0 269.28 0 408 0 C408 26.73 408 53.46 408 81 C435.06 81 462.12 81 490 81 C490 134.79 490 188.58 490 244 C517.06 244 544.12 244 572 244 C572 297.79 572 351.58 572 407 C544.94 407 517.88 407 490 407 C490 460.79 490 514.58 490 570 C462.94 570 435.88 570 408 570 C408 596.73 408 623.46 408 651 C273.36 651 138.72 651 0 651 C0 624.27 0 597.54 0 570 C-27.06 570 -54.12 570 -82 570 C-82 516.21 -82 462.42 -82 407 C-109.06 407 -136.12 407 -164 407 C-164 353.21 -164 299.42 -164 244 C-136.94 244 -109.88 244 -82 244 C-82 190.21 -82 136.42 -82 81 C-54.94 81 -27.88 81 0 81 C0 54.27 0 27.54 0 0 Z " transform="translate(1716,1383)" fill="currentColor"/></svg>