<?xml version="1.0" encoding="UTF-8"?>
<svg version="1.1" viewBox="0 0 550 550" xmlns="http://www.w3.org/2000/svg">
<path d="M0 0 C42.24 0 84.48 0 128 0 C128 3.96 128 7.92 128 12 C140.54 12 153.08 12 166 12 C166 16.29 166 20.58 166 25 C174.58 25 183.16 25 192 25 C192 29.29 192 33.58 192 38 C200.58 38 209.16 38 218 38 C218 42.29 218 46.58 218 51 C221.96 51 225.92 51 230 51 C230 55.29 230 59.58 230 64 C234.29 64 238.58 64 243 64 C243 67.96 243 71.92 243 76 C247.29 76 251.58 76 256 76 C256 80.29 256 84.58 256 89 C260.29 89 264.58 89 269 89 C269 101.87 269 114.74 269 128 C273.29 128 277.58 128 282 128 C282 140.54 282 153.08 282 166 C277.71 166 273.42 166 269 166 C269 174.58 269 183.16 269 192 C264.71 192 260.42 192 256 192 C256 200.25 256 208.5 256 217 C251.71 217 247.42 217 243 217 C243 221.29 243 225.58 243 230 C238.71 230 234.42 230 230 230 C230 234.29 230 238.58 230 243 C226.04 243 222.08 243 218 243 C218 251.25 218 259.5 218 268 C221.96 268 225.92 268 230 268 C230 272.29 230 276.58 230 281 C234.29 281 238.58 281 243 281 C243 289.58 243 298.16 243 307 C247.29 307 251.58 307 256 307 C256 315.25 256 323.5 256 332 C230.59 332 205.18 332 179 332 C179 328.04 179 324.08 179 320 C174.71 320 170.42 320 166 320 C166 311.42 166 302.84 166 294 C162.04 294 158.08 294 154 294 C154 289.71 154 285.42 154 281 C136.84 281 119.68 281 102 281 C102 297.83 102 314.66 102 332 C76.92 332 51.84 332 26 332 C26 315.17 26 298.34 26 281 C8.84 281 -8.32 281 -26 281 C-26 276.71 -26 272.42 -26 268 C-34.25 268 -42.5 268 -51 268 C-51 264.04 -51 260.08 -51 256 C-59.58 256 -68.16 256 -77 256 C-77 251.71 -77 247.42 -77 243 C-85.25 243 -93.5 243 -102 243 C-102 238.71 -102 234.42 -102 230 C-106.29 230 -110.58 230 -115 230 C-115 225.71 -115 221.42 -115 217 C-119.29 217 -123.58 217 -128 217 C-128 208.75 -128 200.5 -128 192 C-132.29 192 -136.58 192 -141 192 C-141 183.42 -141 174.84 -141 166 C-145.29 166 -149.58 166 -154 166 C-154 153.46 -154 140.92 -154 128 C-149.71 128 -145.42 128 -141 128 C-141 115.13 -141 102.26 -141 89 C-136.71 89 -132.42 89 -128 89 C-128 84.71 -128 80.42 -128 76 C-123.71 76 -119.42 76 -115 76 C-115 72.04 -115 68.08 -115 64 C-110.71 64 -106.42 64 -102 64 C-102 59.71 -102 55.42 -102 51 C-98.04 51 -94.08 51 -90 51 C-90 46.71 -90 42.42 -90 38 C-81.42 38 -72.84 38 -64 38 C-64 33.71 -64 29.42 -64 25 C-55.42 25 -46.84 25 -38 25 C-38 20.71 -38 16.42 -38 12 C-25.46 12 -12.92 12 0 12 C0 8.04 0 4.08 0 0 Z M13 64 C13 67.96 13 71.92 13 76 C4.42 76 -4.16 76 -13 76 C-13 80.29 -13 84.58 -13 89 C-17.29 89 -21.58 89 -26 89 C-26 93.29 -26 97.58 -26 102 C-34.25 102 -42.5 102 -51 102 C-51 110.58 -51 119.16 -51 128 C-55.29 128 -59.58 128 -64 128 C-64 144.83 -64 161.66 -64 179 C-59.71 179 -55.42 179 -51 179 C-51 187.25 -51 195.5 -51 204 C-46.71 204 -42.42 204 -38 204 C-38 208.29 -38 212.58 -38 217 C-29.75 217 -21.5 217 -13 217 C-13 221.29 -13 225.58 -13 230 C-4.42 230 4.16 230 13 230 C13 234.29 13 238.58 13 243 C17.29 243 21.58 243 26 243 C26 192.18 26 141.36 26 89 C85.07 89 144.14 89 205 89 C205 84.71 205 80.42 205 76 C196.42 76 187.84 76 179 76 C179 72.04 179 68.08 179 64 C124.22 64 69.44 64 13 64 Z M205 89 C205 93.29 205 97.58 205 102 C209.29 102 213.58 102 218 102 C218 106.29 218 110.58 218 115 C221.96 115 225.92 115 230 115 C230 119.29 230 123.58 230 128 C234.29 128 238.58 128 243 128 C243 119.42 243 110.84 243 102 C238.71 102 234.42 102 230 102 C230 97.71 230 93.42 230 89 C221.75 89 213.5 89 205 89 Z M102 140 C102 152.87 102 165.74 102 179 C123.12 179 144.24 179 166 179 C166 170.42 166 161.84 166 153 C162.04 153 158.08 153 154 153 C154 148.71 154 144.42 154 140 C136.84 140 119.68 140 102 140 Z M243 140 C243 152.87 243 165.74 243 179 C247.29 179 251.58 179 256 179 C256 166.13 256 153.26 256 140 C251.71 140 247.42 140 243 140 Z M230 179 C230 187.25 230 195.5 230 204 C234.29 204 238.58 204 243 204 C243 195.75 243 187.5 243 179 C238.71 179 234.42 179 230 179 Z M218 204 C218 208.29 218 212.58 218 217 C221.96 217 225.92 217 230 217 C230 212.71 230 208.42 230 204 C226.04 204 222.08 204 218 204 Z M179 217 C179 221.29 179 225.58 179 230 C191.87 230 204.74 230 218 230 C218 225.71 218 221.42 218 217 C205.13 217 192.26 217 179 217 Z M102 243 C102 247.29 102 251.58 102 256 C114.87 256 127.74 256 141 256 C141 251.71 141 247.42 141 243 C128.13 243 115.26 243 102 243 Z " fill="currentColor" transform="translate(192,90)"/>
</svg>
