<?xml version="1.0" encoding="UTF-8"?>
<!-- Generator: visioncortex VTracer -->
<svg id="svg" version="1.1" xmlns="http://www.w3.org/2000/svg" style="display: block;" viewBox="0 0 620 620">
<path d="M0 0 C64.02 0 128.04 0 194 0 C194 5.94 194 11.88 194 18 C211.82 18 229.64 18 248 18 C248 23.61 248 29.22 248 35 C253.61 35 259.22 35 265 35 C265 40.94 265 46.88 265 53 C276.88 53 288.76 53 301 53 C301 58.94 301 64.88 301 71 C306.61 71 312.22 71 318 71 C318 76.94 318 82.88 318 89 C323.94 89 329.88 89 336 89 C336 94.61 336 100.22 336 106 C341.94 106 347.88 106 354 106 C354 117.88 354 129.76 354 142 C359.94 142 365.88 142 372 142 C372 147.61 372 153.22 372 159 C377.61 159 383.22 159 389 159 C389 176.82 389 194.64 389 213 C394.94 213 400.88 213 407 213 C407 277.02 407 341.04 407 407 C401.06 407 395.12 407 389 407 C389 424.82 389 442.64 389 461 C383.39 461 377.78 461 372 461 C372 466.61 372 472.22 372 478 C366.06 478 360.12 478 354 478 C354 489.88 354 501.76 354 514 C348.06 514 342.12 514 336 514 C336 519.61 336 525.22 336 531 C330.06 531 324.12 531 318 531 C318 536.94 318 542.88 318 549 C312.39 549 306.78 549 301 549 C301 554.94 301 560.88 301 567 C289.12 567 277.24 567 265 567 C265 572.94 265 578.88 265 585 C259.39 585 253.78 585 248 585 C248 590.61 248 596.22 248 602 C230.18 602 212.36 602 194 602 C194 607.94 194 613.88 194 620 C129.98 620 65.96 620 0 620 C0 614.06 0 608.12 0 602 C-17.82 602 -35.64 602 -54 602 C-54 596.39 -54 590.78 -54 585 C-59.61 585 -65.22 585 -71 585 C-71 579.06 -71 573.12 -71 567 C-82.88 567 -94.76 567 -107 567 C-107 561.06 -107 555.12 -107 549 C-112.61 549 -118.22 549 -124 549 C-124 543.06 -124 537.12 -124 531 C-129.94 531 -135.88 531 -142 531 C-142 525.39 -142 519.78 -142 514 C-147.94 514 -153.88 514 -160 514 C-160 502.12 -160 490.24 -160 478 C-165.94 478 -171.88 478 -178 478 C-178 472.39 -178 466.78 -178 461 C-183.61 461 -189.22 461 -195 461 C-195 443.18 -195 425.36 -195 407 C-200.94 407 -206.88 407 -213 407 C-213 342.98 -213 278.96 -213 213 C-207.06 213 -201.12 213 -195 213 C-195 195.18 -195 177.36 -195 159 C-189.39 159 -183.78 159 -178 159 C-178 153.39 -178 147.78 -178 142 C-172.06 142 -166.12 142 -160 142 C-160 130.12 -160 118.24 -160 106 C-154.06 106 -148.12 106 -142 106 C-142 100.39 -142 94.78 -142 89 C-136.06 89 -130.12 89 -124 89 C-124 83.06 -124 77.12 -124 71 C-118.39 71 -112.78 71 -107 71 C-107 65.06 -107 59.12 -107 53 C-95.12 53 -83.24 53 -71 53 C-71 47.06 -71 41.12 -71 35 C-65.39 35 -59.78 35 -54 35 C-54 29.39 -54 23.78 -54 18 C-36.18 18 -18.36 18 0 18 C0 12.06 0 6.12 0 0 Z " transform="translate(213,0)" fill="currentColor"/>
<path d="M0 0 C52.47 0 104.94 0 159 0 C159 5.94 159 11.88 159 18 C170.88 18 182.76 18 195 18 C195 23.94 195 29.88 195 36 C200.61 36 206.22 36 212 36 C212 59.43 212 82.86 212 107 C206.39 107 200.78 107 195 107 C195 112.61 195 118.22 195 124 C189.06 124 183.12 124 177 124 C177 129.94 177 135.88 177 142 C171.06 142 165.12 142 159 142 C159 147.94 159 153.88 159 160 C164.94 160 170.88 160 177 160 C177 171.55 177 183.1 177 195 C182.94 195 188.88 195 195 195 C195 200.94 195 206.88 195 213 C200.61 213 206.22 213 212 213 C212 224.55 212 236.1 212 248 C229.82 248 247.64 248 266 248 C266 259.88 266 271.76 266 284 C242.57 284 219.14 284 195 284 C195 272.12 195 260.24 195 248 C189.06 248 183.12 248 177 248 C177 242.39 177 236.78 177 231 C171.06 231 165.12 231 159 231 C159 219.12 159 207.24 159 195 C153.39 195 147.78 195 142 195 C142 189.39 142 183.78 142 178 C136.06 178 130.12 178 124 178 C124 166.12 124 154.24 124 142 C106.51 142 89.02 142 71 142 C71 176.98 71 211.96 71 248 C88.49 248 105.98 248 124 248 C124 253.94 124 259.88 124 266 C83.08 266 42.16 266 0 266 C0 260.06 0 254.12 0 248 C11.55 248 23.1 248 35 248 C35 172.1 35 96.2 35 18 C23.45 18 11.9 18 0 18 C0 12.06 0 6.12 0 0 Z " transform="translate(195,159)" style="fill: #FFFFFF;"/>
<path d="M0 0 C29.04 0 58.08 0 88 0 C88 5.94 88 11.88 88 18 C93.94 18 99.88 18 106 18 C106 35.49 106 52.98 106 71 C100.06 71 94.12 71 88 71 C88 76.94 88 82.88 88 89 C82.39 89 76.78 89 71 89 C71 94.61 71 100.22 71 106 C47.57 106 24.14 106 0 106 C0 71.02 0 36.04 0 0 Z " transform="translate(266,177)" fill="currentColor"/>
<path d="M0 0 C5.61 0 11.22 0 17 0 C17 5.94 17 11.88 17 18 C22.94 18 28.88 18 35 18 C35 29.55 35 41.1 35 53 C40.94 53 46.88 53 53 53 C53 58.94 53 64.88 53 71 C58.61 71 64.22 71 70 71 C70 82.55 70 94.1 70 106 C87.82 106 105.64 106 124 106 C124 117.88 124 129.76 124 142 C100.57 142 77.14 142 53 142 C53 130.12 53 118.24 53 106 C47.06 106 41.12 106 35 106 C35 100.39 35 94.78 35 89 C29.06 89 23.12 89 17 89 C17 77.12 17 65.24 17 53 C11.39 53 5.78 53 0 53 C0 47.39 0 41.78 0 36 C-5.94 36 -11.88 36 -18 36 C-18 30.06 -18 24.12 -18 18 C-12.06 18 -6.12 18 0 18 C0 12.06 0 6.12 0 0 Z " transform="translate(337,301)" style="fill: #E8F1F9;"/>
<path d="M0 0 C5.94 0 11.88 0 18 0 C18 69.96 18 139.92 18 212 C12.06 212 6.12 212 0 212 C0 142.04 0 72.08 0 0 Z " transform="translate(230,195)" style="fill: #BAD5ED;"/>
<path d="M0 0 C11.88 0 23.76 0 36 0 C36 5.94 36 11.88 36 18 C41.61 18 47.22 18 53 18 C53 41.43 53 64.86 53 89 C41.45 89 29.9 89 18 89 C18 65.57 18 42.14 18 18 C12.06 18 6.12 18 0 18 C0 12.06 0 6.12 0 0 Z " transform="translate(354,177)" style="fill: #FFFFFF;"/>
<path d="M0 0 C29.04 0 58.08 0 88 0 C88 5.94 88 11.88 88 18 C64.57 18 41.14 18 17 18 C17 47.04 17 76.08 17 106 C11.39 106 5.78 106 0 106 C0 71.02 0 36.04 0 0 Z " transform="translate(266,177)" fill="currentColor"/>
<path d="M0 0 C17.49 0 34.98 0 53 0 C53 5.94 53 11.88 53 18 C41.12 18 29.24 18 17 18 C17 47.04 17 76.08 17 106 C11.39 106 5.78 106 0 106 C0 71.02 0 36.04 0 0 Z " transform="translate(266,301)" fill="currentColor"/>
<path d="M0 0 C40.92 0 81.84 0 124 0 C124 5.94 124 11.88 124 18 C83.08 18 42.16 18 0 18 C0 12.06 0 6.12 0 0 Z " transform="translate(195,425)" fill="currentColor"/>
<path d="M0 0 C5.94 0 11.88 0 18 0 C18 11.88 18 23.76 18 36 C-5.43 36 -28.86 36 -53 36 C-53 30.06 -53 24.12 -53 18 C-35.51 18 -18.02 18 0 18 C0 12.06 0 6.12 0 0 Z " transform="translate(443,407)" fill="currentColor"/>
<path d="M0 0 C5.61 0 11.22 0 17 0 C17 5.94 17 11.88 17 18 C22.94 18 28.88 18 35 18 C35 23.94 35 29.88 35 36 C29.06 36 23.12 36 17 36 C17 41.61 17 47.22 17 53 C11.39 53 5.78 53 0 53 C0 47.39 0 41.78 0 36 C-5.94 36 -11.88 36 -18 36 C-18 30.06 -18 24.12 -18 18 C-12.06 18 -6.12 18 0 18 C0 12.06 0 6.12 0 0 Z " transform="translate(337,301)" style="fill: #FFFFFF;"/>
<path d="M0 0 C5.61 0 11.22 0 17 0 C17 29.04 17 58.08 17 88 C11.39 88 5.78 88 0 88 C0 58.96 0 29.92 0 0 Z " transform="translate(266,195)" fill="currentColor"/>
<path d="M0 0 C5.61 0 11.22 0 17 0 C17 5.61 17 11.22 17 17 C28.88 17 40.76 17 53 17 C53 22.94 53 28.88 53 35 C35.51 35 18.02 35 0 35 C0 23.45 0 11.9 0 0 Z " transform="translate(390,390)" style="fill: #FFFFFF;"/>
<path d="M0 0 C5.61 0 11.22 0 17 0 C17 23.43 17 46.86 17 71 C11.39 71 5.78 71 0 71 C0 47.57 0 24.14 0 0 Z " transform="translate(390,195)" style="fill: #DDEAF6;"/>
<path d="M0 0 C17.49 0 34.98 0 53 0 C53 5.94 53 11.88 53 18 C35.51 18 18.02 18 0 18 C0 12.06 0 6.12 0 0 Z " transform="translate(266,301)" fill="currentColor"/>
<path d="M0 0 C17.82 0 35.64 0 54 0 C54 5.61 54 11.22 54 17 C36.18 17 18.36 17 0 17 C0 11.39 0 5.78 0 0 Z " transform="translate(283,142)" fill="currentColor"/>
<path d="M0 0 C5.94 0 11.88 0 18 0 C18 11.88 18 23.76 18 36 C12.06 36 6.12 36 0 36 C0 24.12 0 12.24 0 0 Z " transform="translate(443,407)" fill="currentColor"/>
<path d="M0 0 C11.88 0 23.76 0 36 0 C36 5.94 36 11.88 36 18 C24.12 18 12.24 18 0 18 C0 12.06 0 6.12 0 0 Z " transform="translate(354,159)" fill="currentColor"/>
<path d="M0 0 C5.94 0 11.88 0 18 0 C18 11.55 18 23.1 18 35 C12.06 35 6.12 35 0 35 C0 23.45 0 11.9 0 0 Z " transform="translate(354,337)" style="fill: #FFFFFF;"/>
<path d="M0 0 C11.55 0 23.1 0 35 0 C35 5.94 35 11.88 35 18 C23.45 18 11.9 18 0 18 C0 12.06 0 6.12 0 0 Z " transform="translate(195,177)" fill="currentColor"/>
<path d="M0 0 C11.88 0 23.76 0 36 0 C36 5.61 36 11.22 36 17 C24.12 17 12.24 17 0 17 C0 11.39 0 5.78 0 0 Z " transform="translate(301,266)" fill="currentColor"/>
<path d="M0 0 C5.94 0 11.88 0 18 0 C18 5.94 18 11.88 18 18 C12.06 18 6.12 18 0 18 C0 12.06 0 6.12 0 0 Z " transform="translate(301,425)" fill="currentColor"/>
<path d="M0 0 C5.94 0 11.88 0 18 0 C18 5.94 18 11.88 18 18 C12.06 18 6.12 18 0 18 C0 12.06 0 6.12 0 0 Z " transform="translate(443,407)" fill="currentColor"/>
<path d="M0 0 C5.94 0 11.88 0 18 0 C18 5.94 18 11.88 18 18 C12.06 18 6.12 18 0 18 C0 12.06 0 6.12 0 0 Z " transform="translate(372,407)" fill="currentColor"/>
<path d="M0 0 C5.94 0 11.88 0 18 0 C18 5.94 18 11.88 18 18 C12.06 18 6.12 18 0 18 C0 12.06 0 6.12 0 0 Z " transform="translate(301,407)" style="fill: #DDEAF6;"/>
<path d="M0 0 C5.94 0 11.88 0 18 0 C18 5.94 18 11.88 18 18 C12.06 18 6.12 18 0 18 C0 12.06 0 6.12 0 0 Z " transform="translate(195,407)" style="fill: #DDEAF6;"/>
<path d="M0 0 C5.94 0 11.88 0 18 0 C18 5.94 18 11.88 18 18 C12.06 18 6.12 18 0 18 C0 12.06 0 6.12 0 0 Z " transform="translate(354,372)" fill="currentColor"/>
<path d="M0 0 C5.94 0 11.88 0 18 0 C18 5.94 18 11.88 18 18 C12.06 18 6.12 18 0 18 C0 12.06 0 6.12 0 0 Z " transform="translate(354,319)" fill="currentColor"/>
<path d="M0 0 C5.94 0 11.88 0 18 0 C18 5.94 18 11.88 18 18 C12.06 18 6.12 18 0 18 C0 12.06 0 6.12 0 0 Z " transform="translate(319,319)" fill="currentColor"/>
<path d="M0 0 C5.94 0 11.88 0 18 0 C18 5.94 18 11.88 18 18 C12.06 18 6.12 18 0 18 C0 12.06 0 6.12 0 0 Z " transform="translate(301,301)" fill="currentColor"/>
<path d="M0 0 C5.94 0 11.88 0 18 0 C18 5.94 18 11.88 18 18 C12.06 18 6.12 18 0 18 C0 12.06 0 6.12 0 0 Z " transform="translate(354,283)" style="fill: #DDEAF6;"/>
<path d="M0 0 C5.94 0 11.88 0 18 0 C18 5.94 18 11.88 18 18 C12.06 18 6.12 18 0 18 C0 12.06 0 6.12 0 0 Z " transform="translate(354,248)" fill="currentColor"/>
<path d="M0 0 C5.94 0 11.88 0 18 0 C18 5.94 18 11.88 18 18 C12.06 18 6.12 18 0 18 C0 12.06 0 6.12 0 0 Z " transform="translate(354,195)" fill="currentColor"/>
<path d="M0 0 C5.94 0 11.88 0 18 0 C18 5.94 18 11.88 18 18 C12.06 18 6.12 18 0 18 C0 12.06 0 6.12 0 0 Z " transform="translate(230,177)" style="fill: #DDEAF6;"/>
<path d="M0 0 C5.94 0 11.88 0 18 0 C18 5.94 18 11.88 18 18 C12.06 18 6.12 18 0 18 C0 12.06 0 6.12 0 0 Z " transform="translate(354,159)" fill="currentColor"/>
<path d="M0 0 C5.94 0 11.88 0 18 0 C18 5.94 18 11.88 18 18 C12.06 18 6.12 18 0 18 C0 12.06 0 6.12 0 0 Z " transform="translate(195,159)" style="fill: #DDEAF6;"/>
<path d="M0 0 C5.94 0 11.88 0 18 0 C18 5.61 18 11.22 18 17 C12.06 17 6.12 17 0 17 C0 11.39 0 5.78 0 0 Z " transform="translate(407,390)" fill="currentColor"/>
<path d="M0 0 C5.61 0 11.22 0 17 0 C17 5.94 17 11.88 17 18 C11.39 18 5.78 18 0 18 C0 12.06 0 6.12 0 0 Z " transform="translate(390,372)" fill="currentColor"/>
<path d="M0 0 C5.61 0 11.22 0 17 0 C17 5.94 17 11.88 17 18 C11.39 18 5.78 18 0 18 C0 12.06 0 6.12 0 0 Z " transform="translate(337,354)" fill="currentColor"/>
<path d="M0 0 C5.94 0 11.88 0 18 0 C18 5.61 18 11.22 18 17 C12.06 17 6.12 17 0 17 C0 11.39 0 5.78 0 0 Z " transform="translate(372,337)" fill="currentColor"/>
<path d="M0 0 C5.61 0 11.22 0 17 0 C17 5.94 17 11.88 17 18 C11.39 18 5.78 18 0 18 C0 12.06 0 6.12 0 0 Z " transform="translate(337,301)" style="fill: #DDEAF6;"/>
<path d="M0 0 C5.61 0 11.22 0 17 0 C17 5.94 17 11.88 17 18 C11.39 18 5.78 18 0 18 C0 12.06 0 6.12 0 0 Z " transform="translate(266,301)" fill="currentColor"/>
<path d="M0 0 C5.94 0 11.88 0 18 0 C18 5.61 18 11.22 18 17 C12.06 17 6.12 17 0 17 C0 11.39 0 5.78 0 0 Z " transform="translate(372,266)" style="fill: #f6ddf0;"/>
<path d="M0 0 C5.61 0 11.22 0 17 0 C17 5.94 17 11.88 17 18 C11.39 18 5.78 18 0 18 C0 12.06 0 6.12 0 0 Z " transform="translate(390,248)" fill="currentColor"/>
<path d="M0 0 C5.61 0 11.22 0 17 0 C17 5.94 17 11.88 17 18 C11.39 18 5.78 18 0 18 C0 12.06 0 6.12 0 0 Z " transform="translate(390,177)" fill="currentColor"/>
<path d="M0 0 C5.61 0 11.22 0 17 0 C17 5.94 17 11.88 17 18 C11.39 18 5.78 18 0 18 C0 12.06 0 6.12 0 0 Z " transform="translate(337,177)" fill="currentColor"/>
<path d="M0 0 C5.61 0 11.22 0 17 0 C17 5.94 17 11.88 17 18 C11.39 18 5.78 18 0 18 C0 12.06 0 6.12 0 0 Z " transform="translate(266,177)" fill="currentColor"/>
<path d="M0 0 C5.94 0 11.88 0 18 0 C18 5.61 18 11.22 18 17 C12.06 17 6.12 17 0 17 C0 11.39 0 5.78 0 0 Z " transform="translate(195,142)" fill="currentColor"/>
<path d="M0 0 C5.61 0 11.22 0 17 0 C17 5.61 17 11.22 17 17 C11.39 17 5.78 17 0 17 C0 11.39 0 5.78 0 0 Z " transform="translate(337,337)" style="fill: #DDEAF6;"/>
<path d="M0 0 C5.61 0 11.22 0 17 0 C17 5.61 17 11.22 17 17 C11.39 17 5.78 17 0 17 C0 11.39 0 5.78 0 0 Z " transform="translate(337,266)" fill="currentColor"/></svg>