<?xml version="1.0" encoding="UTF-8"?>
<svg version="1.1" xmlns="http://www.w3.org/2000/svg" width="796" height="894" viewBox="0 0 800 800">
<path d="M0 0 C33 0 66 0 100 0 C100 6.27 100 12.54 100 19 C110.89 19.495 110.89 19.495 122 20 C122 69.17 122 118.34 122 169 C114.74 169.33 107.48 169.66 100 170 C100 185.51 100 201.02 100 217 C99.67 217 99.34 217 99 217 C99 215.02 99 213.04 99 211 C92.73 211 86.46 211 80 211 C80.185625 213.59875 80.37125 216.1975 80.5625 218.875 C81.62810855 237.2050342 80.55095258 255.6659934 80 274 C73.4 274.33 66.8 274.66 60 275 C60 281.27 60 287.54 60 294 C52.74 294 45.48 294 38 294 C38 307.86 38 321.72 38 336 C24.8 336 11.6 336 -2 336 C-1.814375 342.47625 -1.62875 348.9525 -1.4375 355.625 C-1.04748756 370.50053333 -1.00210072 385.14238857 -2 400 C-12.89 400.495 -12.89 400.495 -24 401 C-24 407.27 -24 413.54 -24 420 C-30.6 420 -37.2 420 -44 420 C-44 427.26 -44 434.52 -44 442 C-50.6 442 -57.2 442 -64 442 C-64 448.6 -64 455.2 -64 462 C-71.26 462 -78.52 462 -86 462 C-86 468.93 -86 475.86 -86 483 C-95.405 483.495 -95.405 483.495 -105 484 C-105.33 490.6 -105.66 497.2 -106 504 C-112.93 504.33 -119.86 504.66 -127 505 C-127 497.74 -127 490.48 -127 483 C-133.27 483 -139.54 483 -146 483 C-146 533.16 -146 583.32 -146 635 C-146.33 634.01 -146.66 633.02 -147 632 C-154.26 631.67 -161.52 631.34 -169 631 C-169 623.74 -169 616.48 -169 609 C-277.9 609 -386.8 609 -499 609 C-499 421.89 -499 234.78 -499 42 C-492.4 42 -485.8 42 -479 42 C-478.67 34.74 -478.34 27.48 -478 20 C-321.25 20 -164.5 20 -3 20 C-3 13.73 -3 7.46 -3 1 C-2.67 1 -2.34 1 -2 1 C-2 7.27 -2 13.54 -2 20 C4.27 20 10.54 20 17 20 C17 13.73 17 7.46 17 1 C11.39 1 5.78 1 0 1 C0 0.67 0 0.34 0 0 Z M60 253 C60 259.6 60 266.2 60 273 C66.27 273 72.54 273 79 273 C79 266.4 79 259.8 79 253 C72.73 253 66.46 253 60 253 Z M-498 589 C-498 595.27 -498 601.54 -498 608 C-491.4 608 -484.8 608 -478 608 C-478 601.73 -478 595.46 -478 589 C-484.6 589 -491.2 589 -498 589 Z " fill="#62A1D7" transform="translate(583,96)"/>
<path d="M0 0 C26.73 0 53.46 0 81 0 C82.14969136 22.99382716 82.14969136 22.99382716 82.0625 32.25 C82.041875 35.4675 82.02125 38.685 82 42 C88.93 42 95.86 42 103 42 C103 76.32 103 110.64 103 146 C96.07 146 89.14 146 82 146 C82.01546875 150.50720703 82.01546875 150.50720703 82.03125 155.10546875 C82.04564348 166.51353571 81.79801291 177.90900613 81.5 189.3125 C81.45158339 191.24022837 81.40340546 193.16796276 81.35546875 195.09570312 C81.24014414 199.73055931 81.11999345 204.36525317 81 209 C74.4 209 67.8 209 61 209 C61 222.86 61 236.72 61 251 C54.4 251 47.8 251 41 251 C41 264.53 41 278.06 41 292 C34.07 292 27.14 292 20 292 C20 306.19 20 320.38 20 335 C-0.46 335 -20.92 335 -42 335 C-42 341.93 -42 348.86 -42 356 C-35.07 356 -28.14 356 -21 356 C-21 369.86 -21 383.72 -21 398 C-28.26 398 -35.52 398 -43 398 C-43 404.6 -43 411.2 -43 418 C-49.6 418 -56.2 418 -63 418 C-63 425.26 -63 432.52 -63 440 C-69.6 440 -76.2 440 -83 440 C-83 446.6 -83 453.2 -83 460 C-96.53 460 -110.06 460 -124 460 C-124 432.61 -124 405.22 -124 377 C-117.4 377 -110.8 377 -104 377 C-104 362.81 -104 348.62 -104 334 C-97.07 334 -90.14 334 -83 334 C-83.01546875 329.72289062 -83.01546875 329.72289062 -83.03125 325.359375 C-83.04589781 314.31721619 -82.79478237 303.28752229 -82.5 292.25 C-82.45158955 290.3658914 -82.40341158 288.48177681 -82.35546875 286.59765625 C-82.24006346 282.06501418 -82.11995361 277.53253289 -82 273 C-75.4 273 -68.8 273 -62 273 C-62 259.14 -62 245.28 -62 231 C-55.4 231 -48.8 231 -42 231 C-42 216.81 -42 202.62 -42 188 C-35.07 187.67 -28.14 187.34 -21 187 C-20.67 173.47 -20.34 159.94 -20 146 C-13.73 145.67 -7.46 145.34 -1 145 C-0.67 138.4 -0.34 131.8 0 125 C6.6 125 13.2 125 20 125 C20 111.47 20 97.94 20 84 C26.93 84 33.86 84 41 84 C41 76.74 41 69.48 41 62 C33.74 62 26.48 62 19 62 C19 68.93 19 75.86 19 83 C12.4 83 5.8 83 -1 83 C-1 96.86 -1 110.72 -1 125 C-7.6 125 -14.2 125 -21 125 C-21 131.6 -21 138.2 -21 145 C-27.93 145.33 -34.86 145.66 -42 146 C-42.33 159.53 -42.66 173.06 -43 187 C-49.6 187 -56.2 187 -63 187 C-63 201.19 -63 215.38 -63 230 C-69.6 230 -76.2 230 -83 230 C-83 236.93 -83 243.86 -83 251 C-89.93 251 -96.86 251 -104 251 C-103.979375 253.784375 -103.95875 256.56875 -103.9375 259.4375 C-103.87724297 277.62777386 -104.51468863 295.81815619 -105 314 C-111.6 314 -118.2 314 -125 314 C-125 334.46 -125 354.92 -125 376 C-131.6 376 -138.2 376 -145 376 C-145 397.12 -145 418.24 -145 440 C-151.6 440 -158.2 440 -165 440 C-165 495.44 -165 550.88 -165 608 C-171.93 608 -178.86 608 -186 608 C-187 607 -187 607 -187.12304783 604.59681606 C-187.12212604 603.52108365 -187.12120424 602.44535124 -187.12025452 601.33702087 C-187.12162918 600.10717972 -187.12300385 598.87733856 -187.12442017 597.61022949 C-187.12088056 596.23486304 -187.11724574 594.85949683 -187.11352539 593.48413086 C-187.11324352 592.04557802 -187.11340124 590.60702504 -187.1139679 589.16847229 C-187.11425589 585.25128857 -187.10835884 581.33413521 -187.10139394 577.41695857 C-187.09516074 573.32766163 -187.09455663 569.23836407 -187.09336853 565.14906311 C-187.09025511 557.40007602 -187.08204159 549.65110297 -187.07201904 541.90212208 C-187.06085822 533.08243791 -187.05534753 524.26275309 -187.05032361 515.44306362 C-187.03985898 497.29536755 -187.02205892 479.14768542 -187 461 C-193.6 461 -200.2 461 -207 461 C-207 433.28 -207 405.56 -207 377 C-200.4 377 -193.8 377 -187 377 C-187 349.28 -187 321.56 -187 293 C-179.74 293 -172.48 293 -165 293 C-165 272.54 -165 252.08 -165 231 C-158.4 231 -151.8 231 -145 231 C-145 216.81 -145 202.62 -145 188 C-138.07 188 -131.14 188 -124 188 C-124 174.14 -124 160.28 -124 146 C-117.4 146 -110.8 146 -104 146 C-104 132.14 -104 118.28 -104 104 C-96.74 104 -89.48 104 -82 104 C-82 97.4 -82 90.8 -82 84 C-75.4 84 -68.8 84 -62 84 C-62 76.74 -62 69.48 -62 62 C-55.4 62 -48.8 62 -42 62 C-42 55.07 -42 48.14 -42 41 C-35.07 41 -28.14 41 -21 41 C-21 34.07 -21 27.14 -21 20 C-14.07 20 -7.14 20 0 20 C0 13.4 0 6.8 0 0 Z " fill="#163A55" transform="translate(601,97)"/>
<path d="M0 0 C33 0 66 0 100 0 C100 6.27 100 12.54 100 19 C110.89 19.495 110.89 19.495 122 20 C122 69.17 122 118.34 122 169 C114.74 169.33 107.48 169.66 100 170 C100 185.51 100 201.02 100 217 C99.67 217 99.34 217 99 217 C99 215.02 99 213.04 99 211 C92.73 211 86.46 211 80 211 C80.185625 213.59875 80.37125 216.1975 80.5625 218.875 C81.62810855 237.2050342 80.55095258 255.6659934 80 274 C73.4 274.33 66.8 274.66 60 275 C60 281.27 60 287.54 60 294 C52.74 294 45.48 294 38 294 C38 293.67 38 293.34 38 293 C44.93 293 51.86 293 59 293 C59 279.47 59 265.94 59 252 C65.6 252 72.2 252 79 252 C79 238.14 79 224.28 79 210 C85.6 210 92.2 210 99 210 C98.98839844 207.21175781 98.97679687 204.42351562 98.96484375 201.55078125 C98.84746578 165.15241393 98.84746578 165.15241393 100 147 C106.93 147 113.86 147 121 147 C121 112.68 121 78.36 121 43 C114.07 43 107.14 43 100 43 C99.835 39.7825 99.67 36.565 99.5 33.25 C99.44779297 32.28352539 99.39558594 31.31705078 99.34179688 30.32128906 C98.86979589 20.51790362 99 10.86209473 99 1 C72.27 1 45.54 1 18 1 C18 7.6 18 14.2 18 21 C-138.75 21 -295.5 21 -457 21 C-457 27.93 -457 34.86 -457 42 C-456.01 42.495 -456.01 42.495 -455 43 C-460.97029685 45.98514842 -468.3250052 44 -475 44 C-475.33 84.92 -475.66 125.84 -476 168 C-476.33 168 -476.66 168 -477 168 C-477 126.75 -477 85.5 -477 43 C-483.93 43 -490.86 43 -498 43 C-498 222.85 -498 402.7 -498 588 C-491.4 588 -484.8 588 -478 588 C-477 589 -477 589 -476.88647461 590.85766602 C-476.89171143 591.64842529 -476.89694824 592.43918457 -476.90234375 593.25390625 C-476.90556641 594.10791016 -476.90878906 594.96191406 -476.91210938 595.84179688 C-476.92048828 596.73962891 -476.92886719 597.63746094 -476.9375 598.5625 C-476.94201172 599.46419922 -476.94652344 600.36589844 -476.95117188 601.29492188 C-476.96299775 603.53001314 -476.9794778 605.76497437 -477 608 C-476.03120925 607.99943042 -476.03120925 607.99943042 -475.04284698 607.99884933 C-436.68791625 607.97642779 -398.33298637 607.95929154 -359.9780504 607.94893467 C-355.36354075 607.9476841 -350.74903111 607.94638976 -346.13452148 607.94506836 C-345.21593004 607.94480605 -344.29733859 607.94454374 -343.35091104 607.94427348 C-328.51471784 607.93993275 -313.67852854 607.93205405 -298.84233765 607.9228472 C-283.59723919 607.91346614 -268.35214276 607.90793499 -253.10704154 607.90591151 C-243.71460773 607.9045455 -234.32218498 607.9002452 -224.92975458 607.89208353 C-218.47218966 607.88676105 -212.01463038 607.8852081 -205.55706344 607.88649862 C-201.84214049 607.88713348 -198.12723673 607.8862227 -194.41231728 607.88079453 C-190.36025934 607.87491786 -186.30824112 607.87704015 -182.25617981 607.87974548 C-181.11504646 607.87683264 -179.9739131 607.8739198 -178.79819995 607.87091869 C-168.15178746 607.88987584 -157.676717 608.4915849 -147 609 C-147 553.56 -147 498.12 -147 441 C-140.4 441 -133.8 441 -127 441 C-127 419.88 -127 398.76 -127 377 C-120.4 377 -113.8 377 -107 377 C-107 356.54 -107 336.08 -107 315 C-100.4 315 -93.8 315 -87 315 C-87.01160156 312.29554688 -87.02320313 309.59109375 -87.03515625 306.8046875 C-87.09592782 288.49955172 -87.08323318 270.27955986 -86 252 C-79.07 252 -72.14 252 -65 252 C-65 245.07 -65 238.14 -65 231 C-58.4 231 -51.8 231 -45 231 C-45 216.81 -45 202.62 -45 188 C-38.4 188 -31.8 188 -25 188 C-25.01160156 185.05191406 -25.02320313 182.10382813 -25.03515625 179.06640625 C-25.04294616 176.22355253 -25.0490233 173.38069998 -25.05493164 170.5378418 C-25.05997267 168.55606559 -25.06680538 166.57429311 -25.07543945 164.5925293 C-25.08751515 161.75047891 -25.09323045 158.90847753 -25.09765625 156.06640625 C-25.10281754 155.17474258 -25.10797882 154.28307892 -25.11329651 153.36439514 C-25.11349177 151.24259399 -25.0621003 149.1208922 -25 147 C-24 146 -24 146 -21.95874023 145.88647461 C-21.08419189 145.89171143 -20.20964355 145.89694824 -19.30859375 145.90234375 C-18.36435547 145.90556641 -17.42011719 145.90878906 -16.44726562 145.91210938 C-15.45404297 145.92048828 -14.46082031 145.92886719 -13.4375 145.9375 C-12.44041016 145.94201172 -11.44332031 145.94652344 -10.41601562 145.95117188 C-7.94398513 145.96299977 -5.47198528 145.98093585 -3 146 C-3 139.4 -3 132.8 -3 126 C3.6 126 10.2 126 17 126 C17 112.14 17 98.28 17 84 C23.6 84 30.2 84 37 84 C37 77.07 37 70.14 37 63 C44.26 63 51.52 63 59 63 C59 70.26 59 77.52 59 85 C52.07 85 45.14 85 38 85 C38 98.53 38 112.06 38 126 C31.4 126 24.8 126 18 126 C18.03958259 132.5370285 18.03958259 132.5370285 18.09008789 139.07397461 C18.09383423 140.28839233 18.09383423 140.28839233 18.09765625 141.52734375 C18.10289307 142.35999756 18.10812988 143.19265137 18.11352539 144.05053711 C18 146 18 146 17 147 C15.58429877 147.08651611 14.164405 147.10704904 12.74609375 147.09765625 C11.89208984 147.09443359 11.03808594 147.09121094 10.15820312 147.08789062 C9.26037109 147.07951172 8.36253906 147.07113281 7.4375 147.0625 C6.53580078 147.05798828 5.63410156 147.05347656 4.70507812 147.04882812 C2.46998686 147.03700225 0.23502563 147.0205222 -2 147 C-1.99214478 148.85516235 -1.99214478 148.85516235 -1.98413086 150.74780273 C-1.96608439 155.31924725 -1.95456929 159.89068859 -1.94506836 164.4621582 C-1.94002733 166.44393441 -1.93319462 168.42570689 -1.92456055 170.4074707 C-1.91248485 173.24952109 -1.90676955 176.09152247 -1.90234375 178.93359375 C-1.89718246 179.82525742 -1.89202118 180.71692108 -1.88670349 181.63560486 C-1.88650823 183.75740601 -1.9378997 185.8791078 -2 188 C-2.33 188.33 -2.66 188.66 -3 189 C-9.93 189 -16.86 189 -24 189 C-24 203.19 -24 217.38 -24 232 C-30.6 232 -37.2 232 -44 232 C-44 245.86 -44 259.72 -44 274 C-50.6 274 -57.2 274 -64 274 C-63.98839844 276.72765625 -63.97679687 279.4553125 -63.96484375 282.265625 C-63.95698803 284.9832345 -63.95094861 287.70084262 -63.94506836 290.41845703 C-63.94011848 292.27035105 -63.93335689 294.12224135 -63.92456055 295.97412109 C-63.86423808 309.02506458 -64.25181028 321.96853812 -65 335 C-71.93 335 -78.86 335 -86 335 C-86 349.19 -86 363.38 -86 378 C-92.6 378 -99.2 378 -106 378 C-106 405.39 -106 432.78 -106 461 C-92.47 461 -78.94 461 -65 461 C-65 454.4 -65 447.8 -65 441 C-58.4 441 -51.8 441 -45 441 C-45 433.74 -45 426.48 -45 419 C-38.4 419 -31.8 419 -25 419 C-25 412.4 -25 405.8 -25 399 C-17.74 399 -10.48 399 -3 399 C-3 385.14 -3 371.28 -3 357 C-9.93 357 -16.86 357 -24 357 C-24 350.07 -24 343.14 -24 336 C-16.74 336 -9.48 336 -2 336 C-0.66742597 380.1594533 -0.66742597 380.1594533 -2 400 C-12.89 400.495 -12.89 400.495 -24 401 C-24 407.27 -24 413.54 -24 420 C-30.6 420 -37.2 420 -44 420 C-44 427.26 -44 434.52 -44 442 C-50.6 442 -57.2 442 -64 442 C-64 448.6 -64 455.2 -64 462 C-71.26 462 -78.52 462 -86 462 C-86 468.93 -86 475.86 -86 483 C-95.405 483.495 -95.405 483.495 -105 484 C-105.33 490.6 -105.66 497.2 -106 504 C-112.93 504.33 -119.86 504.66 -127 505 C-127 497.74 -127 490.48 -127 483 C-133.27 483 -139.54 483 -146 483 C-146 533.16 -146 583.32 -146 635 C-146.33 634.01 -146.66 633.02 -147 632 C-154.26 631.67 -161.52 631.34 -169 631 C-169 623.74 -169 616.48 -169 609 C-277.9 609 -386.8 609 -499 609 C-499 421.89 -499 234.78 -499 42 C-492.4 42 -485.8 42 -479 42 C-478.67 34.74 -478.34 27.48 -478 20 C-321.25 20 -164.5 20 -3 20 C-3 13.73 -3 7.46 -3 1 C-2.67 1 -2.34 1 -2 1 C-2 7.27 -2 13.54 -2 20 C4.27 20 10.54 20 17 20 C17 13.73 17 7.46 17 1 C11.39 1 5.78 1 0 1 C0 0.67 0 0.34 0 0 Z M60 253 C60 259.6 60 266.2 60 273 C66.27 273 72.54 273 79 273 C79 266.4 79 259.8 79 253 C72.73 253 66.46 253 60 253 Z M-498 589 C-498 595.27 -498 601.54 -498 608 C-491.4 608 -484.8 608 -478 608 C-478 601.73 -478 595.46 -478 589 C-484.6 589 -491.2 589 -498 589 Z " fill="#5B7788" transform="translate(583,96)"/>
<path d="M0 0 C149.82 0 299.64 0 454 0 C454 6.93 454 13.86 454 21 C447.07 21 440.14 21 433 21 C433 27.93 433 34.86 433 42 C426.4 42 419.8 42 413 42 C413 35.07 413 28.14 413 21 C276.71 21 140.42 21 0 21 C0 14.07 0 7.14 0 0 Z " fill="#3E80CB" transform="translate(126,117)"/>
<path d="M0 0 C7.26 0 14.52 0 22 0 C22 7.26 22 14.52 22 22 C15.07 22 8.14 22 1 22 C1 35.53 1 49.06 1 63 C-5.6 63 -12.2 63 -19 63 C-18.96041741 69.5370285 -18.96041741 69.5370285 -18.90991211 76.07397461 C-18.90741455 76.88358643 -18.90491699 77.69319824 -18.90234375 78.52734375 C-18.89710693 79.35999756 -18.89187012 80.19265137 -18.88647461 81.05053711 C-19 83 -19 83 -20 84 C-21.41570123 84.08651611 -22.835595 84.10704904 -24.25390625 84.09765625 C-25.10791016 84.09443359 -25.96191406 84.09121094 -26.84179688 84.08789062 C-28.18854492 84.07532227 -28.18854492 84.07532227 -29.5625 84.0625 C-30.46419922 84.05798828 -31.36589844 84.05347656 -32.29492188 84.04882812 C-34.53001314 84.03700225 -36.76497437 84.0205222 -39 84 C-38.99476318 85.2367749 -38.98952637 86.4735498 -38.98413086 87.74780273 C-38.96608439 92.31924725 -38.95456929 96.89068859 -38.94506836 101.4621582 C-38.94002733 103.44393441 -38.93319462 105.42570689 -38.92456055 107.4074707 C-38.91248485 110.24952109 -38.90676955 113.09152247 -38.90234375 115.93359375 C-38.89718246 116.82525742 -38.89202118 117.71692108 -38.88670349 118.63560486 C-38.88650823 120.75740601 -38.9378997 122.8791078 -39 125 C-39.33 125.33 -39.66 125.66 -40 126 C-46.93 126 -53.86 126 -61 126 C-61 140.19 -61 154.38 -61 169 C-67.6 169 -74.2 169 -81 169 C-81 182.86 -81 196.72 -81 211 C-87.6 211 -94.2 211 -101 211 C-101 224.53 -101 238.06 -101 252 C-108.26 252 -115.52 252 -123 252 C-123 231.21 -123 210.42 -123 189 C-116.07 189 -109.14 189 -102 189 C-102 182.07 -102 175.14 -102 168 C-95.4 168 -88.8 168 -82 168 C-82 153.81 -82 139.62 -82 125 C-75.4 125 -68.8 125 -62 125 C-62.01160156 122.05191406 -62.02320313 119.10382813 -62.03515625 116.06640625 C-62.04294616 113.22355253 -62.0490233 110.38069998 -62.05493164 107.5378418 C-62.05997267 105.55606559 -62.06680538 103.57429311 -62.07543945 101.5925293 C-62.08751515 98.75047891 -62.09323045 95.90847753 -62.09765625 93.06640625 C-62.10281754 92.17474258 -62.10797882 91.28307892 -62.11329651 90.36439514 C-62.11349177 88.24259399 -62.0621003 86.1208922 -62 84 C-61 83 -61 83 -58.95874023 82.88647461 C-58.08419189 82.89171143 -57.20964355 82.89694824 -56.30859375 82.90234375 C-55.36435547 82.90556641 -54.42011719 82.90878906 -53.44726562 82.91210938 C-52.45404297 82.92048828 -51.46082031 82.92886719 -50.4375 82.9375 C-49.44041016 82.94201172 -48.44332031 82.94652344 -47.41601562 82.95117188 C-44.94398513 82.96299977 -42.47198528 82.98093585 -40 83 C-40 76.4 -40 69.8 -40 63 C-33.4 63 -26.8 63 -20 63 C-20 49.14 -20 35.28 -20 21 C-13.4 21 -6.8 21 0 21 C0 14.07 0 7.14 0 0 Z " fill="#496879" transform="translate(620,159)"/>
<path d="M0 0 C33 0 66 0 100 0 C100 6.27 100 12.54 100 19 C110.89 19.495 110.89 19.495 122 20 C122 69.17 122 118.34 122 169 C114.74 169.33 107.48 169.66 100 170 C100 185.51 100 201.02 100 217 C99.67 217 99.34 217 99 217 C99 215.02 99 213.04 99 211 C92.73 211 86.46 211 80 211 C80.185625 213.59875 80.37125 216.1975 80.5625 218.875 C81.62810855 237.2050342 80.55095258 255.6659934 80 274 C73.4 274.33 66.8 274.66 60 275 C60 281.27 60 287.54 60 294 C52.74 294 45.48 294 38 294 C38 293.67 38 293.34 38 293 C44.93 293 51.86 293 59 293 C59 279.47 59 265.94 59 252 C65.6 252 72.2 252 79 252 C79 238.14 79 224.28 79 210 C85.6 210 92.2 210 99 210 C98.98839844 207.21175781 98.97679687 204.42351562 98.96484375 201.55078125 C98.84746578 165.15241393 98.84746578 165.15241393 100 147 C106.93 147 113.86 147 121 147 C121 112.68 121 78.36 121 43 C114.07 43 107.14 43 100 43 C99.835 39.7825 99.67 36.565 99.5 33.25 C99.44779297 32.28352539 99.39558594 31.31705078 99.34179688 30.32128906 C98.86979589 20.51790362 99 10.86209473 99 1 C72.27 1 45.54 1 18 1 C18 7.6 18 14.2 18 21 C-138.75 21 -295.5 21 -457 21 C-457 27.93 -457 34.86 -457 42 C-456.01 42.495 -456.01 42.495 -455 43 C-460.97029685 45.98514842 -468.3250052 44 -475 44 C-475.33 84.92 -475.66 125.84 -476 168 C-476.33 168 -476.66 168 -477 168 C-477 126.75 -477 85.5 -477 43 C-483.93 43 -490.86 43 -498 43 C-498 222.85 -498 402.7 -498 588 C-491.4 588 -484.8 588 -478 588 C-477 589 -477 589 -476.88647461 590.85766602 C-476.89171143 591.64842529 -476.89694824 592.43918457 -476.90234375 593.25390625 C-476.90556641 594.10791016 -476.90878906 594.96191406 -476.91210938 595.84179688 C-476.92048828 596.73962891 -476.92886719 597.63746094 -476.9375 598.5625 C-476.94201172 599.46419922 -476.94652344 600.36589844 -476.95117188 601.29492188 C-476.96299775 603.53001314 -476.9794778 605.76497437 -477 608 C-476.03120925 607.99943042 -476.03120925 607.99943042 -475.04284698 607.99884933 C-436.68791625 607.97642779 -398.33298637 607.95929154 -359.9780504 607.94893467 C-355.36354075 607.9476841 -350.74903111 607.94638976 -346.13452148 607.94506836 C-345.21593004 607.94480605 -344.29733859 607.94454374 -343.35091104 607.94427348 C-328.51471784 607.93993275 -313.67852854 607.93205405 -298.84233765 607.9228472 C-283.59723919 607.91346614 -268.35214276 607.90793499 -253.10704154 607.90591151 C-243.71460773 607.9045455 -234.32218498 607.9002452 -224.92975458 607.89208353 C-218.47218966 607.88676105 -212.01463038 607.8852081 -205.55706344 607.88649862 C-201.84214049 607.88713348 -198.12723673 607.8862227 -194.41231728 607.88079453 C-190.36025934 607.87491786 -186.30824112 607.87704015 -182.25617981 607.87974548 C-181.11504646 607.87683264 -179.9739131 607.8739198 -178.79819995 607.87091869 C-168.15178746 607.88987584 -157.676717 608.4915849 -147 609 C-147 560.16 -147 511.32 -147 461 C-140.4 461 -133.8 461 -127 461 C-127 468.26 -127 475.52 -127 483 C-133.27 483 -139.54 483 -146 483 C-146 533.16 -146 583.32 -146 635 C-146.33 634.01 -146.66 633.02 -147 632 C-154.26 631.67 -161.52 631.34 -169 631 C-169 623.74 -169 616.48 -169 609 C-277.9 609 -386.8 609 -499 609 C-499 421.89 -499 234.78 -499 42 C-492.4 42 -485.8 42 -479 42 C-478.67 34.74 -478.34 27.48 -478 20 C-321.25 20 -164.5 20 -3 20 C-3 13.73 -3 7.46 -3 1 C-2.67 1 -2.34 1 -2 1 C-2 7.27 -2 13.54 -2 20 C4.27 20 10.54 20 17 20 C17 13.73 17 7.46 17 1 C11.39 1 5.78 1 0 1 C0 0.67 0 0.34 0 0 Z M60 253 C60 259.6 60 266.2 60 273 C66.27 273 72.54 273 79 273 C79 266.4 79 259.8 79 253 C72.73 253 66.46 253 60 253 Z M-498 589 C-498 595.27 -498 601.54 -498 608 C-491.4 608 -484.8 608 -478 608 C-478 601.73 -478 595.46 -478 589 C-484.6 589 -491.2 589 -498 589 Z " fill="#82B1DA" transform="translate(583,96)"/>
<path d="M0 0 C7.26 0 14.52 0 22 0 C22 20.79 22 41.58 22 63 C15.07 63 8.14 63 1 63 C1 76.86 1 90.72 1 105 C-5.6 105 -12.2 105 -19 105 C-19 118.86 -19 132.72 -19 147 C-12.4 147 -5.8 147 1 147 C1 202.11 1 257.22 1 314 C0.67 314 0.34 314 0 314 C0 265.82 0 217.64 0 168 C-6.6 168 -13.2 168 -20 168 C-20 140.28 -20 112.56 -20 84 C-13.4 84 -6.8 84 0 84 C0 56.28 0 28.56 0 0 Z " fill="#32608A" transform="translate(414,390)"/>
<path d="M0 0 C7.26 0 14.52 0 22 0 C22 7.26 22 14.52 22 22 C15.07 22 8.14 22 1 22 C1 35.53 1 49.06 1 63 C-5.6 63 -12.2 63 -19 63 C-18.96041741 69.5370285 -18.96041741 69.5370285 -18.90991211 76.07397461 C-18.90741455 76.88358643 -18.90491699 77.69319824 -18.90234375 78.52734375 C-18.89710693 79.35999756 -18.89187012 80.19265137 -18.88647461 81.05053711 C-19 83 -19 83 -20 84 C-26.27 84 -32.54 84 -39 84 C-39 97.53 -39 111.06 -39 125 C-39.33 125 -39.66 125 -40 125 C-40 111.47 -40 97.94 -40 84 C-46.93 84 -53.86 84 -61 84 C-61 83.67 -61 83.34 -61 83 C-54.07 83 -47.14 83 -40 83 C-40 76.4 -40 69.8 -40 63 C-33.4 63 -26.8 63 -20 63 C-20 49.14 -20 35.28 -20 21 C-13.4 21 -6.8 21 0 21 C0 14.07 0 7.14 0 0 Z " fill="#5E7A8B" transform="translate(620,159)"/>
<path d="M0 0 C0.33 0 0.66 0 1 0 C1 6.93 1 13.86 1 21 C7.93 21 14.86 21 22 21 C22 34.86 22 48.72 22 63 C14.74 63 7.48 63 0 63 C0 56.07 0 49.14 0 42 C-13.2 42 -26.4 42 -40 42 C-40 35.07 -40 28.14 -40 21 C-26.8 21 -13.6 21 0 21 C0 14.07 0 7.14 0 0 Z " fill="#3C5E74" transform="translate(558,432)"/>
<path d="M0 0 C6.93 0 13.86 0 21 0 C21 27.72 21 55.44 21 84 C14.07 84 7.14 84 0 84 C0 56.28 0 28.56 0 0 Z " fill="#1C476F" transform="translate(415,621)"/>
<path d="M0 0 C33 0 66 0 100 0 C100 6.27 100 12.54 100 19 C110.89 19.495 110.89 19.495 122 20 C122 69.17 122 118.34 122 169 C114.74 169.33 107.48 169.66 100 170 C100 185.51 100 201.02 100 217 C99.67 217 99.34 217 99 217 C99 215.02 99 213.04 99 211 C92.73 211 86.46 211 80 211 C80.185625 213.59875 80.37125 216.1975 80.5625 218.875 C81.62810855 237.2050342 80.55095258 255.6659934 80 274 C73.4 274.33 66.8 274.66 60 275 C60 281.27 60 287.54 60 294 C52.74 294 45.48 294 38 294 C38 293.67 38 293.34 38 293 C44.93 293 51.86 293 59 293 C59 279.47 59 265.94 59 252 C65.6 252 72.2 252 79 252 C79 238.14 79 224.28 79 210 C85.6 210 92.2 210 99 210 C98.98839844 207.21175781 98.97679687 204.42351562 98.96484375 201.55078125 C98.84746578 165.15241393 98.84746578 165.15241393 100 147 C106.93 147 113.86 147 121 147 C121 112.68 121 78.36 121 43 C114.07 43 107.14 43 100 43 C99.835 39.7825 99.67 36.565 99.5 33.25 C99.44779297 32.28352539 99.39558594 31.31705078 99.34179688 30.32128906 C98.86979589 20.51790362 99 10.86209473 99 1 C72.27 1 45.54 1 18 1 C18 7.6 18 14.2 18 21 C11.07 21 4.14 21 -3 21 C-3 14.4 -3 7.8 -3 1 C-2.67 1 -2.34 1 -2 1 C-2 7.27 -2 13.54 -2 20 C4.27 20 10.54 20 17 20 C17 13.73 17 7.46 17 1 C11.39 1 5.78 1 0 1 C0 0.67 0 0.34 0 0 Z M60 253 C60 259.6 60 266.2 60 273 C66.27 273 72.54 273 79 273 C79 266.4 79 259.8 79 253 C72.73 253 66.46 253 60 253 Z " fill="#9CADB8" transform="translate(583,96)"/>
<path d="M0 0 C6.27 0 12.54 0 19 0 C19 20.79 19 41.58 19 63 C12.73 63 6.46 63 0 63 C0 42.21 0 21.42 0 0 Z " fill="#E3E7EB" transform="translate(457,474)"/>
<path d="M0 0 C6.27 0 12.54 0 19 0 C19 20.13 19 40.26 19 61 C12.73 61 6.46 61 0 61 C0 40.87 0 20.74 0 0 Z " fill="#FEFEFE" transform="translate(477,412)"/>
<path d="M0 0 C0.33 0 0.66 0 1 0 C1 13.86 1 27.72 1 42 C-5.6 42 -12.2 42 -19 42 C-19 55.86 -19 69.72 -19 84 C-12.4 84 -5.8 84 1 84 C1 139.11 1 194.22 1 251 C0.67 251 0.34 251 0 251 C0 202.82 0 154.64 0 105 C-6.6 105 -13.2 105 -20 105 C-20 77.28 -20 49.56 -20 21 C-13.4 21 -6.8 21 0 21 C0 14.07 0 7.14 0 0 Z " fill="#2F689E" transform="translate(414,453)"/>
<path d="M0 0 C156.75 0 313.5 0 475 0 C475 0.33 475 0.66 475 1 C325.18 1 175.36 1 21 1 C21 7.93 21 14.86 21 22 C21.66 22.33 22.32 22.66 23 23 C17.02970315 25.98514842 9.6749948 24 3 24 C2.67 64.92 2.34 105.84 2 148 C1.67 148 1.34 148 1 148 C1 106.75 1 65.5 1 23 C-6.26 23 -13.52 23 -21 23 C-21 22.67 -21 22.34 -21 22 C-14.4 22 -7.8 22 -1 22 C-0.67 14.74 -0.34 7.48 0 0 Z " fill="#B9D3EC" transform="translate(105,116)"/>
<path d="M0 0 C6.93 0 13.86 0 21 0 C21 13.53 21 27.06 21 41 C14.07 41 7.14 41 0 41 C0 27.47 0 13.94 0 0 Z " fill="#EEF1F3" transform="translate(497,370)"/>
<path d="M0 0 C6.93 0 13.86 0 21 0 C21 13.53 21 27.06 21 41 C14.07 41 7.14 41 0 41 C0 27.47 0 13.94 0 0 Z " fill="#C8CFD4" transform="translate(559,243)"/>
<path d="M0 0 C6.27 0 12.54 0 19 0 C19 13.86 19 27.72 19 42 C12.73 42 6.46 42 0 42 C0 28.14 0 14.28 0 0 Z " fill="#C3CCD5" transform="translate(539,285)"/>
<path d="M0 0 C6.27 0 12.54 0 19 0 C19 13.53 19 27.06 19 41 C12.73 41 6.46 41 0 41 C0 27.47 0 13.94 0 0 Z " fill="#EBEEF2" transform="translate(519,328)"/>
<path d="M0 0 C6.93 0 13.86 0 21 0 C21 103.62 21 207.24 21 314 C20.67 314 20.34 314 20 314 C20 216.98 20 119.96 20 20 C13.4 20.33 6.8 20.66 0 21 C0 14.07 0 7.14 0 0 Z " fill="#5394CF" transform="translate(85,139)"/>
<path d="M0 0 C7.26 0 14.52 0 22 0 C23.33257403 44.1594533 23.33257403 44.1594533 22 64 C14.74 64.33 7.48 64.66 0 65 C0 71.27 0 77.54 0 84 C-6.6 84 -13.2 84 -20 84 C-20 91.26 -20 98.52 -20 106 C-26.6 106 -33.2 106 -40 106 C-40 112.6 -40 119.2 -40 126 C-47.26 126 -54.52 126 -62 126 C-62 125.67 -62 125.34 -62 125 C-55.07 125 -48.14 125 -41 125 C-41 118.4 -41 111.8 -41 105 C-34.4 105 -27.8 105 -21 105 C-21 97.74 -21 90.48 -21 83 C-14.4 83 -7.8 83 -1 83 C-1 76.4 -1 69.8 -1 63 C6.26 63 13.52 63 21 63 C21 49.14 21 35.28 21 21 C14.07 21 7.14 21 0 21 C0 14.07 0 7.14 0 0 Z " fill="#9CADB8" transform="translate(559,432)"/>
<path d="M0 0 C6.6 0 13.2 0 20 0 C20 7.26 20 14.52 20 22 C13.73 22 7.46 22 1 22 C1 72.16 1 122.32 1 174 C-1.14614855 169.7077029 -1.23727236 167.77413169 -1.20254517 163.06512451 C-1.20017046 162.36750291 -1.19779576 161.66988131 -1.1953491 160.95111966 C-1.1849341 158.61405939 -1.16005923 156.27737822 -1.13525391 153.94042969 C-1.1248276 152.26498931 -1.1152924 150.58954319 -1.10658264 148.91409302 C-1.0804032 144.36479063 -1.04173675 139.81566941 -1.00085878 135.26647854 C-0.96025503 130.51260031 -0.93109278 125.75865237 -0.90072632 121.00469971 C-0.84147719 112.00202249 -0.77191122 102.99945562 -0.69865549 93.99688268 C-0.61575892 83.74794568 -0.54433789 73.49893882 -0.47388959 63.24990988 C-0.32871193 42.1665029 -0.16868747 21.08323085 0 0 Z " fill="#ADBBC5" transform="translate(436,557)"/>
<path d="M0 0 C0.33 0 0.66 0 1 0 C1 13.86 1 27.72 1 42 C-5.6 42 -12.2 42 -19 42 C-19 55.86 -19 69.72 -19 84 C-19.33 84 -19.66 84 -20 84 C-20 63.21 -20 42.42 -20 21 C-13.4 21 -6.8 21 0 21 C0 14.07 0 7.14 0 0 Z " fill="#2B5E8C" transform="translate(414,453)"/>
<path d="M0 0 C7.26 0 14.52 0 22 0 C22 6.93 22 13.86 22 21 C15.07 21 8.14 21 1 21 C1 34.86 1 48.72 1 63 C0.67 63 0.34 63 0 63 C0 42.21 0 21.42 0 0 Z " fill="#477DA9" transform="translate(414,390)"/>
<path d="M0 0 C13.53 0 27.06 0 41 0 C41 6.93 41 13.86 41 21 C36.111875 21.061875 36.111875 21.061875 31.125 21.125 C30.09906738 21.14320801 29.07313477 21.16141602 28.01611328 21.18017578 C27.20899902 21.1851709 26.40188477 21.19016602 25.5703125 21.1953125 C24.74289551 21.20578613 23.91547852 21.21625977 23.06298828 21.22705078 C21 21 21 21 19 19 C18.77294922 17.12060547 18.77294922 17.12060547 18.8046875 14.8671875 C18.80968262 14.14128418 18.81467773 13.41538086 18.81982422 12.66748047 C18.83803223 11.74596191 18.85624023 10.82444336 18.875 9.875 C18.91625 6.94625 18.9575 4.0175 19 1 C12.73 1 6.46 1 0 1 C0 0.67 0 0.34 0 0 Z " fill="#1F486A" transform="translate(395,495)"/>
<path d="M0 0 C6.6 0 13.2 0 20 0 C20 6.93 20 13.86 20 21 C13.73 21.33 7.46 21.66 1 22 C0.67 28.6 0.34 35.2 0 42 C-10.395 42.495 -10.395 42.495 -21 43 C-21 42.34 -21 41.68 -21 41 C-14.4 41 -7.8 41 -1 41 C-1.020625 38.133125 -1.04125 35.26625 -1.0625 32.3125 C-1.09964837 21.51319646 -0.58286619 10.78302456 0 0 Z " fill="#A8B5C1" transform="translate(477,558)"/>
<path d="M0 0 C0.33 0 0.66 0 1 0 C1 13.86 1 27.72 1 42 C-19.46 42 -39.92 42 -61 42 C-61 41.67 -61 41.34 -61 41 C-47.14 41 -33.28 41 -19 41 C-19 34.73 -19 28.46 -19 22 C-12.73 22 -6.46 22 0 22 C0 14.74 0 7.48 0 0 Z " fill="#597686" transform="translate(620,390)"/>
<path d="M0 0 C6.93 0 13.86 0 21 0 C21 6.6 21 13.2 21 20 C14.4 20 7.8 20 1 20 C1 26.93 1 33.86 1 41 C0.67 41 0.34 41 0 41 C0 34.07 0 27.14 0 20 C-6.93 20 -13.86 20 -21 20 C-21 19.67 -21 19.34 -21 19 C-14.07 19 -7.14 19 0 19 C0 12.73 0 6.46 0 0 Z " fill="#294B64" transform="translate(642,139)"/>
<path d="M0 0 C6.93 0 13.86 0 21 0 C21 7.26 21 14.52 21 22 C18.28244089 23.35877956 16.96403918 22.62551447 14 22 C11.56494763 21.78301513 9.12698616 21.59709255 6.6875 21.4375 C4.480625 21.293125 2.27375 21.14875 0 21 C0 14.07 0 7.14 0 0 Z " fill="#90A2B0" transform="translate(415,705)"/>
<path d="M0 0 C6.93 0 13.86 0 21 0 C21 6.93 21 13.86 21 21 C14.07 21 7.14 21 0 21 C0 14.07 0 7.14 0 0 Z " fill="#536E81" transform="translate(559,474)"/>
<path d="M0 0 C6.93 0 13.86 0 21 0 C21 6.93 21 13.86 21 21 C14.07 21 7.14 21 0 21 C0 14.07 0 7.14 0 0 Z " fill="#3C7098" transform="translate(415,411)"/>
<path d="M0 0 C6.93 0 13.86 0 21 0 C21 6.93 21 13.86 21 21 C14.07 21 7.14 21 0 21 C0 14.07 0 7.14 0 0 Z " fill="#70899B" transform="translate(683,243)"/>
<path d="M0 0 C6.93 0 13.86 0 21 0 C21 6.93 21 13.86 21 21 C14.07 21 7.14 21 0 21 C0 14.07 0 7.14 0 0 Z " fill="#29526F" transform="translate(497,201)"/>
<path d="M0 0 C6.93 0 13.86 0 21 0 C21 6.93 21 13.86 21 21 C14.07 21 7.14 21 0 21 C0 14.07 0 7.14 0 0 Z " fill="#2F6190" transform="translate(559,117)"/>
<path d="M0 0 C6.93 0 13.86 0 21 0 C21 6.6 21 13.2 21 20 C14.07 20 7.14 20 0 20 C0 13.4 0 6.8 0 0 Z " fill="#244464" transform="translate(497,537)"/>
<path d="M0 0 C6.6 0 13.2 0 20 0 C20 6.93 20 13.86 20 21 C13.4 21 6.8 21 0 21 C0 14.07 0 7.14 0 0 Z " fill="#33556B" transform="translate(477,474)"/>
<path d="M0 0 C6.6 0 13.2 0 20 0 C20 6.93 20 13.86 20 21 C13.4 21 6.8 21 0 21 C0 14.07 0 7.14 0 0 Z " fill="#4483BB" transform="translate(394,453)"/>
<path d="M0 0 C6.93 0 13.86 0 21 0 C21 6.6 21 13.2 21 20 C14.07 20 7.14 20 0 20 C0 13.4 0 6.8 0 0 Z " fill="#FDFDFD" transform="translate(497,370)"/>
<path d="M0 0 C6.6 0 13.2 0 20 0 C20 6.93 20 13.86 20 21 C13.4 21 6.8 21 0 21 C0 14.07 0 7.14 0 0 Z " fill="#2E5069" transform="translate(518,306)"/>
<path d="M0 0 C6.93 0 13.86 0 21 0 C21 6.6 21 13.2 21 20 C14.07 20 7.14 20 0 20 C0 13.4 0 6.8 0 0 Z " fill="#F0F2F3" transform="translate(559,264)"/>
<path d="M0 0 C0.02887814 3.47914941 0.04675687 6.95826831 0.0625 10.4375 C0.07087891 11.43072266 0.07925781 12.42394531 0.08789062 13.44726562 C0.09272461 14.86362305 0.09272461 14.86362305 0.09765625 16.30859375 C0.10551147 17.62041626 0.10551147 17.62041626 0.11352539 18.95874023 C0 21 0 21 -1 22 C-2.41570123 22.08651611 -3.835595 22.10704904 -5.25390625 22.09765625 C-6.0229126 22.09515869 -6.79191895 22.09266113 -7.58422852 22.09008789 C-8.56705811 22.08098389 -9.5498877 22.07187988 -10.5625 22.0625 C-15.2340625 22.0315625 -15.2340625 22.0315625 -20 22 C-20 15.07 -20 8.14 -20 1 C-15.3284375 0.7525 -15.3284375 0.7525 -10.5625 0.5 C-9.57967041 0.44779297 -8.59684082 0.39558594 -7.58422852 0.34179688 C-6.81522217 0.30119141 -6.04621582 0.26058594 -5.25390625 0.21875 C-4.46314697 0.17685547 -3.6723877 0.13496094 -2.85766602 0.09179688 C-1.90578081 0.04475931 -0.95304668 0 0 0 Z " fill="#244861" transform="translate(601,242)"/>
<path d="M0 0 C6.6 0 13.2 0 20 0 C20 6.93 20 13.86 20 21 C13.4 21 6.8 21 0 21 C0 14.07 0 7.14 0 0 Z " fill="#1B4260" transform="translate(477,243)"/>
<path d="M0 0 C6.6 0 13.2 0 20 0 C20 6.93 20 13.86 20 21 C13.4 21 6.8 21 0 21 C0 14.07 0 7.14 0 0 Z " fill="#99C9E6" transform="translate(518,159)"/>
<path d="M0 0 C6.27 0 12.54 0 19 0 C19 7.26 19 14.52 19 22 C12.73 22 6.46 22 0 22 C0 14.74 0 7.48 0 0 Z " fill="#183D55" transform="translate(457,557)"/>
<path d="M0 0 C6.6 0 13.2 0 20 0 C20 6.6 20 13.2 20 20 C13.4 20 6.8 20 0 20 C0 13.4 0 6.8 0 0 Z " fill="#8599A5" transform="translate(456,579)"/>
<path d="M0 0 C6.6 0 13.2 0 20 0 C20 6.6 20 13.2 20 20 C13.4 20 6.8 20 0 20 C0 13.4 0 6.8 0 0 Z " fill="#32556D" transform="translate(456,453)"/>
<path d="M0 0 C6.6 0 13.2 0 20 0 C20 6.6 20 13.2 20 20 C13.4 20 6.8 20 0 20 C0 13.4 0 6.8 0 0 Z " fill="#396789" transform="translate(436,328)"/>
<path d="M0 0 C6.6 0 13.2 0 20 0 C20 6.6 20 13.2 20 20 C13.4 20 6.8 20 0 20 C0 13.4 0 6.8 0 0 Z " fill="#77ACD1" transform="translate(456,264)"/>
<path d="M0 0 C6.6 0 13.2 0 20 0 C20 6.6 20 13.2 20 20 C13.4 20 6.8 20 0 20 C0 13.4 0 6.8 0 0 Z " fill="#5D89A3" transform="translate(539,139)"/>
<path d="M0 0 C6.27 0 12.54 0 19 0 C19 6.93 19 13.86 19 21 C12.73 21 6.46 21 0 21 C0 14.07 0 7.14 0 0 Z " fill="#DBE1E5" transform="translate(457,474)"/>
<path d="M0 0 C6.93 0 13.86 0 21 0 C21 6.27 21 12.54 21 19 C14.07 19 7.14 19 0 19 C0 12.73 0 6.46 0 0 Z " fill="#173C5A" transform="translate(559,454)"/>
<path d="M0 0 C6.93 0 13.86 0 21 0 C21 6.27 21 12.54 21 19 C14.07 19 7.14 19 0 19 C0 12.73 0 6.46 0 0 Z " fill="#506D81" transform="translate(497,412)"/>
<path d="M0 0 C6.27 0 12.54 0 19 0 C19 6.93 19 13.86 19 21 C12.73 21 6.46 21 0 21 C0 14.07 0 7.14 0 0 Z " fill="#F3F5F5" transform="translate(539,285)"/>
<path d="M0 0 C1.18613892 0.00785522 1.18613892 0.00785522 2.39624023 0.01586914 C3.16524658 0.0183667 3.93425293 0.02086426 4.7265625 0.0234375 C5.70939209 0.0325415 6.69222168 0.04164551 7.70483398 0.05102539 C12.37639648 0.08196289 12.37639648 0.08196289 17.14233398 0.11352539 C17.14233398 6.71352539 17.14233398 13.31352539 17.14233398 20.11352539 C10.54233398 20.11352539 3.94233398 20.11352539 -2.85766602 20.11352539 C-2.88860352 15.44196289 -2.88860352 15.44196289 -2.92016602 10.67602539 C-2.92927002 9.6931958 -2.93837402 8.71036621 -2.94775391 7.69775391 C-2.95025146 6.92874756 -2.95274902 6.15974121 -2.95532227 5.36743164 C-2.96317749 4.18129272 -2.96317749 4.18129272 -2.97119141 2.97119141 C-2.81664371 0.44225938 -2.52893203 0.15454769 0 0 Z " fill="#23475D" transform="translate(540.857666015625,263.886474609375)"/>
<path d="M0 0 C6.27 0 12.54 0 19 0 C19 6.6 19 13.2 19 20 C12.73 20 6.46 20 0 20 C0 13.4 0 6.8 0 0 Z " fill="#FCFCFC" transform="translate(457,495)"/>
<path d="M0 0 C6.27 0 12.54 0 19 0 C19 6.6 19 13.2 19 20 C12.73 20 6.46 20 0 20 C0 13.4 0 6.8 0 0 Z " fill="#1F435A" transform="translate(539,495)"/>
<path d="M0 0 C6.6 0 13.2 0 20 0 C20 6.27 20 12.54 20 19 C13.4 19 6.8 19 0 19 C0 12.73 0 6.46 0 0 Z " fill="#4E6B7F" transform="translate(519,454)"/>
<path d="M0 0 C6.27 0 12.54 0 19 0 C19 6.6 19 13.2 19 20 C12.73 20 6.46 20 0 20 C0 13.4 0 6.8 0 0 Z " fill="#D5DCE0" transform="translate(477,453)"/>
<path d="M0 0 C6.27 0 12.54 0 19 0 C19 6.6 19 13.2 19 20 C12.73 20 6.46 20 0 20 C0 13.4 0 6.8 0 0 Z " fill="#D3D9DF" transform="translate(477,412)"/>
<path d="M0 0 C6.27 0 12.54 0 19 0 C19 6.6 19 13.2 19 20 C12.73 20 6.46 20 0 20 C0 13.4 0 6.8 0 0 Z " fill="#FAFAFB" transform="translate(519,328)"/>
<path d="M0 0 C6.27 0 12.54 0 19 0 C19 6.6 19 13.2 19 20 C12.73 20 6.46 20 0 20 C0 13.4 0 6.8 0 0 Z " fill="#4D6A7F" transform="translate(663,97)"/>
<path d="M0 0 C0.33 0 0.66 0 1 0 C1 13.53 1 27.06 1 41 C7.93 41 14.86 41 22 41 C22 41.33 22 41.66 22 42 C15.07 42 8.14 42 1 42 C1 56.19 1 70.38 1 85 C-5.6 85 -12.2 85 -19 85 C-19 98.86 -19 112.72 -19 127 C-25.6 127 -32.2 127 -39 127 C-39 140.53 -39 154.06 -39 168 C-39.33 168 -39.66 168 -40 168 C-40 154.47 -40 140.94 -40 127 C-46.93 127 -53.86 127 -61 127 C-61 126.67 -61 126.34 -61 126 C-54.07 126 -47.14 126 -40 126 C-40 112.14 -40 98.28 -40 84 C-33.4 84 -26.8 84 -20 84 C-20 69.81 -20 55.62 -20 41 C-13.4 41 -6.8 41 0 41 C0 27.47 0 13.94 0 0 Z M-19 42 C-19 55.86 -19 69.72 -19 84 C-12.73 84 -6.46 84 0 84 C0 70.14 0 56.28 0 42 C-6.27 42 -12.54 42 -19 42 Z M-39 85 C-39 98.53 -39 112.06 -39 126 C-32.73 126 -26.46 126 -20 126 C-20 112.47 -20 98.94 -20 85 C-26.27 85 -32.54 85 -39 85 Z " fill="#7A91A0" transform="translate(558,243)"/>
<path d="M0 0 C0.33 0 0.66 0 1 0 C1 13.53 1 27.06 1 41 C7.93 41 14.86 41 22 41 C22 41.33 22 41.66 22 42 C15.07 42 8.14 42 1 42 C1 62.46 1 82.92 1 104 C-5.6 104 -12.2 104 -19 104 C-19 124.79 -19 145.58 -19 167 C-19.33 167 -19.66 167 -20 167 C-20 146.21 -20 125.42 -20 104 C-26.27 104 -32.54 104 -39 104 C-39 124.79 -39 145.58 -39 167 C-39.33 167 -39.66 167 -40 167 C-40 145.88 -40 124.76 -40 103 C-33.4 103 -26.8 103 -20 103 C-20 82.54 -20 62.08 -20 41 C-13.4 41 -6.8 41 0 41 C0 27.47 0 13.94 0 0 Z M-19 42 C-19 62.13 -19 82.26 -19 103 C-12.73 103 -6.46 103 0 103 C0 82.87 0 62.74 0 42 C-6.27 42 -12.54 42 -19 42 Z " fill="#869BA9" transform="translate(496,370)"/>
<path d="M0 0 C6.27 0 12.54 0 19 0 C19 6.27 19 12.54 19 19 C12.73 19 6.46 19 0 19 C0 12.73 0 6.46 0 0 Z " fill="#EFF1F4" transform="translate(581,223)"/>
<path d="M0 0 C0.33 0 0.66 0 1 0 C1 6.93 1 13.86 1 21 C7.93 21 14.86 21 22 21 C22 21.33 22 21.66 22 22 C15.07 22 8.14 22 1 22 C1 35.53 1 49.06 1 63 C0.67 63 0.34 63 0 63 C0 49.47 0 35.94 0 22 C-6.27 22 -12.54 22 -19 22 C-18.99476318 23.84263428 -18.98952637 25.68526855 -18.98413086 27.58374023 C-18.96803294 33.65863168 -18.95652759 39.73351809 -18.94818783 45.80842495 C-18.94295992 49.49314498 -18.93586395 53.17784203 -18.92456055 56.86254883 C-18.91372838 60.41570831 -18.90772247 63.96884563 -18.90512276 67.52202034 C-18.9032691 68.88045666 -18.89964962 70.23889171 -18.89426994 71.59731865 C-18.88705525 73.49382223 -18.88659191 75.39034793 -18.88647461 77.28686523 C-18.884254 78.36830307 -18.88203339 79.44974091 -18.87974548 80.56394958 C-19 83 -19 83 -20 84 C-26.27 84 -32.54 84 -39 84 C-39 97.53 -39 111.06 -39 125 C-39.33 125 -39.66 125 -40 125 C-40 111.47 -40 97.94 -40 84 C-46.93 84 -53.86 84 -61 84 C-61 83.67 -61 83.34 -61 83 C-54.07 83 -47.14 83 -40 83 C-40 76.4 -40 69.8 -40 63 C-33.4 63 -26.8 63 -20 63 C-20 49.14 -20 35.28 -20 21 C-13.4 21 -6.8 21 0 21 C0 14.07 0 7.14 0 0 Z M-39 64 C-39 70.27 -39 76.54 -39 83 C-32.73 83 -26.46 83 -20 83 C-20 76.73 -20 70.46 -20 64 C-26.27 64 -32.54 64 -39 64 Z " fill="#36596E" transform="translate(620,159)"/>
<path d="M0 0 C6.6 0 13.2 0 20 0 C20 0.33 20 0.66 20 1 C13.73 1 7.46 1 1 1 C1 7.6 1 14.2 1 21 C7.93 21 14.86 21 22 21 C21.34 21.66 20.68 22.32 20 23 C14.06 23 8.12 23 2 23 C1.67 63.92 1.34 104.84 1 147 C0.67 147 0.34 147 0 147 C0 105.75 0 64.5 0 22 C-7.26 22 -14.52 22 -22 22 C-22 21.67 -22 21.34 -22 21 C-14.74 21 -7.48 21 0 21 C0 14.07 0 7.14 0 0 Z " fill="#94C6E9" transform="translate(106,117)"/>
<path d="M0 0 C0.33 0 0.66 0 1 0 C1 6.93 1 13.86 1 21 C7.93 21 14.86 21 22 21 C22 21.33 22 21.66 22 22 C15.07 22 8.14 22 1 22 C1 28.27 1 34.54 1 41 C7.93 41 14.86 41 22 41 C22 41.33 22 41.66 22 42 C15.07 42 8.14 42 1 42 C1 48.93 1 55.86 1 63 C0.67 63 0.34 63 0 63 C0 56.07 0 49.14 0 42 C-13.2 42 -26.4 42 -40 42 C-40 35.07 -40 28.14 -40 21 C-26.8 21 -13.6 21 0 21 C0 14.07 0 7.14 0 0 Z M-39 22 C-39 28.27 -39 34.54 -39 41 C-26.13 41 -13.26 41 0 41 C0 34.73 0 28.46 0 22 C-12.87 22 -25.74 22 -39 22 Z " fill="#32566D" transform="translate(558,432)"/>
<path d="M0 0 C0.33 0 0.66 0 1 0 C1 13.53 1 27.06 1 41 C7.27 41 13.54 41 20 41 C20 27.47 20 13.94 20 0 C20.33 0 20.66 0 21 0 C21 13.86 21 27.72 21 42 C14.4 42 7.8 42 1 42 C1 55.53 1 69.06 1 83 C0.67 83 0.34 83 0 83 C0 69.47 0 55.94 0 42 C-6.93 42 -13.86 42 -21 42 C-21 41.67 -21 41.34 -21 41 C-14.07 41 -7.14 41 0 41 C0 27.47 0 13.94 0 0 Z " fill="#899FAB" transform="translate(518,328)"/>
<path d="M0 0 C6.93 0 13.86 0 21 0 C21.020625 3.279375 21.04125 6.55875 21.0625 9.9375 C21.071604 10.97253662 21.08070801 12.00757324 21.09008789 13.07397461 C21.09258545 13.88358643 21.09508301 14.69319824 21.09765625 15.52734375 C21.10289307 16.35999756 21.10812988 17.19265137 21.11352539 18.05053711 C21 20 21 20 20 21 C13.73 21 7.46 21 1 21 C1 34.53 1 48.06 1 62 C0.67 62 0.34 62 0 62 C0 48.47 0 34.94 0 21 C-6.93 21 -13.86 21 -21 21 C-21 20.67 -21 20.34 -21 20 C-14.07 20 -7.14 20 0 20 C0 13.4 0 6.8 0 0 Z M1 1 C1 7.27 1 13.54 1 20 C7.27 20 13.54 20 20 20 C20 13.73 20 7.46 20 1 C13.73 1 7.46 1 1 1 Z " fill="#7D94A2" transform="translate(580,222)"/>
<path d="M0 0 C0.33 0 0.66 0 1 0 C1 28.38 1 56.76 1 86 C-4.61 86 -10.22 86 -16 86 C-16 85.67 -16 85.34 -16 85 C-10.72 85 -5.44 85 0 85 C0 56.95 0 28.9 0 0 Z " fill="#DEE3E7" transform="translate(765,599)"/>
<path d="M0 0 C0.33 0 0.66 0 1 0 C1 5.28 1 10.56 1 16 C12.88 16 24.76 16 37 16 C37 16.33 37 16.66 37 17 C24.79 17 12.58 17 0 17 C0 11.39 0 5.78 0 0 Z " fill="#CED6DC" transform="translate(662,583)"/>
<path d="M0 0 C14.52 0 29.04 0 44 0 C44 0.33 44 0.66 44 1 C29.48 1 14.96 1 0 1 C0 0.67 0 0.34 0 0 Z " fill="#B1BFC7" transform="translate(611,704)"/>
<path d="M0 0 C11.88 0 23.76 0 36 0 C36 0.33 36 0.66 36 1 C24.12 1 12.24 1 0 1 C0 0.67 0 0.34 0 0 Z " fill="#E2E8EA" transform="translate(681,726)"/>
<path d="M0 0 C0.33 0 0.66 0 1 0 C1 8.25 1 16.5 1 25 C0.67 25 0.34 25 0 25 C0 16.75 0 8.5 0 0 Z " fill="#F2F9F9" transform="translate(744,483)"/>
<path d="M0 0 C0.33 0 0.66 0 1 0 C1 2.31 1 4.62 1 7 C0.67 7 0.34 7 0 7 C0 4.69 0 2.38 0 0 Z " fill="#FFFFFF" transform="translate(723,621)"/>
<path d="M0 0 C1.98 0 3.96 0 6 0 C6 0.33 6 0.66 6 1 C4.02 1 2.04 1 0 1 C0 0.67 0 0.34 0 0 Z " fill="#E5E5E5" transform="translate(677,536)"/>
<path d="M0 0 C0.33 0 0.66 0 1 0 C1 1.98 1 3.96 1 6 C0.67 6 0.34 6 0 6 C0 4.02 0 2.04 0 0 Z " fill="#EEF3FF" transform="translate(745,509)"/>
<path d="M0 0 C0.33 0 0.66 0 1 0 C1 1.98 1 3.96 1 6 C0.67 6 0.34 6 0 6 C0 4.02 0 2.04 0 0 Z " fill="#FFFFFF" transform="translate(743,474)"/>
<path d="M0 0 C4 1 4 1 4 1 Z " fill="#CACADF" transform="translate(720,725)"/>
<path d="M0 0 C0.66 0 1.32 0 2 0 C1.67 0.66 1.34 1.32 1 2 C0.67 1.34 0.34 0.68 0 0 Z " fill="#FFFFFF" transform="translate(660,580)"/>
<path d="M0 0 C2 1 2 1 2 1 Z " fill="#FFFFFF" transform="translate(745,685)"/>
<path d="" fill="#FFFFFF" transform="translate(0,0)"/>
<path d="M0 0 C2 1 2 1 2 1 Z " fill="#FFFFFF" transform="translate(621,661)"/>
<path d="" fill="#FFFFFF" transform="translate(0,0)"/>
<path d="M0 0 C2 1 2 1 2 1 Z " fill="#FFFFFF" transform="translate(663,535)"/>
<path d="" fill="#FFFFFF" transform="translate(0,0)"/>
<path d="" fill="#FFFFFF" transform="translate(0,0)"/>
</svg>
