<?xml version="1.0" encoding="UTF-8"?>
<!-- Generator: visioncortex VTracer -->
<svg id="svg" version="1.1" xmlns="http://www.w3.org/2000/svg" style="display: block;" viewBox="0 0 512 512"><path d="M0 0 C9.9 0 19.8 0 30 0 C30 4.95 30 9.9 30 15 C34.62 15 39.24 15 44 15 C44 58.23 44 101.46 44 146 C106.7 146 169.4 146 234 146 C234 150.95 234 155.9 234 161 C238.95 161 243.9 161 249 161 C249 175.52 249 190.04 249 205 C244.05 205 239.1 205 234 205 C234 209.62 234 214.24 234 219 C229.38 219 224.76 219 220 219 C220 228.9 220 238.8 220 249 C215.05 249 210.1 249 205 249 C205 253.62 205 258.24 205 263 C200.38 263 195.76 263 191 263 C191 267.95 191 272.9 191 278 C186.05 278 181.1 278 176 278 C176 282.62 176 287.24 176 292 C171.05 292 166.1 292 161 292 C161 301.9 161 311.8 161 322 C156.38 322 151.76 322 147 322 C147 326.62 147 331.24 147 336 C142.05 336 137.1 336 132 336 C132 340.95 132 345.9 132 351 C127.05 351 122.1 351 117 351 C117 360.57 117 370.14 117 380 C112.38 380 107.76 380 103 380 C103 384.95 103 389.9 103 395 C98.05 395 93.1 395 88 395 C88 399.62 88 404.24 88 409 C83.38 409 78.76 409 74 409 C74 413.95 74 418.9 74 424 C64.1 424 54.2 424 44 424 C44 419.05 44 414.1 44 409 C39.38 409 34.76 409 30 409 C30 365.77 30 322.54 30 278 C-32.7 278 -95.4 278 -160 278 C-160 273.05 -160 268.1 -160 263 C-164.95 263 -169.9 263 -175 263 C-175 253.43 -175 243.86 -175 234 C-170.05 234 -165.1 234 -160 234 C-160 224.43 -160 214.86 -160 205 C-155.38 205 -150.76 205 -146 205 C-146 200.05 -146 195.1 -146 190 C-141.05 190 -136.1 190 -131 190 C-131 185.05 -131 180.1 -131 175 C-126.38 175 -121.76 175 -117 175 C-117 165.43 -117 155.86 -117 146 C-112.05 146 -107.1 146 -102 146 C-102 141.38 -102 136.76 -102 132 C-97.05 132 -92.1 132 -87 132 C-87 127.05 -87 122.1 -87 117 C-82.38 117 -77.76 117 -73 117 C-73 112.05 -73 107.1 -73 102 C-68.05 102 -63.1 102 -58 102 C-58 92.43 -58 82.86 -58 73 C-53.05 73 -48.1 73 -43 73 C-43 68.05 -43 63.1 -43 58 C-38.38 58 -33.76 58 -29 58 C-29 53.38 -29 48.76 -29 44 C-24.05 44 -19.1 44 -14 44 C-14 34.43 -14 24.86 -14 15 C-9.38 15 -4.76 15 0 15 C0 10.05 0 5.1 0 0 Z " transform="translate(219,44)" fill="currentColor"/><path d="M0 0 C4.95 0 9.9 0 15 0 C15 4.95 15 9.9 15 15 C10.05 15 5.1 15 0 15 C0 10.05 0 5.1 0 0 Z " transform="translate(102,190)" fill="currentColor"/></svg>