<?xml version="1.0" encoding="UTF-8"?>
<svg version="1.1" viewBox="-50 0 600 700" xmlns="http://www.w3.org/2000/svg">
<path d="M0 0 C5.28 0 10.56 0 16 0 C16 2.64 16 5.28 16 8 C18.64 8 21.28 8 24 8 C24 10.64 24 13.28 24 16 C26.64 16 29.28 16 32 16 C32 18.64 32 21.28 32 24 C37.28 24 42.56 24 48 24 C48 26.64 48 29.28 48 32 C50.64 32 53.28 32 56 32 C56 34.64 56 37.28 56 40 C58.64 40 61.28 40 64 40 C64 42.64 64 45.28 64 48 C66.64 48 69.28 48 72 48 C72 50.64 72 53.28 72 56 C74.64 56 77.28 56 80 56 C80 58.64 80 61.28 80 64 C82.64 64 85.28 64 88 64 C88 66.64 88 69.28 88 72 C90.64 72 93.28 72 96 72 C96 77.28 96 82.56 96 88 C98.64 88 101.28 88 104 88 C104 90.64 104 93.28 104 96 C106.64 96 109.28 96 112 96 C112 98.64 112 101.28 112 104 C114.64 104 117.28 104 120 104 C120 109.28 120 114.56 120 120 C122.64 120 125.28 120 128 120 C128 125.28 128 130.56 128 136 C130.64 136 133.28 136 136 136 C136 141.28 136 146.56 136 152 C138.64 152 141.28 152 144 152 C144 159.92 144 167.84 144 176 C146.64 176 149.28 176 152 176 C152 186.56 152 197.12 152 208 C154.64 208 157.28 208 160 208 C160 229.12 160 250.24 160 272 C157.36 272 154.72 272 152 272 C152 287.84 152 303.68 152 320 C154.64 320 157.28 320 160 320 C160 322.64 160 325.28 160 328 C162.64 328 165.28 328 168 328 C168 333.28 168 338.56 168 344 C170.64 344 173.28 344 176 344 C176 349.28 176 354.56 176 360 C178.64 360 181.28 360 184 360 C184 365.28 184 370.56 184 376 C186.64 376 189.28 376 192 376 C192 394.48 192 412.96 192 432 C186.72 432 181.44 432 176 432 C176 429.36 176 426.72 176 424 C173.36 424 170.72 424 168 424 C168 421.36 168 418.72 168 416 C165.36 416 162.72 416 160 416 C160 413.36 160 410.72 160 408 C154.72 408 149.44 408 144 408 C144 405.36 144 402.72 144 400 C125.52 400 107.04 400 88 400 C88 402.64 88 405.28 88 408 C80.08 408 72.16 408 64 408 C64 410.64 64 413.28 64 416 C58.72 416 53.44 416 48 416 C48 418.64 48 421.28 48 424 C42.72 424 37.44 424 32 424 C32 426.64 32 429.28 32 432 C21.44 432 10.88 432 0 432 C0 434.64 0 437.28 0 440 C-29.04 440 -58.08 440 -88 440 C-88 437.36 -88 434.72 -88 432 C-101.2 432 -114.4 432 -128 432 C-128 429.36 -128 426.72 -128 424 C-135.92 424 -143.84 424 -152 424 C-152 421.36 -152 418.72 -152 416 C-157.28 416 -162.56 416 -168 416 C-168 413.36 -168 410.72 -168 408 C-175.92 408 -183.84 408 -192 408 C-192 405.36 -192 402.72 -192 400 C-194.64 400 -197.28 400 -200 400 C-200 397.36 -200 394.72 -200 392 C-205.28 392 -210.56 392 -216 392 C-216 389.36 -216 386.72 -216 384 C-218.64 384 -221.28 384 -224 384 C-224 381.36 -224 378.72 -224 376 C-229.28 376 -234.56 376 -240 376 C-240 373.36 -240 370.72 -240 368 C-242.64 368 -245.28 368 -248 368 C-248 365.36 -248 362.72 -248 360 C-250.64 360 -253.28 360 -256 360 C-256 357.36 -256 354.72 -256 352 C-258.64 352 -261.28 352 -264 352 C-264 349.36 -264 346.72 -264 344 C-266.64 344 -269.28 344 -272 344 C-272 341.36 -272 338.72 -272 336 C-274.64 336 -277.28 336 -280 336 C-280 333.36 -280 330.72 -280 328 C-282.64 328 -285.28 328 -288 328 C-288 325.36 -288 322.72 -288 320 C-290.64 320 -293.28 320 -296 320 C-296 317.36 -296 314.72 -296 312 C-298.64 312 -301.28 312 -304 312 C-304 309.36 -304 306.72 -304 304 C-306.64 304 -309.28 304 -312 304 C-312 298.72 -312 293.44 -312 288 C-309.36 288 -306.72 288 -304 288 C-304 290.64 -304 293.28 -304 296 C-298.72 296 -293.44 296 -288 296 C-288 298.64 -288 301.28 -288 304 C-282.72 304 -277.44 304 -272 304 C-272 306.64 -272 309.28 -272 312 C-266.72 312 -261.44 312 -256 312 C-256 314.64 -256 317.28 -256 320 C-250.72 320 -245.44 320 -240 320 C-240 322.64 -240 325.28 -240 328 C-229.44 328 -218.88 328 -208 328 C-208 330.64 -208 333.28 -208 336 C-194.8 336 -181.6 336 -168 336 C-168 338.64 -168 341.28 -168 344 C-149.52 344 -131.04 344 -112 344 C-112 341.36 -112 338.72 -112 336 C-98.8 336 -85.6 336 -72 336 C-72 333.36 -72 330.72 -72 328 C-64.08 328 -56.16 328 -48 328 C-48 325.36 -48 322.72 -48 320 C-42.72 320 -37.44 320 -32 320 C-32 317.36 -32 314.72 -32 312 C-34.64 312 -37.28 312 -40 312 C-40 309.36 -40 306.72 -40 304 C-45.28 304 -50.56 304 -56 304 C-56 301.36 -56 298.72 -56 296 C-58.64 296 -61.28 296 -64 296 C-64 293.36 -64 290.72 -64 288 C-66.64 288 -69.28 288 -72 288 C-72 285.36 -72 282.72 -72 280 C-74.64 280 -77.28 280 -80 280 C-80 277.36 -80 274.72 -80 272 C-82.64 272 -85.28 272 -88 272 C-88 269.36 -88 266.72 -88 264 C-90.64 264 -93.28 264 -96 264 C-96 261.36 -96 258.72 -96 256 C-98.64 256 -101.28 256 -104 256 C-104 253.36 -104 250.72 -104 248 C-106.64 248 -109.28 248 -112 248 C-112 245.36 -112 242.72 -112 240 C-114.64 240 -117.28 240 -120 240 C-120 237.36 -120 234.72 -120 232 C-122.64 232 -125.28 232 -128 232 C-128 229.36 -128 226.72 -128 224 C-130.64 224 -133.28 224 -136 224 C-136 221.36 -136 218.72 -136 216 C-138.64 216 -141.28 216 -144 216 C-144 213.36 -144 210.72 -144 208 C-146.64 208 -149.28 208 -152 208 C-152 205.36 -152 202.72 -152 200 C-154.64 200 -157.28 200 -160 200 C-160 197.36 -160 194.72 -160 192 C-162.64 192 -165.28 192 -168 192 C-168 189.36 -168 186.72 -168 184 C-170.64 184 -173.28 184 -176 184 C-176 181.36 -176 178.72 -176 176 C-178.64 176 -181.28 176 -184 176 C-184 173.36 -184 170.72 -184 168 C-186.64 168 -189.28 168 -192 168 C-192 162.72 -192 157.44 -192 152 C-194.64 152 -197.28 152 -200 152 C-200 149.36 -200 146.72 -200 144 C-202.64 144 -205.28 144 -208 144 C-208 141.36 -208 138.72 -208 136 C-210.64 136 -213.28 136 -216 136 C-216 133.36 -216 130.72 -216 128 C-218.64 128 -221.28 128 -224 128 C-224 125.36 -224 122.72 -224 120 C-226.64 120 -229.28 120 -232 120 C-232 114.72 -232 109.44 -232 104 C-234.64 104 -237.28 104 -240 104 C-240 101.36 -240 98.72 -240 96 C-242.64 96 -245.28 96 -248 96 C-248 93.36 -248 90.72 -248 88 C-250.64 88 -253.28 88 -256 88 C-256 85.36 -256 82.72 -256 80 C-250.72 80 -245.44 80 -240 80 C-240 82.64 -240 85.28 -240 88 C-237.36 88 -234.72 88 -232 88 C-232 90.64 -232 93.28 -232 96 C-229.36 96 -226.72 96 -224 96 C-224 98.64 -224 101.28 -224 104 C-221.36 104 -218.72 104 -216 104 C-216 106.64 -216 109.28 -216 112 C-210.72 112 -205.44 112 -200 112 C-200 114.64 -200 117.28 -200 120 C-197.36 120 -194.72 120 -192 120 C-192 122.64 -192 125.28 -192 128 C-189.36 128 -186.72 128 -184 128 C-184 130.64 -184 133.28 -184 136 C-178.72 136 -173.44 136 -168 136 C-168 138.64 -168 141.28 -168 144 C-165.36 144 -162.72 144 -160 144 C-160 146.64 -160 149.28 -160 152 C-157.36 152 -154.72 152 -152 152 C-152 154.64 -152 157.28 -152 160 C-146.72 160 -141.44 160 -136 160 C-136 162.64 -136 165.28 -136 168 C-133.36 168 -130.72 168 -128 168 C-128 170.64 -128 173.28 -128 176 C-125.36 176 -122.72 176 -120 176 C-120 178.64 -120 181.28 -120 184 C-114.72 184 -109.44 184 -104 184 C-104 186.64 -104 189.28 -104 192 C-101.36 192 -98.72 192 -96 192 C-96 194.64 -96 197.28 -96 200 C-93.36 200 -90.72 200 -88 200 C-88 194.72 -88 189.44 -88 184 C-90.64 184 -93.28 184 -96 184 C-96 181.36 -96 178.72 -96 176 C-98.64 176 -101.28 176 -104 176 C-104 173.36 -104 170.72 -104 168 C-106.64 168 -109.28 168 -112 168 C-112 165.36 -112 162.72 -112 160 C-114.64 160 -117.28 160 -120 160 C-120 157.36 -120 154.72 -120 152 C-122.64 152 -125.28 152 -128 152 C-128 146.72 -128 141.44 -128 136 C-130.64 136 -133.28 136 -136 136 C-136 133.36 -136 130.72 -136 128 C-138.64 128 -141.28 128 -144 128 C-144 125.36 -144 122.72 -144 120 C-146.64 120 -149.28 120 -152 120 C-152 114.72 -152 109.44 -152 104 C-154.64 104 -157.28 104 -160 104 C-160 101.36 -160 98.72 -160 96 C-162.64 96 -165.28 96 -168 96 C-168 93.36 -168 90.72 -168 88 C-170.64 88 -173.28 88 -176 88 C-176 82.72 -176 77.44 -176 72 C-170.72 72 -165.44 72 -160 72 C-160 74.64 -160 77.28 -160 80 C-157.36 80 -154.72 80 -152 80 C-152 82.64 -152 85.28 -152 88 C-149.36 88 -146.72 88 -144 88 C-144 90.64 -144 93.28 -144 96 C-141.36 96 -138.72 96 -136 96 C-136 98.64 -136 101.28 -136 104 C-133.36 104 -130.72 104 -128 104 C-128 106.64 -128 109.28 -128 112 C-122.72 112 -117.44 112 -112 112 C-112 114.64 -112 117.28 -112 120 C-109.36 120 -106.72 120 -104 120 C-104 122.64 -104 125.28 -104 128 C-101.36 128 -98.72 128 -96 128 C-96 130.64 -96 133.28 -96 136 C-93.36 136 -90.72 136 -88 136 C-88 138.64 -88 141.28 -88 144 C-82.72 144 -77.44 144 -72 144 C-72 146.64 -72 149.28 -72 152 C-69.36 152 -66.72 152 -64 152 C-64 154.64 -64 157.28 -64 160 C-61.36 160 -58.72 160 -56 160 C-56 162.64 -56 165.28 -56 168 C-50.72 168 -45.44 168 -40 168 C-40 170.64 -40 173.28 -40 176 C-37.36 176 -34.72 176 -32 176 C-32 178.64 -32 181.28 -32 184 C-29.36 184 -26.72 184 -24 184 C-24 186.64 -24 189.28 -24 192 C-18.72 192 -13.44 192 -8 192 C-8 194.64 -8 197.28 -8 200 C-5.36 200 -2.72 200 0 200 C0 202.64 0 205.28 0 208 C5.28 208 10.56 208 16 208 C16 210.64 16 213.28 16 216 C18.64 216 21.28 216 24 216 C24 218.64 24 221.28 24 224 C26.64 224 29.28 224 32 224 C32 226.64 32 229.28 32 232 C34.64 232 37.28 232 40 232 C40 226.72 40 221.44 40 216 C42.64 216 45.28 216 48 216 C48 202.8 48 189.6 48 176 C50.64 176 53.28 176 56 176 C56 162.8 56 149.6 56 136 C53.36 136 50.72 136 48 136 C48 122.8 48 109.6 48 96 C45.36 96 42.72 96 40 96 C40 88.08 40 80.16 40 72 C37.36 72 34.72 72 32 72 C32 64.08 32 56.16 32 48 C29.36 48 26.72 48 24 48 C24 42.72 24 37.44 24 32 C21.36 32 18.72 32 16 32 C16 26.72 16 21.44 16 16 C13.36 16 10.72 16 8 16 C8 13.36 8 10.72 8 8 C5.36 8 2.72 8 0 8 C0 5.36 0 2.72 0 0 Z " fill="currentColor" transform="translate(320,40)"/>
<path d="M0 0 C2.64 0 5.28 0 8 0 C8 2.64 8 5.28 8 8 C5.36 8 2.72 8 0 8 C0 5.36 0 2.72 0 0 Z " fill="currentColor"transform="translate(104,368)"/>
<path d="M0 0 C2.64 0 5.28 0 8 0 C8 2.64 8 5.28 8 8 C5.36 8 2.72 8 0 8 C0 5.36 0 2.72 0 0 Z " fill="currentColor" transform="translate(56,112)"/>
<path d="M0 0 C2.64 0 5.28 0 8 0 C8 2.64 8 5.28 8 8 C5.36 8 2.72 8 0 8 C0 5.36 0 2.72 0 0 Z " fill="currentColor" transform="translate(136,104)"/>
<path d="M0 0 C2.64 0 5.28 0 8 0 C8 2.64 8 5.28 8 8 C5.36 8 2.72 8 0 8 C0 5.36 0 2.72 0 0 Z " fill="currentColor" transform="translate(128,96)"/>
<path d="M0 0 C2.64 0 5.28 0 8 0 C8 2.64 8 5.28 8 8 C5.36 8 2.72 8 0 8 C0 5.36 0 2.72 0 0 Z " fill="currentColor" transform="translate(120,88)"/>
</svg>
