<?xml version="1.0" encoding="UTF-8"?>
<!-- Generator: visioncortex VTracer -->
<svg id="svg" version="1.1" xmlns="http://www.w3.org/2000/svg" style="display: block;" viewBox="0 0 1280 783"><path d="M0 0 C84.48 0 168.96 0 256 0 C256 10.23 256 20.46 256 31 C277.12 31 298.24 31 320 31 C320 41.56 320 52.12 320 63 C330.56 63 341.12 63 352 63 C352 73.23 352 83.46 352 94 C362.56 94 373.12 94 384 94 C384 104.23 384 114.46 384 125 C394.56 125 405.12 125 416 125 C416 135.56 416 146.12 416 157 C426.56 157 437.12 157 448 157 C448 167.23 448 177.46 448 188 C469.12 188 490.24 188 512 188 C512 198.23 512 208.46 512 219 C564.8 219 617.6 219 672 219 C672 208.77 672 198.54 672 188 C693.12 188 714.24 188 736 188 C736 208.79 736 229.58 736 251 C725.44 251 714.88 251 704 251 C704 261.23 704 271.46 704 282 C693.44 282 682.88 282 672 282 C672 292.23 672 302.46 672 313 C661.44 313 650.88 313 640 313 C640 323.56 640 334.12 640 345 C618.88 345 597.76 345 576 345 C576 355.23 576 365.46 576 376 C491.52 376 407.04 376 320 376 C320 365.77 320 355.54 320 345 C298.88 345 277.76 345 256 345 C256 334.44 256 323.88 256 313 C234.88 313 213.76 313 192 313 C192 302.77 192 292.54 192 282 C181.44 282 170.88 282 160 282 C160 271.77 160 261.54 160 251 C149.44 251 138.88 251 128 251 C128 240.44 128 229.88 128 219 C117.44 219 106.88 219 96 219 C96 208.77 96 198.54 96 188 C85.44 188 74.88 188 64 188 C64 177.77 64 167.54 64 157 C11.2 157 -41.6 157 -96 157 C-96 167.23 -96 177.46 -96 188 C-106.56 188 -117.12 188 -128 188 C-128 198.23 -128 208.46 -128 219 C-138.56 219 -149.12 219 -160 219 C-160 229.56 -160 240.12 -160 251 C-170.56 251 -181.12 251 -192 251 C-192 230.21 -192 209.42 -192 188 C-181.44 188 -170.88 188 -160 188 C-160 167.21 -160 146.42 -160 125 C-149.44 125 -138.88 125 -128 125 C-128 114.77 -128 104.54 -128 94 C-117.44 94 -106.88 94 -96 94 C-96 83.77 -96 73.54 -96 63 C-85.44 63 -74.88 63 -64 63 C-64 52.44 -64 41.88 -64 31 C-42.88 31 -21.76 31 0 31 C0 20.77 0 10.54 0 0 Z " transform="translate(512,0)" fill="currentColor"/>
<path d="M0 0 C63.36 0 126.72 0 192 0 C192 10.23 192 20.46 192 31 C213.12 31 234.24 31 256 31 C256 41.23 256 51.46 256 62 C277.12 62 298.24 62 320 62 C320 72.56 320 83.12 320 94 C330.56 94 341.12 94 352 94 C352 104.23 352 114.46 352 125 C362.56 125 373.12 125 384 125 C384 135.23 384 145.46 384 156 C394.56 156 405.12 156 416 156 C416 166.56 416 177.12 416 188 C426.56 188 437.12 188 448 188 C448 198.23 448 208.46 448 219 C469.12 219 490.24 219 512 219 C512 229.23 512 239.46 512 250 C543.68 250 575.36 250 608 250 C608 239.77 608 229.54 608 219 C629.12 219 650.24 219 672 219 C672 208.77 672 198.54 672 188 C682.56 188 693.12 188 704 188 C704 208.46 704 228.92 704 250 C693.44 250 682.88 250 672 250 C672 270.79 672 291.58 672 313 C661.44 313 650.88 313 640 313 C640 323.23 640 333.46 640 344 C618.88 344 597.76 344 576 344 C576 354.56 576 365.12 576 376 C533.76 376 491.52 376 448 376 C448 386.23 448 396.46 448 407 C426.88 407 405.76 407 384 407 C384 396.77 384 386.54 384 376 C341.76 376 299.52 376 256 376 C256 365.44 256 354.88 256 344 C234.88 344 213.76 344 192 344 C192 333.77 192 323.54 192 313 C181.44 313 170.88 313 160 313 C160 302.77 160 292.54 160 282 C149.44 282 138.88 282 128 282 C128 271.44 128 260.88 128 250 C117.44 250 106.88 250 96 250 C96 239.77 96 229.54 96 219 C85.44 219 74.88 219 64 219 C64 208.77 64 198.54 64 188 C42.88 188 21.76 188 0 188 C0 177.44 0 166.88 0 156 C-31.68 156 -63.36 156 -96 156 C-96 166.56 -96 177.12 -96 188 C-117.12 188 -138.24 188 -160 188 C-160 198.23 -160 208.46 -160 219 C-170.56 219 -181.12 219 -192 219 C-192 198.21 -192 177.42 -192 156 C-181.44 156 -170.88 156 -160 156 C-160 135.54 -160 115.08 -160 94 C-149.44 94 -138.88 94 -128 94 C-128 83.44 -128 72.88 -128 62 C-106.88 62 -85.76 62 -64 62 C-64 51.77 -64 41.54 -64 31 C-42.88 31 -21.76 31 0 31 C0 20.77 0 10.54 0 0 Z " transform="translate(224,376)" fill="currentColor"/>
<path d="M0 0 C10.56 0 21.12 0 32 0 C32 10.56 32 21.12 32 32 C21.44 32 10.88 32 0 32 C0 21.44 0 10.88 0 0 Z " transform="translate(928,532)" fill="currentColor"/><path d="M0 0 C10.56 0 21.12 0 32 0 C32 10.23 32 20.46 32 31 C21.44 31 10.88 31 0 31 C0 20.77 0 10.54 0 0 Z " transform="translate(0,595)" fill="currentColor"/>
<path d="M0 0 C10.56 0 21.12 0 32 0 C32 10.23 32 20.46 32 31 C21.44 31 10.88 31 0 31 C0 20.77 0 10.54 0 0 Z " transform="translate(1248,157)" fill="currentColor"/></svg>