<?xml version="1.0" encoding="UTF-8"?>
<!-- Generator: visioncortex VTracer -->
<svg id="svg" version="1.1" xmlns="http://www.w3.org/2000/svg" style="display: block;" viewBox="0 0 1910 500"><path d="M0 0 C9.57 0 19.14 0 29 0 C29 19.47 29 38.94 29 59 C38.9 59 48.8 59 59 59 C59 78.47 59 97.94 59 118 C68.9 118 78.8 118 89 118 C89 127.57 89 137.14 89 147 C98.9 147 108.8 147 119 147 C119 166.47 119 185.94 119 206 C128.9 206 138.8 206 149 206 C149 225.47 149 244.94 149 265 C158.9 265 168.8 265 179 265 C179 284.47 179 303.94 179 324 C188.57 324 198.14 324 208 324 C208 343.47 208 362.94 208 383 C217.9 383 227.8 383 238 383 C238 392.57 238 402.14 238 412 C90.49 412 -57.02 412 -209 412 C-209 392.53 -209 373.06 -209 353 C-199.1 353 -189.2 353 -179 353 C-179 333.86 -179 314.72 -179 295 C-169.43 295 -159.86 295 -150 295 C-150 275.53 -150 256.06 -150 236 C-140.1 236 -130.2 236 -120 236 C-120 216.53 -120 197.06 -120 177 C-110.1 177 -100.2 177 -90 177 C-90 167.1 -90 157.2 -90 147 C-80.1 147 -70.2 147 -60 147 C-60 127.86 -60 108.72 -60 89 C-50.1 89 -40.2 89 -30 89 C-30 69.53 -30 50.06 -30 30 C-20.1 30 -10.2 30 0 30 C0 20.1 0 10.2 0 0 Z " transform="translate(269,29)" fill="currentColor"/><path d="M0 0 C19.8 0 39.6 0 60 0 C60 9.57 60 19.14 60 29 C69.9 29 79.8 29 90 29 C90 48.47 90 67.94 90 88 C99.9 88 109.8 88 120 88 C120 97.57 120 107.14 120 117 C129.57 117 139.14 117 149 117 C149 136.47 149 155.94 149 176 C158.9 176 168.8 176 179 176 C179 166.43 179 156.86 179 147 C188.9 147 198.8 147 209 147 C209 137.1 209 127.2 209 117 C218.9 117 228.8 117 239 117 C239 97.86 239 78.72 239 59 C248.9 59 258.8 59 269 59 C269 39.53 269 20.06 269 0 C298.37 0 327.74 0 358 0 C358 9.57 358 19.14 358 29 C348.1 29 338.2 29 328 29 C328 38.9 328 48.8 328 59 C318.43 59 308.86 59 299 59 C299 78.14 299 97.28 299 117 C289.1 117 279.2 117 269 117 C269 136.47 269 155.94 269 176 C259.1 176 249.2 176 239 176 C239 195.47 239 214.94 239 235 C229.1 235 219.2 235 209 235 C209 244.9 209 254.8 209 265 C199.1 265 189.2 265 179 265 C179 274.57 179 284.14 179 294 C169.1 294 159.2 294 149 294 C149 284.43 149 274.86 149 265 C139.43 265 129.86 265 120 265 C120 245.53 120 226.06 120 206 C110.1 206 100.2 206 90 206 C90 186.53 90 167.06 90 147 C80.1 147 70.2 147 60 147 C60 127.53 60 108.06 60 88 C50.1 88 40.2 88 30 88 C30 78.43 30 68.86 30 59 C20.1 59 10.2 59 0 59 C0 39.53 0 20.06 0 0 Z " transform="translate(537,59)" fill="currentColor"/><path d="M0 0 C9.9 0 19.8 0 30 0 C30 9.57 30 19.14 30 29 C49.8 29 69.6 29 90 29 C90 38.57 90 48.14 90 58 C99.57 58 109.14 58 119 58 C119 77.47 119 96.94 119 117 C128.9 117 138.8 117 149 117 C149 126.9 149 136.8 149 147 C80.03 147 11.06 147 -60 147 C-60 156.57 -60 166.14 -60 176 C-40.2 176 -20.4 176 0 176 C0 185.9 0 195.8 0 206 C19.8 206 39.6 206 60 206 C60 196.1 60 186.2 60 176 C79.47 176 98.94 176 119 176 C119 195.47 119 214.94 119 235 C89.63 235 60.26 235 30 235 C30 244.57 30 254.14 30 264 C20.1 264 10.2 264 0 264 C0 254.43 0 244.86 0 235 C-19.8 235 -39.6 235 -60 235 C-60 225.43 -60 215.86 -60 206 C-69.9 206 -79.8 206 -90 206 C-90 196.1 -90 186.2 -90 176 C-99.57 176 -109.14 176 -119 176 C-119 146.96 -119 117.92 -119 88 C-109.43 88 -99.86 88 -90 88 C-90 68.53 -90 49.06 -90 29 C-60.3 29 -30.6 29 0 29 C0 19.43 0 9.86 0 0 Z M-30 58 C-30 67.9 -30 77.8 -30 88 C-39.9 88 -49.8 88 -60 88 C-60 97.57 -60 107.14 -60 117 C-20.4 117 19.2 117 60 117 C60 107.43 60 97.86 60 88 C50.1 88 40.2 88 30 88 C30 78.1 30 68.2 30 58 C10.2 58 -9.6 58 -30 58 Z " transform="translate(955,118)" fill="currentColor"/><path d="M0 0 C59.07 0 118.14 0 179 0 C179 9.57 179 19.14 179 29 C188.9 29 198.8 29 209 29 C209 58.37 209 87.74 209 118 C149.93 118 90.86 118 30 118 C30 127.57 30 137.14 30 147 C39.57 147 49.14 147 59 147 C59 156.9 59 166.8 59 177 C78.8 177 98.6 177 119 177 C119 167.1 119 157.2 119 147 C138.8 147 158.6 147 179 147 C179 166.47 179 185.94 179 206 C159.2 206 139.4 206 119 206 C119 215.57 119 225.14 119 235 C109.1 235 99.2 235 89 235 C89 225.43 89 215.86 89 206 C59.63 206 30.26 206 0 206 C0 196.43 0 186.86 0 177 C-9.9 177 -19.8 177 -30 177 C-30 128.16 -30 79.32 -30 29 C-20.1 29 -10.2 29 0 29 C0 19.43 0 9.86 0 0 Z M59 29 C59 38.9 59 48.8 59 59 C49.43 59 39.86 59 30 59 C30 68.57 30 78.14 30 88 C69.27 88 108.54 88 149 88 C149 78.43 149 68.86 149 59 C139.1 59 129.2 59 119 59 C119 49.1 119 39.2 119 29 C99.2 29 79.4 29 59 29 Z " transform="translate(1582,147)" fill="currentColor"/><path d="M0 0 C9.57 0 19.14 0 29 0 C29 9.57 29 19.14 29 29 C48.8 29 68.6 29 89 29 C89 38.57 89 48.14 89 58 C98.9 58 108.8 58 119 58 C119 67.9 119 77.8 119 88 C89.3 88 59.6 88 29 88 C29 78.1 29 68.2 29 58 C19.43 58 9.86 58 0 58 C0 67.9 0 77.8 0 88 C-9.9 88 -19.8 88 -30 88 C-30 97.57 -30 107.14 -30 117 C-39.9 117 -49.8 117 -60 117 C-60 126.9 -60 136.8 -60 147 C-50.1 147 -40.2 147 -30 147 C-30 156.57 -30 166.14 -30 176 C-20.1 176 -10.2 176 0 176 C0 185.9 0 195.8 0 206 C9.57 206 19.14 206 29 206 C29 196.1 29 186.2 29 176 C58.7 176 88.4 176 119 176 C119 185.9 119 195.8 119 206 C109.1 206 99.2 206 89 206 C89 215.57 89 225.14 89 235 C69.2 235 49.4 235 29 235 C29 244.57 29 254.14 29 264 C19.43 264 9.86 264 0 264 C0 254.43 0 244.86 0 235 C-19.8 235 -39.6 235 -60 235 C-60 225.43 -60 215.86 -60 206 C-69.9 206 -79.8 206 -90 206 C-90 196.1 -90 186.2 -90 176 C-99.9 176 -109.8 176 -120 176 C-120 146.96 -120 117.92 -120 88 C-110.1 88 -100.2 88 -90 88 C-90 78.1 -90 68.2 -90 58 C-80.1 58 -70.2 58 -60 58 C-60 48.43 -60 38.86 -60 29 C-40.2 29 -20.4 29 0 29 C0 19.43 0 9.86 0 0 Z " transform="translate(1403,118)" fill="currentColor"/><path d="M0 0 C19.8 0 39.6 0 60 0 C60 97.02 60 194.04 60 294 C40.2 294 20.4 294 0 294 C0 196.98 0 99.96 0 0 Z " transform="translate(1820,59)" fill="currentColor"/><path d="M0 0 C49.17 0 98.34 0 149 0 C149 19.47 149 38.94 149 59 C119.63 59 90.26 59 60 59 C60 107.51 60 156.02 60 206 C40.2 206 20.4 206 0 206 C0 138.02 0 70.04 0 0 Z " transform="translate(1134,147)" fill="currentColor"/></svg>