<?xml version="1.0" encoding="UTF-8"?>
<!-- Generator: visioncortex VTracer -->
<svg id="svg" version="1.1" xmlns="http://www.w3.org/2000/svg" style="display: block;" viewBox="0 0 507 500"><path d="M0 0 C9.9 0 19.8 0 30 0 C30 29.04 30 58.08 30 88 C39.9 88 49.8 88 60 88 C60 78.43 60 68.86 60 59 C89.37 59 118.74 59 149 59 C149 78.47 149 97.94 149 118 C139.1 118 129.2 118 119 118 C119 137.14 119 156.28 119 176 C109.43 176 99.86 176 90 176 C90 195.47 90 214.94 90 235 C80.1 235 70.2 235 60 235 C60 254.47 60 273.94 60 294 C50.1 294 40.2 294 30 294 C30 313.47 30 332.94 30 353 C20.1 353 10.2 353 0 353 C0 372.47 0 391.94 0 412 C-9.9 412 -19.8 412 -30 412 C-30 431.47 -30 450.94 -30 471 C-49.47 471 -68.94 471 -89 471 C-89 461.1 -89 451.2 -89 441 C-98.9 441 -108.8 441 -119 441 C-119 431.43 -119 421.86 -119 412 C-128.9 412 -138.8 412 -149 412 C-149 392.53 -149 373.06 -149 353 C-158.9 353 -168.8 353 -179 353 C-179 333.53 -179 314.06 -179 294 C-188.9 294 -198.8 294 -209 294 C-209 274.53 -209 255.06 -209 235 C-218.9 235 -228.8 235 -239 235 C-239 215.53 -239 196.06 -239 176 C-248.57 176 -258.14 176 -268 176 C-268 156.86 -268 137.72 -268 118 C-277.9 118 -287.8 118 -298 118 C-298 98.53 -298 79.06 -298 59 C-268.63 59 -239.26 59 -209 59 C-209 68.57 -209 78.14 -209 88 C-189.2 88 -169.4 88 -149 88 C-149 68.53 -149 49.06 -149 29 C-99.83 29 -50.66 29 0 29 C0 19.43 0 9.86 0 0 Z " transform="translate(328,0)" style="fill: #B353FF;"/><path d="M0 0 C9.9 0 19.8 0 30 0 C30 38.94 30 77.88 30 118 C39.9 118 49.8 118 60 118 C60 137.14 60 156.28 60 176 C50.1 176 40.2 176 30 176 C30 195.47 30 214.94 30 235 C20.1 235 10.2 235 0 235 C0 254.47 0 273.94 0 294 C-9.9 294 -19.8 294 -30 294 C-30 323.04 -30 352.08 -30 382 C-39.9 382 -49.8 382 -60 382 C-60 391.9 -60 401.8 -60 412 C-69.57 412 -79.14 412 -89 412 C-89 392.53 -89 373.06 -89 353 C-79.43 353 -69.86 353 -60 353 C-60 333.53 -60 314.06 -60 294 C-79.47 294 -98.94 294 -119 294 C-119 284.43 -119 274.86 -119 265 C-109.1 265 -99.2 265 -89 265 C-89 245.53 -89 226.06 -89 206 C-98.9 206 -108.8 206 -119 206 C-119 215.57 -119 225.14 -119 235 C-128.9 235 -138.8 235 -149 235 C-149 167.02 -149 99.04 -149 29 C-99.83 29 -50.66 29 0 29 C0 19.43 0 9.86 0 0 Z " transform="translate(328,0)" style="fill: #FFE600;"/><path d="M0 0 C29.37 0 58.74 0 89 0 C89 9.57 89 19.14 89 29 C108.8 29 128.6 29 149 29 C149 67.94 149 106.88 149 147 C139.1 147 129.2 147 119 147 C119 156.57 119 166.14 119 176 C99.2 176 79.4 176 59 176 C59 156.53 59 137.06 59 117 C49.43 117 39.86 117 30 117 C30 97.86 30 78.72 30 59 C20.1 59 10.2 59 0 59 C0 39.53 0 20.06 0 0 Z " transform="translate(30,59)" style="fill: #5EA9FF;"/><path d="M0 0 C29.37 0 58.74 0 89 0 C89 19.47 89 38.94 89 59 C79.1 59 69.2 59 59 59 C59 78.14 59 97.28 59 117 C49.43 117 39.86 117 30 117 C30 136.47 30 155.94 30 176 C20.1 176 10.2 176 0 176 C0 185.9 0 195.8 0 206 C-19.8 206 -39.6 206 -60 206 C-60 196.1 -60 186.2 -60 176 C-50.1 176 -40.2 176 -30 176 C-30 156.53 -30 137.06 -30 117 C-20.1 117 -10.2 117 0 117 C0 97.86 0 78.72 0 59 C-9.9 59 -19.8 59 -30 59 C-30 49.1 -30 39.2 -30 29 C-20.1 29 -10.2 29 0 29 C0 19.43 0 9.86 0 0 Z " transform="translate(388,59)" style="fill: #9D6AFF;"/><path d="M0 0 C9.9 0 19.8 0 30 0 C30 29.04 30 58.08 30 88 C-29.07 88.33 -88.14 88.66 -149 89 C-149 69.2 -149 49.4 -149 29 C-99.83 29 -50.66 29 0 29 C0 19.43 0 9.86 0 0 Z " transform="translate(328,0)" style="fill: #FFFC00;"/><path d="M0 0 C19.8 0 39.6 0 60 0 C60 9.57 60 19.14 60 29 C50.1 29 40.2 29 30 29 C30 48.47 30 67.94 30 88 C20.1 88 10.2 88 0 88 C0 107.47 0 126.94 0 147 C-9.9 147 -19.8 147 -30 147 C-30 166.47 -30 185.94 -30 206 C-49.47 206 -68.94 206 -89 206 C-89 186.53 -89 167.06 -89 147 C-79.43 147 -69.86 147 -60 147 C-60 137.1 -60 127.2 -60 117 C-50.1 117 -40.2 117 -30 117 C-30 87.96 -30 58.92 -30 29 C-20.1 29 -10.2 29 0 29 C0 19.43 0 9.86 0 0 Z " transform="translate(328,265)" style="fill: #F50CFF;"/><path d="M0 0 C29.37 0 58.74 0 89 0 C89 19.47 89 38.94 89 59 C79.1 59 69.2 59 59 59 C59 88.04 59 117.08 59 147 C49.1 147 39.2 147 29 147 C29 156.9 29 166.8 29 177 C19.43 177 9.86 177 0 177 C0 157.53 0 138.06 0 118 C9.57 118 19.14 118 29 118 C29 98.53 29 79.06 29 59 C9.53 59 -9.94 59 -30 59 C-30 49.43 -30 39.86 -30 30 C-20.1 30 -10.2 30 0 30 C0 20.1 0 10.2 0 0 Z " transform="translate(239,235)" style="fill: #FFC600;"/><path d="M0 0 C9.9 0 19.8 0 30 0 C30 9.57 30 19.14 30 29 C39.9 29 49.8 29 60 29 C60 19.43 60 9.86 60 0 C69.9 0 79.8 0 90 0 C90 19.47 90 38.94 90 59 C80.1 59 70.2 59 60 59 C60 68.57 60 78.14 60 88 C30.3 88 0.6 88 -30 88 C-30 68.53 -30 49.06 -30 29 C-20.1 29 -10.2 29 0 29 C0 19.43 0 9.86 0 0 Z " transform="translate(149,206)" style="fill: #9C6CFF;"/><path d="M0 0 C19.47 0 38.94 0 59 0 C59 9.57 59 19.14 59 29 C49.43 29 39.86 29 30 29 C30 48.47 30 67.94 30 88 C20.1 88 10.2 88 0 88 C0 97.9 0 107.8 0 118 C-19.8 118 -39.6 118 -60 118 C-60 108.1 -60 98.2 -60 88 C-50.1 88 -40.2 88 -30 88 C-30 68.53 -30 49.06 -30 29 C-20.1 29 -10.2 29 0 29 C0 19.43 0 9.86 0 0 Z " transform="translate(388,147)" style="fill: #C83CFF;"/><path d="M0 0 C19.8 0 39.6 0 60 0 C60 9.57 60 19.14 60 29 C50.1 29 40.2 29 30 29 C30 48.47 30 67.94 30 88 C10.2 88 -9.6 88 -30 88 C-30 68.53 -30 49.06 -30 29 C-20.1 29 -10.2 29 0 29 C0 19.43 0 9.86 0 0 Z " transform="translate(328,265)" style="fill: #D92BFF;"/><path d="M0 0 C29.37 0 58.74 0 89 0 C89 19.47 89 38.94 89 59 C59.63 59 30.26 59 0 59 C0 39.53 0 20.06 0 0 Z " transform="translate(30,59)" style="fill: #3ACEFF;"/><path d="M0 0 C19.8 0 39.6 0 60 0 C60 29.04 60 58.08 60 88 C50.1 88 40.2 88 30 88 C30 78.43 30 68.86 30 59 C20.1 59 10.2 59 0 59 C0 39.53 0 20.06 0 0 Z " transform="translate(179,353)" style="fill: #CE36FF;"/><path d="M0 0 C9.9 0 19.8 0 30 0 C30 19.47 30 38.94 30 59 C20.1 59 10.2 59 0 59 C0 68.57 0 78.14 0 88 C-19.8 88 -39.6 88 -60 88 C-60 78.43 -60 68.86 -60 59 C-50.1 59 -40.2 59 -30 59 C-30 49.1 -30 39.2 -30 29 C-20.1 29 -10.2 29 0 29 C0 19.43 0 9.86 0 0 Z " transform="translate(149,147)" style="fill: #7199FF;"/><path d="M0 0 C19.47 0 38.94 0 59 0 C59 9.57 59 19.14 59 29 C49.43 29 39.86 29 30 29 C30 38.9 30 48.8 30 59 C10.2 59 -9.6 59 -30 59 C-30 49.1 -30 39.2 -30 29 C-20.1 29 -10.2 29 0 29 C0 19.43 0 9.86 0 0 Z " transform="translate(388,147)" style="fill: #B551FF;"/><path d="M0 0 C19.47 0 38.94 0 59 0 C59 19.47 59 38.94 59 59 C39.53 59 20.06 59 0 59 C0 39.53 0 20.06 0 0 Z " transform="translate(209,294)" style="fill: #BC4AFF;"/><path d="M0 0 C9.9 0 19.8 0 30 0 C30 19.47 30 38.94 30 59 C10.2 59 -9.6 59 -30 59 C-30 49.1 -30 39.2 -30 29 C-20.1 29 -10.2 29 0 29 C0 19.43 0 9.86 0 0 Z " transform="translate(298,353)" style="fill: #EC16FF;"/><path d="M0 0 C9.9 0 19.8 0 30 0 C30 19.47 30 38.94 30 59 C10.2 59 -9.6 59 -30 59 C-30 49.1 -30 39.2 -30 29 C-20.1 29 -10.2 29 0 29 C0 19.43 0 9.86 0 0 Z " transform="translate(149,206)" style="fill: #8780FF;"/><path d="M0 0 C9.9 0 19.8 0 30 0 C30 19.47 30 38.94 30 59 C10.2 59 -9.6 59 -30 59 C-30 49.1 -30 39.2 -30 29 C-20.1 29 -10.2 29 0 29 C0 19.43 0 9.86 0 0 Z " transform="translate(388,59)" style="fill: #9475FF;"/><path d="M0 0 C19.47 0 38.94 0 59 0 C59 9.57 59 19.14 59 29 C49.43 29 39.86 29 30 29 C30 38.9 30 48.8 30 59 C20.1 59 10.2 59 0 59 C0 39.53 0 20.06 0 0 Z " transform="translate(30,59)" style="fill: #26E3FF;"/><path d="M0 0 C19.47 0 38.94 0 59 0 C59 9.57 59 19.14 59 29 C49.1 29 39.2 29 29 29 C29 38.57 29 48.14 29 58 C19.43 58 9.86 58 0 58 C0 38.86 0 19.72 0 0 Z " transform="translate(60,118)" style="fill: #4EBDFF;"/><path d="M0 0 C19.8 0 39.6 0 60 0 C60 9.9 60 19.8 60 30 C40.2 30 20.4 30 0 30 C0 20.1 0 10.2 0 0 Z " transform="translate(119,88)" style="fill: #54B5FF;"/><path d="M0 0 C9.9 0 19.8 0 30 0 C30 19.47 30 38.94 30 59 C20.1 59 10.2 59 0 59 C0 39.53 0 20.06 0 0 Z " transform="translate(209,382)" style="fill: #D92AFF;"/><path d="M0 0 C9.9 0 19.8 0 30 0 C30 19.47 30 38.94 30 59 C20.1 59 10.2 59 0 59 C0 39.53 0 20.06 0 0 Z " transform="translate(149,294)" style="fill: #AA5CFF;"/><path d="M0 0 C19.8 0 39.6 0 60 0 C60 9.57 60 19.14 60 29 C40.2 29 20.4 29 0 29 C0 19.43 0 9.86 0 0 Z " transform="translate(328,265)" style="fill: #D72EFF;"/><path d="M0 0 C9.57 0 19.14 0 29 0 C29 19.47 29 38.94 29 59 C19.43 59 9.86 59 0 59 C0 39.53 0 20.06 0 0 Z " transform="translate(239,294)" style="fill: #C53FFF;"/><path d="M0 0 C19.47 0 38.94 0 59 0 C59 9.57 59 19.14 59 29 C39.53 29 20.06 29 0 29 C0 19.43 0 9.86 0 0 Z " transform="translate(388,118)" style="fill: #A660FF;"/><path d="M0 0 C9.9 0 19.8 0 30 0 C30 9.9 30 19.8 30 30 C20.1 30 10.2 30 0 30 C0 20.1 0 10.2 0 0 Z " transform="translate(328,235)" style="fill: #BF48FF;"/><path d="M0 0 C9.9 0 19.8 0 30 0 C30 9.9 30 19.8 30 30 C20.1 30 10.2 30 0 30 C0 20.1 0 10.2 0 0 Z " transform="translate(358,176)" style="fill: #AF58FF;"/><path d="M0 0 C9.9 0 19.8 0 30 0 C30 9.9 30 19.8 30 30 C20.1 30 10.2 30 0 30 C0 20.1 0 10.2 0 0 Z " transform="translate(447,88)" style="fill: #AC5AFF;"/><path d="M0 0 C9.9 0 19.8 0 30 0 C30 9.9 30 19.8 30 30 C20.1 30 10.2 30 0 30 C0 20.1 0 10.2 0 0 Z " transform="translate(119,88)" style="fill: #4AC1FF;"/><path d="M0 0 C9.9 0 19.8 0 30 0 C30 9.57 30 19.14 30 29 C20.1 29 10.2 29 0 29 C0 19.43 0 9.86 0 0 Z " transform="translate(209,412)" style="fill: #E71BFF;"/><path d="M0 0 C9.9 0 19.8 0 30 0 C30 9.57 30 19.14 30 29 C20.1 29 10.2 29 0 29 C0 19.43 0 9.86 0 0 Z " transform="translate(298,353)" style="fill: #E420FF;"/><path d="M0 0 C9.9 0 19.8 0 30 0 C30 9.57 30 19.14 30 29 C20.1 29 10.2 29 0 29 C0 19.43 0 9.86 0 0 Z " transform="translate(179,353)" style="fill: #C542FF;"/><path d="M0 0 C9.9 0 19.8 0 30 0 C30 9.57 30 19.14 30 29 C20.1 29 10.2 29 0 29 C0 19.43 0 9.86 0 0 Z " transform="translate(328,265)" style="fill: #CE37FF;"/><path d="M0 0 C9.9 0 19.8 0 30 0 C30 9.57 30 19.14 30 29 C20.1 29 10.2 29 0 29 C0 19.43 0 9.86 0 0 Z " transform="translate(179,265)" style="fill: #A464FF;"/><path d="M0 0 C9.9 0 19.8 0 30 0 C30 9.57 30 19.14 30 29 C20.1 29 10.2 29 0 29 C0 19.43 0 9.86 0 0 Z " transform="translate(119,265)" style="fill: #9179FF;"/><path d="M0 0 C9.9 0 19.8 0 30 0 C30 9.57 30 19.14 30 29 C20.1 29 10.2 29 0 29 C0 19.43 0 9.86 0 0 Z " transform="translate(358,206)" style="fill: #BC4AFF;"/><path d="M0 0 C9.9 0 19.8 0 30 0 C30 9.57 30 19.14 30 29 C20.1 29 10.2 29 0 29 C0 19.43 0 9.86 0 0 Z " transform="translate(209,206)" style="fill: #9276FF;"/><path d="M0 0 C9.9 0 19.8 0 30 0 C30 9.57 30 19.14 30 29 C20.1 29 10.2 29 0 29 C0 19.43 0 9.86 0 0 Z " transform="translate(149,206)" style="fill: #8088FF;"/><path d="M0 0 C9.9 0 19.8 0 30 0 C30 9.57 30 19.14 30 29 C20.1 29 10.2 29 0 29 C0 19.43 0 9.86 0 0 Z " transform="translate(89,206)" style="fill: #6F9DFF;"/><path d="M0 0 C9.9 0 19.8 0 30 0 C30 9.57 30 19.14 30 29 C20.1 29 10.2 29 0 29 C0 19.43 0 9.86 0 0 Z " transform="translate(119,118)" style="fill: #57B3FF;"/><path d="M0 0 C9.9 0 19.8 0 30 0 C30 9.57 30 19.14 30 29 C20.1 29 10.2 29 0 29 C0 19.43 0 9.86 0 0 Z " transform="translate(388,59)" style="fill: #8C7CFF;"/><path d="M0 0 C9.9 0 19.8 0 30 0 C30 9.57 30 19.14 30 29 C20.1 29 10.2 29 0 29 C0 19.43 0 9.86 0 0 Z " transform="translate(89,59)" style="fill: #32D6FF;"/><path d="M0 0 C9.9 0 19.8 0 30 0 C30 9.57 30 19.14 30 29 C20.1 29 10.2 29 0 29 C0 19.43 0 9.86 0 0 Z " transform="translate(328,0)" style="fill: #FFFF35;"/><path d="M0 0 C9.57 0 19.14 0 29 0 C29 9.57 29 19.14 29 29 C19.43 29 9.86 29 0 29 C0 19.43 0 9.86 0 0 Z " transform="translate(418,147)" style="fill: #BC4CFF;"/><path d="M0 0 C9.57 0 19.14 0 29 0 C29 9.57 29 19.14 29 29 C19.43 29 9.86 29 0 29 C0 19.43 0 9.86 0 0 Z " transform="translate(418,118)" style="fill: #AF58FF;"/><path d="M0 0 C9.57 0 19.14 0 29 0 C29 9.57 29 19.14 29 29 C19.43 29 9.86 29 0 29 C0 19.43 0 9.86 0 0 Z " transform="translate(60,118)" style="fill: #44C7FF;"/><path d="M0 0 C9.57 0 19.14 0 29 0 C29 9.57 29 19.14 29 29 C19.43 29 9.86 29 0 29 C0 19.43 0 9.86 0 0 Z " transform="translate(60,59)" style="fill: #29E0FF;"/></svg>